<?xml version="1.0" standalone="no"?>
<!DOCTYPE svg PUBLIC "-//W3C//DTD SVG 1.1//EN" "http://www.w3.org/Graphics/SVG/1.1/DTD/svg11.dtd" >
<svg xmlns="http://www.w3.org/2000/svg" xmlns:xlink="http://www.w3.org/1999/xlink" version="1.1">
<metadata>
Created by FontForge 20170731 at Wed Jun 21 13:02:11 2017
 By Aleksey,,,
(URW)++,Copyright 2009 by (URW)++ Design &#38; Development
</metadata>
<defs>
<font id="CorporateAPro-Regular" horiz-adv-x="1024" vert-adv-y="2048" >
  <font-face 
    font-family="Corporate A Pro"
    font-weight="400"
    font-stretch="normal"
    units-per-em="2048"
    panose-1="0 0 0 0 0 0 0 0 0 0"
    ascent="1645"
    descent="-403"
    x-height="967"
    cap-height="1365"
    bbox="-382 -543 2079 2063"
    underline-thickness="79"
    underline-position="-413"
    unicode-range="U+0020-FB04"
  />
<missing-glyph horiz-adv-x="512" vert-adv-y="2457" 
d="M51 0v1365h410v-1365h-410zM410 51v1263h-308v-1263h308z" />
    <glyph glyph-name="ff" unicode="ff" horiz-adv-x="1191" vert-adv-y="2457" 
d="M368 967h234v-75h-234v-747q0 -51 12 -70q22 -35 134 -40v-41q-141 12 -228 12q-88 0 -229 -12v41q70 3 102 15q34 13 41 48q4 15 4 47v747h-141v63q86 3 115 18q21 10 28.5 31.5t10.5 79.5q4 90 18 139q24 84 105 131q69 40 157 40q97 0 154 -52q47 -41 47 -101
q0 -77 -76 -77q-34 0 -54 18q-19 17 -19 43q0 8 2 27q3 17 3 29q0 24 -12 39q-18 22 -50 22q-75 0 -107 -80q-17 -44 -17 -159v-136zM953 967h235v-75h-235v-747q0 -51 12 -70q22 -35 134 -40v-41q-141 12 -229 12t-228 -12v41q70 3 102 15q34 13 41 48q4 15 4 47v747h-141
v63q85 3 115 18q26 12 33 50q3 17 6 61q5 91 18 139q24 84 105 131q69 40 157 40q98 0 155 -52q47 -41 47 -101q0 -77 -76 -77q-34 0 -54 18q-19 17 -19 43q0 10 2 27q3 18 3 30q0 22 -13 38q-17 22 -49 22q-76 0 -108 -80q-17 -44 -17 -159v-136z" />
    <glyph glyph-name="fi" unicode="fi" horiz-adv-x="1156" vert-adv-y="2457" 
d="M368 967h234v-75h-234v-747q0 -51 12 -70q22 -35 134 -40v-41q-141 12 -228 12q-88 0 -229 -12v41q70 3 102 15q34 13 41 48q4 15 4 47v747h-141v63q86 3 115 18q21 10 28.5 31.5t10.5 79.5q4 90 18 139q24 84 105 131q69 40 157 40q97 0 154 -52q47 -41 47 -101
q0 -77 -76 -77q-34 0 -54 18q-19 17 -19 43q0 8 2 27q3 17 3 29q0 24 -12 39q-18 22 -50 22q-75 0 -107 -80q-17 -44 -17 -159v-136zM956 1003v-858q0 -51 12 -70q22 -35 134 -40v-41q-141 12 -228 12q-88 0 -229 -12v41q71 3 102 15q34 13 41 48q4 14 4 47v648q0 61 -12 82
q-17 30 -69 35q-24 2 -64 3v35q158 15 309 55zM888 1365q47 0 79 -32q33 -33 33 -79q0 -47 -33 -80q-32 -32 -80 -32q-45 0 -78 33q-32 32 -32 79t32 79q33 32 79 32z" />
    <glyph glyph-name="fl" unicode="fl" horiz-adv-x="1145" vert-adv-y="2457" 
d="M659 1335q156 16 294 53v-1243q0 -51 12 -70q22 -35 134 -40v-41q-141 12 -228 12q-88 0 -229 -12v41q71 3 102 15q34 13 41 48q4 15 4 47v1023q-1 55 -3 71q-5 39 -44 51q-21 5 -58 7q14 -30 14 -57q0 -76 -76 -76q-34 0 -54 18q-19 17 -19 43q0 9 3 30q3 15 3 26
q0 60 -62 60q-76 0 -108 -80q-17 -44 -17 -158v-136h234v-75h-234v-747q0 -51 12 -70q22 -35 134 -40v-41q-141 12 -228 12q-88 0 -229 -12v41q70 3 102 15q34 13 41 48q4 15 4 47v747h-141v63q86 3 115 18q21 10 28.5 31.5t10.5 79.5q4 90 18 139q24 84 105 131
q68 40 156 40q103 0 163 -59z" />
    <glyph glyph-name="ffi" unicode="ffi" horiz-adv-x="1742" vert-adv-y="2457" 
d="M368 967h234v-75h-234v-747q0 -51 12 -70q22 -35 134 -40v-41q-141 12 -228 12q-88 0 -229 -12v41q70 3 102 15q34 13 41 48q4 15 4 47v747h-141v63q86 3 115 18q21 10 28.5 31.5t10.5 79.5q4 90 18 139q24 84 105 131q69 40 157 40q97 0 154 -52q47 -41 47 -101
q0 -77 -76 -77q-34 0 -54 18q-19 17 -19 43q0 8 2 27q3 17 3 29q0 24 -12 39q-18 22 -50 22q-75 0 -107 -80q-17 -44 -17 -159v-136zM954 967h234v-75h-234v-747q0 -51 12 -70q22 -35 134 -40v-41q-141 12 -229 12q-87 0 -228 -12v41q70 3 102 15q34 13 41 48q4 15 4 47v747
h-141v63q85 3 115 18q26 12 33 50q3 17 6 61q5 91 18 139q24 84 105 131q68 40 157 40q97 0 154 -52q47 -41 47 -101q0 -77 -76 -77q-33 0 -53 18q-19 17 -19 43q0 10 2 27q2 18 2 30q0 23 -13 38q-17 22 -49 22q-75 0 -107 -80q-17 -44 -17 -159v-136zM1542 1003v-858
q0 -51 12 -70q22 -35 134 -40v-41q-140 12 -228 12t-229 -12v41q71 3 102 15q34 13 41 48q4 15 4 47v648q0 61 -12 82q-18 31 -69 35q-24 2 -64 3v35q160 15 309 55zM1454 1365q47 0 79 -32q33 -33 33 -79q0 -47 -33 -80q-32 -32 -80 -32q-45 0 -78 33q-32 33 -32 79
q0 47 32 79q33 32 79 32z" />
    <glyph glyph-name="ffl" unicode="ffl" horiz-adv-x="1730" vert-adv-y="2457" 
d="M1270 1297q14 -30 14 -57q0 -76 -76 -76q-34 0 -54 18q-19 17 -19 44q0 9 3 29q3 16 3 27q0 59 -62 59q-77 0 -109 -80q-17 -43 -17 -158v-136h235v-75h-235v-747q0 -51 12 -70q22 -35 134 -40v-41q-141 12 -228 12q-88 0 -229 -12v41q70 3 102 15q34 13 41 48q4 15 4 47
v747h-141v63q86 3 115 18q25 13 33 50q3 17 6 61q4 90 18 139q24 84 105 131q68 40 157 40q102 0 163 -59q159 17 294 53v-1243q0 -51 12 -70q22 -35 134 -40v-41q-140 12 -228 12t-229 -12v41q71 3 102 15q34 13 41 48q4 16 4 47v1023q-1 54 -3 70q-5 40 -44 52
q-20 5 -58 7zM368 967h234v-75h-234v-747q0 -51 12 -70q22 -35 134 -40v-41q-141 12 -228 12q-88 0 -229 -12v41q70 3 102 15q34 13 41 48q4 15 4 47v747h-141v63q86 3 115 18q21 10 28.5 31.5t10.5 79.5q4 90 18 139q24 84 105 131q69 40 157 40q97 0 154 -52
q47 -41 47 -101q0 -77 -76 -77q-34 0 -54 18q-19 17 -19 43q0 8 2 27q3 17 3 29q0 24 -12 39q-18 22 -50 22q-75 0 -107 -80q-17 -44 -17 -159v-136z" />
    <glyph glyph-name="fft" unicode="fft" horiz-adv-x="1805" vert-adv-y="2457" 
d="M368 967h234v-75h-234v-747q0 -51 12 -70q22 -35 134 -40v-41q-141 12 -228 12q-88 0 -229 -12v41q70 3 102 15q34 13 41 48q4 15 4 47v747h-141v63q86 3 115 18q21 10 28.5 31.5t10.5 79.5q4 90 18 139q24 84 105 131q69 40 157 40q97 0 154 -52q47 -41 47 -101
q0 -77 -76 -77q-34 0 -54 18q-19 17 -19 43q0 8 2 27q3 17 3 29q0 24 -12 39q-18 22 -50 22q-75 0 -107 -80q-17 -44 -17 -159v-136zM954 967h234v-75h-234v-747q0 -51 12 -70q22 -35 134 -40v-41q-141 12 -229 12q-87 0 -228 -12v41q70 3 102 15q34 13 41 48q4 15 4 47v747
h-141v63q85 3 115 18q26 12 33 50q3 17 6 61q5 91 18 139q24 84 105 131q68 40 157 40q97 0 154 -52q47 -41 47 -101q0 -77 -76 -77q-33 0 -53 18q-19 17 -19 43q0 10 2 27q2 18 2 30q0 23 -13 38q-17 22 -49 22q-75 0 -107 -80q-17 -44 -17 -159v-136zM1780 105l-1 -61
q-104 -62 -199 -62q-112 0 -170 65q-54 61 -57 189q-1 48 0 83l8 573h-132v63q56 4 90 21q112 55 155 283h53l-2 -292h238v-75h-238l-1 -596q0 -123 18 -168q28 -66 104 -66q49 0 134 43z" />
    <glyph glyph-name="ft" unicode="ft" horiz-adv-x="1219" vert-adv-y="2457" 
d="M368 967h234v-75h-234v-747q0 -51 12 -70q22 -35 134 -40v-41q-141 12 -228 12q-88 0 -229 -12v41q70 3 102 15q34 13 41 48q4 15 4 47v747h-141v63q86 3 115 18q21 10 28.5 31.5t10.5 79.5q4 90 18 139q24 84 105 131q69 40 157 40q97 0 154 -52q47 -41 47 -101
q0 -77 -76 -77q-34 0 -54 18q-19 17 -19 43q0 8 2 27q3 17 3 29q0 24 -12 39q-18 22 -50 22q-75 0 -107 -80q-17 -44 -17 -159v-136zM1194 105v-61q-105 -62 -200 -62q-151 0 -202 115q-25 57 -25 184v38l9 573h-133v63q56 4 90 21q112 55 155 283h53l-2 -292h238v-75h-238
l-1 -596q0 -123 18 -168q28 -66 104 -66q50 0 134 43z" />
    <glyph glyph-name=".notdef" horiz-adv-x="512" vert-adv-y="2457" 
d="M51 0v1365h410v-1365h-410zM410 51v1263h-308v-1263h308z" />
    <glyph glyph-name="glyph1" horiz-adv-x="0" vert-adv-y="0" 
 />
    <glyph glyph-name="glyph2" horiz-adv-x="512" vert-adv-y="2457" 
 />
    <glyph glyph-name="space" unicode=" " horiz-adv-x="512" vert-adv-y="2457" 
 />
    <glyph glyph-name="exclam" unicode="!" horiz-adv-x="507" vert-adv-y="2457" 
d="M203 410l-35 930h172l-35 -930h-102zM256 224q48 0 84 -35q35 -36 35 -86t-35 -86q-36 -35 -86 -35t-86 35q-35 36 -35 86q0 51 35 86q37 35 88 35z" />
    <glyph glyph-name="quotedbl" unicode="&#x22;" horiz-adv-x="773" vert-adv-y="2457" 
d="M298 818h-110l-23 547h156zM584 818h-111l-22 547h156z" />
    <glyph glyph-name="numbersign" unicode="#" horiz-adv-x="1243" vert-adv-y="2457" 
d="M1104 546l-17 -111h-231l-69 -435h-128l69 435h-296l-69 -435h-128l69 435h-231l18 111h231l47 297h-231l17 112h231l65 410h128l-65 -410h297l64 410h128l-65 -410h231l-18 -112h-230l-47 -297h230zM793 843h-296l-47 -297h296z" />
    <glyph glyph-name="dollar" unicode="$" horiz-adv-x="1071" vert-adv-y="2457" 
d="M501 40v585q-142 57 -187 79q-97 50 -142 115q-55 80 -55 198q0 226 203 325q81 40 181 45v163h64v-163q140 -11 246 -110l64 115h28v-378h-43q-41 175 -129 248q-65 52 -166 63v-539q157 -61 216 -95q192 -109 192 -319q0 -140 -82 -240q-117 -142 -326 -154v-163h-64
v164q-162 12 -292 122l-81 -131h-28v444h45q56 -353 356 -374zM565 40q94 12 150 51q107 75 107 224q0 95 -48 157q-48 63 -209 127v-559zM501 1323q-76 -10 -130 -48q-106 -75 -106 -214q0 -132 110 -193q45 -25 126 -57v512z" />
    <glyph glyph-name="percent" unicode="%" horiz-adv-x="1244" vert-adv-y="2457" 
d="M340 1376q121 0 191 -93q72 -95 72 -231q0 -138 -72 -233q-74 -96 -196 -96q-126 0 -201 99q-68 90 -68 230q0 139 75 230q78 94 199 94zM337 1327q-82 0 -118 -87q-30 -73 -30 -189q0 -279 145 -279q146 0 146 278q0 277 -143 277zM178 0l801 1365h86l-801 -1365h-86z
M914 643q122 0 193 -94t71 -231q0 -138 -72 -233q-73 -96 -196 -96q-127 0 -202 100q-68 89 -68 229t75 231q78 94 199 94zM912 594q-83 0 -119 -88q-30 -72 -30 -188q0 -280 146 -280t146 279q0 277 -143 277z" />
    <glyph glyph-name="ampersand" unicode="&#x26;" horiz-adv-x="1208" vert-adv-y="2457" 
d="M555 734l336 -458q78 109 78 226q0 38 -29 55q-20 12 -79 15v58q82 -9 149 -9t150 9v-58q-69 -6 -87 -18q-22 -14 -33 -80q-15 -93 -35 -147q-20 -57 -62 -118l54 -77q47 -68 73 -81q27 -13 102 -16v-41q-73 7 -129 7q-55 0 -129 -7l-76 110q-54 -42 -94 -65
q-109 -62 -243 -62q-198 0 -322 114q-110 102 -110 254q0 159 128 280q58 55 161 126l-21 31q-70 105 -85 133q-41 75 -41 153q0 114 81 191q88 83 218 83q117 0 191 -70q76 -71 76 -186q0 -113 -91 -220q-50 -58 -131 -132zM475 843q74 61 118 113q67 79 67 162
q0 71 -40 118q-42 50 -109 50q-75 0 -123 -57q-42 -48 -42 -119q0 -76 59 -165q18 -27 70 -102zM437 644q-90 -59 -136 -113q-73 -85 -73 -195q0 -125 80 -205q81 -81 207 -81q105 0 199 60q28 18 74 55z" />
    <glyph glyph-name="quotesingle" unicode="'" horiz-adv-x="487" vert-adv-y="2457" 
d="M298 818h-110l-23 547h156z" />
    <glyph glyph-name="parenleft" unicode="(" horiz-adv-x="633" vert-adv-y="2457" 
d="M450 1399h67q-205 -383 -205 -916q0 -532 205 -916h-67q-101 124 -162 249q-140 285 -140 667q0 383 140 668q61 125 162 248z" />
    <glyph glyph-name="parenright" unicode=")" horiz-adv-x="633" vert-adv-y="2457" 
d="M183 -433h-67q205 383 205 916t-205 916h67q101 -123 162 -248q140 -285 140 -668q0 -382 -140 -667q-61 -125 -162 -249z" />
    <glyph glyph-name="asterisk" unicode="*" horiz-adv-x="1071" vert-adv-y="2457" 
d="M491 1086l-8 245h106l-8 -245l230 84l33 -101l-236 -68l151 -193l-86 -63l-137 203l-137 -203l-86 63l151 193l-236 68l33 101z" />
    <glyph glyph-name="plus" unicode="+" horiz-adv-x="1071" vert-adv-y="2457" 
d="M110 630v121h363v358h126v-358h363v-121h-363v-358h-126v358h-363z" />
    <glyph glyph-name="comma" unicode="," horiz-adv-x="480" vert-adv-y="2457" 
d="M179 -341h-102q70 75 118 165q49 90 60 167h-8q-11 -3 -17 -3q-39 0 -65 20q-38 28 -38 83q0 49 34 81t85 32q60 0 93 -41q29 -36 29 -100q0 -173 -189 -404z" />
    <glyph glyph-name="hyphen" unicode="-" horiz-adv-x="526" vert-adv-y="2457" 
d="M0 503v92h526v-92h-526z" />
    <glyph glyph-name="period" unicode="." horiz-adv-x="470" vert-adv-y="2457" 
d="M237 215q47 0 81 -34t34 -82q0 -49 -34 -83t-82 -34q-49 0 -83 34q-34 35 -34 82q0 49 34 83q35 34 84 34z" />
    <glyph glyph-name="slash" unicode="/" horiz-adv-x="826" vert-adv-y="2457" 
d="M-176 -398l868 1763h113l-868 -1763h-113z" />
    <glyph glyph-name="zero" unicode="0" horiz-adv-x="1071" vert-adv-y="2457" 
d="M539 1354q130 0 228 -79q103 -83 156 -274q42 -153 42 -333q0 -286 -100 -483q-104 -203 -328 -203q-214 0 -319 184q-111 194 -111 507q0 205 55 368q105 313 377 313zM535 1295q-97 0 -163 -108q-90 -148 -90 -518q0 -395 107 -543q61 -85 150 -85q251 0 251 631
q0 297 -64 460q-29 75 -84 124q-45 39 -107 39z" />
    <glyph glyph-name="one" unicode="1" horiz-adv-x="1071" vert-adv-y="2457" 
d="M634 1399v-1219q0 -63 12 -85q20 -35 85 -44q22 -3 72 -7v-50q-127 13 -254 13t-253 -13v50q89 7 119 20q39 17 47 59q3 20 3 57v940h-230v50q133 11 220 70q86 58 123 159h56z" />
    <glyph glyph-name="two" unicode="2" horiz-adv-x="1071" vert-adv-y="2457" 
d="M915 143l-20 -143h-765v114q229 266 359 445q127 173 182 277q54 103 54 187q0 92 -59 153q-62 64 -163 64q-100 0 -175 -62q-80 -66 -105 -224h-67q18 184 78 264q51 68 138 103q79 33 171 33q146 0 242 -75q56 -43 87 -106q30 -62 30 -128q0 -137 -124 -308
q-126 -174 -491 -594h628z" />
    <glyph glyph-name="three" unicode="3" horiz-adv-x="1071" vert-adv-y="2457" 
d="M115 379h69q9 -95 35 -153q64 -141 247 -141q138 0 220 88q73 80 73 210q0 206 -154 267q-70 27 -187 27h-24v72h24q120 0 190 52q98 73 98 213q0 104 -56 168q-60 68 -167 68q-144 0 -216 -107q-35 -52 -54 -145h-63q36 356 375 356q171 0 268 -101q84 -89 84 -220
q0 -136 -97 -225q-57 -52 -155 -81q111 -27 176 -73q133 -93 133 -273q0 -172 -122 -287q-120 -113 -306 -113q-181 0 -283 100q-99 98 -108 298z" />
    <glyph glyph-name="four" unicode="4" horiz-adv-x="1071" vert-adv-y="2457" 
d="M591 -31v385h-552l555 1014h166v-886h227v-128h-227v-385h-169zM594 482l2 771l-415 -771h413z" />
    <glyph glyph-name="five" unicode="5" horiz-adv-x="1071" vert-adv-y="2457" 
d="M849 1193h-525l-69 -396q110 115 277 115q179 0 288 -119q113 -125 113 -327q0 -193 -111 -332q-120 -152 -327 -152q-206 0 -297 142q-48 75 -58 198h67q11 -86 41 -133q65 -103 209 -103q146 0 227 118q72 104 72 259q0 158 -74 254q-75 97 -204 97q-166 0 -256 -154
l-61 4l116 672h591z" />
    <glyph glyph-name="six" unicode="6" horiz-adv-x="1071" vert-adv-y="2457" 
d="M749 1420h105q-286 -270 -433 -525q80 27 143 27q159 0 267 -115q122 -130 122 -346q0 -208 -116 -342q-118 -137 -303 -137q-180 0 -299 125q-125 131 -125 350q0 215 152 443q114 170 339 386q74 71 148 134zM534 855q-130 0 -189 -111q-57 -105 -57 -286
q0 -416 241 -416q137 0 196 131q46 104 46 276q0 188 -57 295q-59 111 -180 111z" />
    <glyph glyph-name="seven" unicode="7" horiz-adv-x="1071" vert-adv-y="2457" 
d="M203 0l592 1187h-683v149h845l-602 -1336h-152z" />
    <glyph glyph-name="eight" unicode="8" horiz-adv-x="1071" vert-adv-y="2457" 
d="M702 699q234 -82 234 -329q0 -167 -102 -273q-110 -115 -299 -115q-177 0 -287 102q-112 103 -112 283q0 141 82 233q52 57 149 99q-84 37 -127 87q-73 84 -73 212q0 153 97 250q105 106 280 106q160 0 257 -90q103 -97 103 -260q0 -210 -202 -305zM541 667
q-119 0 -184 -104q-50 -80 -50 -200q0 -141 55 -228q60 -94 174 -94q119 0 179 105q50 87 50 214q0 129 -51 212q-59 95 -173 95zM542 1295q-111 0 -164 -97q-40 -73 -40 -183q0 -128 42 -202q49 -86 155 -86q99 0 153 87q45 74 45 193q0 128 -43 203q-48 85 -148 85z" />
    <glyph glyph-name="nine" unicode="9" horiz-adv-x="1071" vert-adv-y="2457" 
d="M345 -86h-105q270 267 411 528q-79 -28 -142 -28q-151 0 -252 113q-120 133 -120 351q0 202 107 336q112 140 292 140q170 0 284 -122q122 -132 122 -356q0 -212 -140 -437q-102 -165 -318 -389q-75 -79 -139 -136zM540 1294q-86 0 -144 -66q-83 -94 -83 -332
q0 -193 57 -306q55 -109 170 -109q230 0 230 390q0 423 -230 423z" />
    <glyph glyph-name="colon" unicode=":" horiz-adv-x="470" vert-adv-y="2457" 
d="M237 215q47 0 81 -34t34 -82q0 -49 -34 -83t-82 -34q-49 0 -83 34q-34 35 -34 82q0 49 34 83q35 34 84 34zM237 893q47 0 81 -34t34 -82q0 -49 -34 -83t-82 -34t-83 34q-34 35 -34 82q0 49 34 83q35 34 84 34z" />
    <glyph glyph-name="semicolon" unicode=";" horiz-adv-x="480" vert-adv-y="2457" 
d="M246 893q47 0 81 -34t34 -82q0 -49 -34 -83t-82 -34q-49 0 -83 34q-34 35 -34 82q0 49 34 83q35 34 84 34zM179 -341h-102q70 75 118 165q49 90 60 167h-8q-11 -3 -17 -3q-39 0 -65 20q-38 28 -38 83q0 49 34 81t85 32q60 0 93 -41q29 -36 29 -100q0 -173 -189 -404z" />
    <glyph glyph-name="less" unicode="&#x3c;" vert-adv-y="2457" 
d="M935 1249v-70l-656 -428l656 -437v-186l-846 563v13z" />
    <glyph glyph-name="equal" unicode="=" horiz-adv-x="1071" vert-adv-y="2457" 
d="M110 764v120h852v-120h-852zM110 497v120h852v-120h-852z" />
    <glyph glyph-name="greater" unicode="&#x3e;" vert-adv-y="2457" 
d="M89 128v70l655 428l-655 437v186l846 -563v-12z" />
    <glyph glyph-name="question" unicode="?" horiz-adv-x="784" vert-adv-y="2457" 
d="M373 392h-87q-8 60 -8 107q0 110 41 184q28 52 72 96l60 61q117 117 117 218q0 97 -71 147q-47 32 -114 32q-120 0 -190 -84q-48 -58 -59 -158h-55q0 107 32 176q43 94 143 143q81 40 178 40q111 0 187 -54q117 -84 117 -240q0 -93 -48 -169q-38 -59 -145 -144
q-79 -62 -111 -104q-62 -81 -62 -207q0 -17 3 -44zM348 224q49 0 85 -35q35 -36 35 -86t-35 -86q-36 -35 -86 -35t-86 35q-35 36 -35 86q0 51 35 86q37 35 87 35z" />
    <glyph glyph-name="at" unicode="@" horiz-adv-x="1449" vert-adv-y="2457" 
d="M1290 357h96q-57 -101 -107 -154q-122 -129 -282 -187q-104 -37 -224 -37q-233 0 -422 125q-159 106 -237 280q-62 138 -62 291q0 216 117 395q105 163 281 247q147 69 313 69q271 0 463 -174q171 -154 171 -395q0 -217 -136 -368q-84 -94 -191 -139q-62 -26 -114 -26
q-87 0 -125 58q-20 30 -29 95q-49 -64 -84 -91q-65 -52 -145 -52q-117 0 -194 88q-67 76 -67 193q0 189 141 325q127 122 279 122q135 0 171 -154l36 136h140l-144 -536q-12 -45 -12 -63q0 -27 14 -47q18 -25 50 -25q51 0 119 50q103 76 159 211q48 113 48 223
q0 210 -172 352q-159 132 -375 132q-250 0 -422 -155q-93 -83 -145 -203q-56 -125 -56 -265q0 -235 145 -401q80 -92 199 -148q139 -65 299 -65q172 0 319 99q81 55 135 123q18 22 50 71zM750 976q-113 0 -204 -150q-37 -62 -63 -138q-29 -89 -29 -161t31 -123
q39 -64 109 -64q120 0 205 193q34 78 53 171q15 70 15 117q0 85 -42 126q-30 29 -75 29z" />
    <glyph glyph-name="A" unicode="A" horiz-adv-x="1316" vert-adv-y="2457" 
d="M845 395h-478l-67 -192q-25 -70 -25 -97q0 -32 38 -49q23 -10 97 -13v-50q-118 11 -195 11q-78 0 -195 -11v50q93 6 125 28q37 25 71 116l468 1221l421 -1244q28 -83 80 -102q34 -13 110 -19v-50q-140 15 -249 15t-250 -15v50q79 6 106 22q25 15 25 39q0 28 -13 69z
M391 459h433l-199 627z" />
    <glyph glyph-name="B" unicode="B" horiz-adv-x="1172" vert-adv-y="2457" 
d="M785 729q84 -17 139 -51q63 -40 103 -107q47 -80 47 -179q0 -138 -87 -246q-85 -104 -233 -133q-64 -13 -171 -13h-518v50q87 6 119 20q40 17 47 59q3 18 3 57v993q0 63 -12 85q-24 42 -157 51v50h540q128 0 201 -29q102 -39 156 -130q47 -77 47 -174q0 -219 -224 -303z
M406 745h139q103 0 152 23q130 60 130 259q0 137 -58 208q-54 67 -189 67h-174v-557zM406 682v-513q0 -61 16 -79q23 -26 110 -26h75q125 0 195 66q90 86 90 252q0 155 -75 233q-64 67 -216 67h-195z" />
    <glyph glyph-name="C" unicode="C" horiz-adv-x="1229" vert-adv-y="2457" 
d="M1027 460h74q-7 -156 -64 -265q-58 -108 -166 -167q-100 -54 -222 -54q-166 0 -298 98q-135 99 -199 296q-46 142 -46 312q0 308 145 511q73 103 190 156q96 44 214 44q188 0 320 -123l72 119h37v-403h-47q-84 341 -358 341q-204 0 -297 -182q-91 -177 -91 -456
q0 -263 83 -431q94 -191 302 -191q133 0 227 86q111 101 124 309z" />
    <glyph glyph-name="D" unicode="D" horiz-adv-x="1301" vert-adv-y="2457" 
d="M57 1315v50h502q186 0 294 -48q169 -76 267 -271q84 -166 84 -364q0 -227 -109 -409q-113 -190 -316 -247q-93 -26 -221 -26h-501v50q87 6 119 20q40 17 47 59q3 18 3 57v993q0 63 -12 85q-24 42 -157 51zM400 1302v-1136q0 -66 20 -84q25 -23 114 -23q229 0 337 115
q151 161 151 512q0 324 -134 488q-104 128 -325 128h-163z" />
    <glyph glyph-name="E" unicode="E" horiz-adv-x="1113" vert-adv-y="2457" 
d="M1015 330l-47 -330h-903v50q87 7 119 20q40 17 47 59q3 19 3 57v993q0 63 -12 85q-24 42 -157 51v50h892l36 -308h-46q-36 138 -83 190q-49 55 -160 55h-296v-561h293q70 0 91 34q24 38 30 135h50v-402h-50q-4 92 -29 131t-103 39h-282v-494q0 -68 19 -89q29 -32 118 -32
h145q119 0 170 46q67 62 108 221h47z" />
    <glyph glyph-name="F" unicode="F" horiz-adv-x="1066" vert-adv-y="2457" 
d="M417 678v-498q0 -63 12 -85q20 -35 85 -44q22 -3 72 -7v-50q-158 15 -256 15t-256 -15v50q89 7 119 20q40 17 47 59q3 19 3 57v999q0 63 -12 85q-24 42 -157 51v50h892l36 -308h-46q-31 115 -63 164q-32 48 -76 65q-38 16 -104 16h-296v-561h293q53 0 72 14q42 30 49 155
h50v-402h-50q-4 91 -29 132q-23 38 -103 38h-282z" />
    <glyph glyph-name="G" unicode="G" horiz-adv-x="1300" vert-adv-y="2457" 
d="M1098 1391v-407h-47q-34 116 -76 185q-45 73 -120 115q-79 44 -176 44q-153 0 -250 -103q-146 -153 -146 -536q0 -653 392 -653q130 0 275 78v346q0 40 -11 59q-22 35 -147 43v50q135 -12 232 -12t233 12v-50q-88 -7 -116 -22q-23 -12 -27 -40q-2 -9 -2 -44v-332
q-241 -147 -457 -147q-175 0 -309 98q-138 100 -201 290q-47 143 -47 324q0 315 147 504q151 195 410 195q181 0 323 -117l83 120h37z" />
    <glyph glyph-name="H" unicode="H" horiz-adv-x="1388" vert-adv-y="2457" 
d="M406 744h575v442q0 62 -12 84q-20 35 -85 44q-25 4 -72 7v50q155 -15 257 -15q101 0 253 15v-50q-87 -6 -119 -20q-40 -17 -47 -59q-3 -18 -3 -56v-1006q0 -63 12 -85q20 -35 85 -44q22 -3 72 -7v-50q-159 15 -254 15q-93 0 -256 -15v50q89 7 119 20q39 17 47 59
q3 19 3 57v501h-575v-501q0 -63 12 -85q20 -35 85 -44q21 -3 72 -7v-50q-163 15 -257 15t-253 -15v50q89 7 119 20q40 17 47 59q3 19 3 57v1006q0 63 -12 84q-20 35 -85 44q-24 4 -72 7v50q152 -15 253 -15q102 0 257 15v-50q-88 -6 -120 -20q-39 -17 -46 -59q-3 -18 -3 -56
v-442z" />
    <glyph glyph-name="I" unicode="I" horiz-adv-x="642" vert-adv-y="2457" 
d="M577 44v-50q-163 15 -256 15t-256 -15v50q89 7 119 20q40 17 47 59q3 19 3 57v1005q0 64 -12 85q-20 35 -85 44q-24 4 -72 7v50q155 -15 256 -15q100 0 256 15v-50q-87 -6 -119 -20q-40 -17 -47 -59q-3 -20 -3 -57v-1005q0 -63 12 -85q20 -35 85 -44q22 -3 72 -7z" />
    <glyph glyph-name="J" unicode="J" horiz-adv-x="638" vert-adv-y="2457" 
d="M-12 -142v61q27 -2 44 -2q93 0 143 41q43 35 55 107q6 34 6 109v1011q0 66 -12 86q-23 41 -157 50v50q155 -15 256 -15q100 0 256 15v-50q-84 -6 -120 -20q-40 -17 -46 -59q-3 -19 -3 -57v-940q0 -159 -40 -231q-87 -159 -316 -159q-27 0 -66 3z" />
    <glyph glyph-name="K" unicode="K" horiz-adv-x="1305" vert-adv-y="2457" 
d="M402 715l466 512q28 31 28 51q0 24 -36 34q-17 5 -90 9v50q114 -9 210 -9q95 0 210 9v-50q-76 -4 -115 -16q-65 -20 -131 -92l-352 -389l455 -649q60 -87 120 -111q41 -16 113 -20v-50q-154 16 -267 16q-112 0 -267 -16v50q88 7 112 17q29 13 29 36q0 20 -35 73l-368 547
l-84 -90v-447q0 -63 13 -85q23 -41 152 -51v-50q-136 15 -241 15q-104 0 -258 -15v50q87 6 119 20q39 17 46 59q4 21 4 57v1005q0 63 -12 85q-19 35 -85 44q-26 4 -72 7v50q157 -15 258 -15q102 0 247 15v-50q-86 -5 -119 -20q-40 -17 -47 -59q-3 -18 -3 -57v-470z" />
    <glyph glyph-name="L" unicode="L" horiz-adv-x="1035" vert-adv-y="2457" 
d="M1015 330l-47 -330h-903v50q87 7 119 20q40 17 47 59q3 19 3 57v999q0 64 -12 85q-20 35 -85 44q-24 4 -72 7v50q155 -15 256 -15q100 0 256 15v-50q-87 -6 -119 -20q-40 -17 -47 -59q-3 -20 -3 -57v-995q0 -68 19 -89q29 -32 118 -32h145q93 0 140 24q87 45 138 237h47z
" />
    <glyph glyph-name="M" unicode="M" horiz-adv-x="1682" vert-adv-y="2457" 
d="M345 1244l-41 -1064v-17q0 -48 12 -68q23 -42 157 -51v-50q-129 10 -202 10q-72 0 -206 -10v50q87 6 120 20q45 20 49 116l43 1005v13q0 50 -12 72q-24 43 -157 51v50q97 -8 169 -8q95 0 193 11l381 -1036l386 1036q119 -11 197 -11q64 0 161 8v-50q-82 -5 -119 -20
q-39 -16 -47 -59q-3 -15 -3 -41v-16l22 -1005q1 -63 14 -86q18 -33 83 -43q26 -4 72 -7v-50q-160 15 -256 15q-97 0 -256 -15v50q110 5 144 35q26 23 25 101l-17 1061l-339 -913q-30 -79 -80 -222l-23 -66h-31l-22 65l-28 80l-29 80l-26 71z" />
    <glyph glyph-name="N" unicode="N" horiz-adv-x="1377" vert-adv-y="2457" 
d="M1149 -41h-30q-82 130 -163 250l-50 76l-604 908v-1013q0 -65 12 -86q18 -33 85 -43q23 -3 72 -7v-50q-146 10 -207 10q-65 0 -199 -10v50q86 7 119 20q41 17 47 59q3 21 3 57v1081q-33 35 -74 46q-35 10 -97 14v50q92 -7 172 -7q76 0 150 7l695 -1037v851q0 66 -11 86
q-23 41 -158 50v50q139 -10 208 -10q71 0 199 10v-50q-83 -6 -119 -20q-41 -17 -47 -59q-3 -19 -3 -57v-1226z" />
    <glyph glyph-name="O" unicode="O" horiz-adv-x="1295" vert-adv-y="2457" 
d="M646 1391q186 0 326 -114q126 -104 184 -295q41 -136 41 -307q0 -280 -127 -478q-72 -112 -190 -171q-102 -52 -229 -52q-183 0 -321 109q-132 103 -192 306q-40 135 -40 297q0 289 125 478q70 108 181 168q110 59 242 59zM650 1334q-141 0 -236 -119
q-131 -163 -131 -526q0 -255 72 -434q39 -99 115 -162q76 -62 182 -62q145 0 236 121q71 96 103 275q21 118 21 254q0 264 -69 433q-91 220 -293 220z" />
    <glyph glyph-name="P" unicode="P" horiz-adv-x="1116" vert-adv-y="2457" 
d="M408 616v-436q0 -63 12 -85q20 -35 85 -44q22 -3 72 -7v-50q-163 15 -256 15t-256 -15v50q89 7 119 20q40 17 47 59q3 19 3 57v999q0 63 -12 85q-24 42 -157 51v50h540q135 0 213 -27q118 -40 183 -147q57 -93 57 -204q0 -191 -150 -296q-107 -75 -283 -75h-217zM408 679
h163q142 0 214 61q99 85 99 254q0 153 -77 236q-68 72 -223 72h-176v-623z" />
    <glyph glyph-name="Q" unicode="Q" horiz-adv-x="1289" vert-adv-y="2457" 
d="M1319 30v-53h-68q-112 0 -189 54q-31 22 -83 67q-134 -124 -330 -124q-182 0 -319 108q-132 104 -192 306q-40 137 -40 299q0 284 123 477q68 106 180 167q110 60 243 60q184 0 322 -114q126 -102 184 -294q41 -137 41 -302q0 -253 -105 -447q60 -95 108 -144
q54 -54 125 -60zM647 1334q-142 0 -237 -120q-130 -162 -130 -522q0 -257 72 -438q40 -98 116 -161q76 -62 181 -62q146 0 236 121q71 96 103 276q21 117 21 251q0 264 -70 435q-91 220 -292 220z" />
    <glyph glyph-name="R" unicode="R" horiz-adv-x="1221" vert-adv-y="2457" 
d="M406 649v-469q0 -64 12 -85q20 -35 85 -44q22 -3 72 -7v-50q-158 15 -253 15q-94 0 -257 -15v50q89 7 119 20q40 17 47 59q3 19 3 57v999q0 63 -12 85q-24 42 -157 51v50h549q183 0 283 -66q71 -47 113 -127q42 -79 42 -166q0 -131 -88 -228q-76 -83 -247 -118
q48 -13 86 -41q46 -35 89 -134l141 -323q37 -85 78 -104q27 -12 89 -14v-50q-82 6 -135 6q-52 0 -135 -6q-28 59 -57 126l-157 366q-31 71 -58 103q-50 60 -174 60h-78zM408 712h171q139 0 211 65q88 81 88 235q0 151 -86 229q-68 61 -202 61h-182v-590z" />
    <glyph glyph-name="S" unicode="S" horiz-adv-x="1063" vert-adv-y="2457" 
d="M119 413h48q61 -367 361 -367q131 0 209 81q74 77 74 188q0 124 -92 193q-46 35 -196 112q-230 117 -288 172q-94 87 -94 232q0 165 112 264q107 96 278 96q155 0 267 -106l61 114h37v-377h-48q-25 109 -67 178q-78 129 -234 129q-115 0 -188 -77q-70 -73 -70 -173
q0 -116 116 -188q48 -29 200 -106q166 -85 233 -135q124 -94 124 -270q0 -175 -118 -285q-113 -106 -291 -106q-184 0 -323 118l-74 -131h-37v444z" />
    <glyph glyph-name="T" unicode="T" horiz-adv-x="1083" vert-adv-y="2457" 
d="M625 1302v-1122q0 -66 11 -86q19 -33 86 -43q24 -3 72 -7v-50q-158 15 -256 15t-256 -15v50q87 7 119 20q41 17 47 59q3 20 3 57v1122h-110q-128 0 -183 -80q-34 -50 -70 -169h-50l55 312h896l57 -312h-49q-33 121 -67 171q-33 49 -80 65q-35 13 -96 13h-129z" />
    <glyph glyph-name="U" unicode="U" horiz-adv-x="1361" vert-adv-y="2457" 
d="M900 1321v50q139 -10 208 -10q70 0 199 10v-50q-88 -6 -120 -20q-39 -17 -46 -59q-3 -18 -3 -57v-749q0 -128 -24 -197q-47 -134 -170 -202q-109 -60 -264 -60q-232 0 -360 139q-70 75 -87 171q-10 57 -10 133v765q0 64 -12 85q-20 35 -85 44q-24 4 -72 7v50
q155 -15 256 -15t256 15v-50q-87 -6 -119 -20q-40 -17 -47 -59q-3 -20 -3 -57v-782q0 -122 24 -177q38 -86 130 -126q72 -32 169 -32q142 0 233 65q81 56 104 162q12 54 12 131v759q0 63 -12 85q-20 35 -85 44q-25 4 -72 7z" />
    <glyph glyph-name="V" unicode="V" horiz-adv-x="1312" vert-adv-y="2457" 
d="M676 -25h-51l-418 1215q-31 91 -78 111q-32 14 -109 20v50q129 -15 247 -15q117 0 246 15v-50q-137 -10 -137 -62q0 -15 16 -64l315 -932l317 910q22 62 22 85q0 31 -35 47q-26 12 -102 16v50q102 -11 185 -11t198 11v-50q-69 -5 -105 -21q-53 -22 -74 -83z" />
    <glyph glyph-name="W" unicode="W" horiz-adv-x="1796" vert-adv-y="2457" 
d="M576 -25h-39l-333 1226q-20 74 -63 98q-30 17 -103 22v50q125 -15 238 -15t237 15v-50q-78 -6 -104 -19q-32 -15 -32 -45q0 -16 11 -58l230 -850l314 1047h47l307 -1049l234 847q13 46 13 67q0 32 -33 46q-27 11 -95 14v50q96 -11 179 -11q82 0 179 11v-50
q-75 -5 -104 -20q-43 -23 -61 -87l-349 -1237h-39l-311 1103z" />
    <glyph glyph-name="X" unicode="X" horiz-adv-x="1272" vert-adv-y="2457" 
d="M23 -6v50q85 3 132 34q53 35 107 120l304 483l-277 516q-43 80 -85 100q-37 18 -118 24v50q132 -14 253 -14t253 14v-50q-80 -7 -105 -17q-32 -13 -32 -40q0 -20 22 -62l193 -359l214 338q41 65 41 87q0 27 -32 40q-22 9 -96 13v50q101 -10 198 -10q98 0 199 10v-50
q-79 -7 -116 -21q-49 -20 -90 -85l-281 -441l319 -596q49 -92 95 -113q33 -16 119 -21v-50q-152 14 -260 14q-109 0 -261 -14v50q88 7 110 17q32 13 32 41q0 27 -37 96l-222 414l-267 -429q-39 -63 -39 -85q0 -30 37 -43q19 -7 93 -11v-50q-113 9 -202 9q-88 0 -201 -9z" />
    <glyph glyph-name="Y" unicode="Y" horiz-adv-x="1211" vert-adv-y="2457" 
d="M523 595l-304 605q-39 78 -84 99q-33 16 -107 22v50q138 -14 252 -14q113 0 251 14v-50q-84 -5 -112 -17q-31 -13 -31 -38q0 -21 21 -63l262 -520l262 523q19 39 19 61q0 28 -38 41q-25 9 -101 13v50q114 -10 189 -10q76 0 190 10v-50q-74 -9 -104 -21q-47 -20 -82 -89
l-309 -616v-415q0 -66 11 -86q19 -33 86 -43q23 -3 72 -7v-50q-163 15 -256 15t-256 -15v50q86 7 119 20q41 17 47 59q3 21 3 57v415z" />
    <glyph glyph-name="Z" unicode="Z" horiz-adv-x="1102" vert-adv-y="2457" 
d="M64 0l740 1302h-343q-82 0 -128 -22q-89 -43 -135 -217h-53l55 302h833l-739 -1302h387q99 0 140 19q92 42 167 251h50l-61 -333h-913z" />
    <glyph glyph-name="bracketleft" unicode="[" horiz-adv-x="633" vert-adv-y="2457" 
d="M575 1304h-209v-1641h209v-61h-355v1763h355v-61z" />
    <glyph glyph-name="backslash" unicode="\" horiz-adv-x="826" vert-adv-y="2457" 
d="M1001 -398h-113l-868 1763h113z" />
    <glyph glyph-name="bracketright" unicode="]" horiz-adv-x="633" vert-adv-y="2457" 
d="M57 -337h209v1641h-209v61h355v-1763h-355v61z" />
    <glyph glyph-name="asciicircum" unicode="^" vert-adv-y="2457" 
d="M1073 588h-70l-429 656l-437 -656h-186l564 846h12z" />
    <glyph glyph-name="underscore" unicode="_" vert-adv-y="2457" 
d="M50 -179h923v-79h-923v79z" />
    <glyph glyph-name="grave" unicode="`" vert-adv-y="2457" 
d="M637 1129h-92l-336 301h227z" />
    <glyph glyph-name="a" unicode="a" horiz-adv-x="955" vert-adv-y="2457" 
d="M911 54v-54q-69 -14 -113 -14q-89 0 -128 63q-24 39 -31 112q-41 -74 -79 -109q-74 -70 -196 -70q-123 0 -202 71q-83 75 -83 192q0 184 233 281q132 55 303 77v122q0 103 -31 146q-44 60 -138 60q-80 0 -135 -43q-35 -29 -35 -78v-17q1 -17 1 -32q0 -89 -83 -89
q-68 0 -68 69q0 94 90 165q102 80 246 80q100 0 180 -43q99 -54 124 -155q13 -52 13 -140v-418q0 -97 15 -140t65 -43q18 0 52 7zM615 550q-140 -25 -230 -70q-140 -71 -140 -223q0 -89 48 -139q44 -47 122 -47q132 0 178 121q22 59 22 180v178z" />
    <glyph glyph-name="b" unicode="b" horiz-adv-x="1043" vert-adv-y="2457" 
d="M167 -23v1201q0 61 -12 82q-17 31 -69 36q-24 2 -64 2v36q161 15 308 54v-561q42 66 75 96q67 62 176 62q170 0 276 -144q104 -142 104 -358q0 -218 -110 -360q-109 -141 -280 -141q-181 0 -265 178l-89 -183h-50zM562 928q-234 0 -234 -451q0 -438 228 -438q89 0 150 76
q83 104 83 373q0 440 -227 440z" />
    <glyph glyph-name="c" unicode="c" horiz-adv-x="892" vert-adv-y="2457" 
d="M789 1009v-338h-46q-19 93 -48 147q-28 53 -79 86q-49 33 -109 33q-128 0 -188 -135q-56 -127 -56 -324q0 -432 238 -432q189 0 227 269h82q-13 -112 -57 -187q-86 -150 -269 -150q-180 0 -292 141q-107 135 -107 358q0 236 119 380q111 135 286 135q120 0 208 -87
l55 104h36z" />
    <glyph glyph-name="d" unicode="d" horiz-adv-x="1050" vert-adv-y="2457" 
d="M1013 68v-36q-171 -21 -270 -53q-20 83 -28 164q-85 -168 -253 -168q-167 0 -273 141q-108 142 -108 361q0 215 103 357q105 145 270 145q107 0 172 -62q32 -30 74 -97v358q0 60 -12 82q-17 31 -69 36q-24 2 -64 2v36q163 15 309 54v-1180q0 -93 25 -116q23 -22 124 -24z
M473 922q-220 0 -220 -442q0 -186 44 -304q22 -62 73 -105q47 -39 110 -39q81 0 139 68q83 96 83 361q0 461 -229 461z" />
    <glyph glyph-name="e" unicode="e" horiz-adv-x="939" vert-adv-y="2457" 
d="M776 315h81q-13 -117 -75 -201q-98 -134 -289 -134q-193 0 -299 134q-113 143 -113 372q0 224 113 366q108 135 288 135q140 0 239 -89q129 -117 134 -391h-608q5 -199 36 -285q62 -174 234 -174q149 0 217 129q31 56 42 138zM692 580q-17 354 -213 354q-198 0 -228 -354
h441z" />
    <glyph glyph-name="f" unicode="f" horiz-adv-x="606" vert-adv-y="2457" 
d="M368 967h234v-75h-234v-747q0 -51 12 -70q22 -35 134 -40v-41q-141 12 -228 12q-88 0 -229 -12v41q70 3 102 15q34 13 41 48q4 15 4 47v747h-141v63q86 3 115 18q21 10 28.5 31.5t10.5 79.5q4 90 18 139q24 84 105 131q69 40 157 40q97 0 154 -52q47 -41 47 -101
q0 -77 -76 -77q-34 0 -54 18q-19 17 -19 43q0 8 2 27q3 17 3 29q0 24 -12 39q-18 22 -50 22q-75 0 -107 -80q-17 -44 -17 -159v-136z" />
    <glyph glyph-name="g" unicode="g" horiz-adv-x="1008" vert-adv-y="2457" 
d="M707 932h272v-82l-196 5q50 -77 50 -171q0 -163 -133 -251q-57 -38 -220 -79q-140 -35 -175 -55q-34 -19 -34 -49q0 -31 29 -46q25 -13 156 -22q230 -16 318 -51q84 -33 128 -106q31 -52 31 -117q0 -89 -58 -166q-59 -78 -177 -117q-95 -31 -209 -31q-172 0 -293 66
q-61 34 -98 91t-37 126q0 151 197 220q-43 18 -64 34q-44 34 -44 85q0 114 221 166q-79 24 -132 68q-104 87 -104 227q0 142 93 223q97 85 268 85q119 0 211 -53zM489 933q-98 0 -149 -69q-50 -69 -50 -184q0 -110 43 -177q50 -81 152 -81q101 0 150 79q43 70 43 180
q0 252 -189 252zM461 36q-147 0 -236 -48q-80 -43 -80 -127q0 -91 92 -144q104 -59 246 -59q148 0 241 55q83 50 83 145q0 90 -97 136q-88 42 -249 42z" />
    <glyph glyph-name="h" unicode="h" horiz-adv-x="1106" vert-adv-y="2457" 
d="M46 1298v36q160 15 309 54v-539q98 137 259 137q166 0 250 -127q50 -75 50 -222v-492q0 -51 12 -70q22 -35 134 -40v-41q-133 12 -224 12q-92 0 -222 -12v40q63 2 95 17q31 15 37 46q4 15 4 45v502q0 122 -31 172q-47 77 -151 77q-109 0 -172 -83q-41 -55 -41 -174v-494
q0 -48 11 -66q23 -37 121 -42v-40q-130 12 -220 12t-223 -12v41q72 3 102 15q34 13 41 48q4 15 4 47v1033q0 61 -12 82q-17 31 -69 36q-25 2 -64 2z" />
    <glyph glyph-name="i" unicode="i" horiz-adv-x="571" vert-adv-y="2457" 
d="M372 1003v-858q0 -51 12 -70q22 -35 134 -40v-41q-145 12 -228 12q-84 0 -229 -12v41q72 3 102 15q34 13 41 48q4 15 4 47v648q0 61 -12 82q-18 30 -69 35q-23 2 -64 3v35q163 16 309 55zM283 1365q47 0 79 -32q33 -33 33 -79q0 -47 -33 -80q-32 -32 -80 -32
q-45 0 -78 33q-32 32 -32 79t32 79q33 32 79 32z" />
    <glyph glyph-name="j" unicode="j" horiz-adv-x="556" vert-adv-y="2457" 
d="M365 1003v-975q0 -158 -48 -252q-65 -128 -221 -172q-62 -18 -138 -19v53q99 16 158 64q58 47 74 119q11 48 11 121v851q0 61 -12 82q-17 30 -69 35q-23 2 -64 3v35q162 16 309 55zM276 1365q47 0 79 -32q33 -33 33 -79q0 -47 -32 -80q-32 -32 -81 -32q-45 0 -77 33
q-33 32 -33 78q0 48 32 80q33 32 79 32z" />
    <glyph glyph-name="k" unicode="k" horiz-adv-x="1094" vert-adv-y="2457" 
d="M353 476l329 349q35 36 35 59q0 42 -112 48v41q109 -10 194 -10q84 0 202 10v-41q-81 -7 -117 -24.5t-89 -72.5l-196 -206l290 -483q44 -73 82 -91q34 -17 102 -20v-41q-87 7 -139 7q-54 0 -136 -7l-304 536l-143 -147v-238q0 -50 12 -70q22 -35 135 -40v-41
q-142 12 -228 12q-85 0 -226 -12v41q72 3 102 15q34 13 41 48q4 15 4 47v1033q0 61 -12 82q-17 31 -69 36q-25 2 -64 2v36q160 16 307 54v-912z" />
    <glyph glyph-name="l" unicode="l" horiz-adv-x="559" vert-adv-y="2457" 
d="M368 1388v-1243q0 -51 12 -70q22 -35 134 -40v-41q-145 12 -228 12q-84 0 -229 -12v41q72 3 102 15q34 13 41 48q4 15 4 47v1033q0 61 -12 82q-17 31 -69 36q-25 2 -64 2v36q160 15 309 54z" />
    <glyph glyph-name="m" unicode="m" horiz-adv-x="1631" vert-adv-y="2457" 
d="M62 907v35q166 24 271 62q17 -84 20 -175q41 59 77 89q81 68 198 68q178 0 250 -160q37 57 72 88q80 72 208 72q178 0 245 -122q36 -65 36 -200v-519q0 -51 12 -70q22 -35 136 -40v-41q-134 12 -224 12q-91 0 -222 -12v40q61 3 93 17q31 14 38 46q3 15 3 45v526
q0 109 -24 152q-40 72 -143 72q-203 0 -203 -242v-508q0 -47 11 -66q23 -38 123 -42v-40q-131 12 -216 12t-216 -12v40q61 3 93 17q31 14 38 46q3 14 3 45v523q0 112 -26 157q-42 70 -138 70q-115 0 -171 -90q-35 -56 -35 -174v-486q0 -48 11 -66q23 -38 124 -42v-40
q-131 12 -222 12t-224 -12v41q71 3 102 15q34 13 42 48q3 15 3 47v634q0 86 -13 104q-14 21 -132 24z" />
    <glyph glyph-name="n" unicode="n" horiz-adv-x="1122" vert-adv-y="2457" 
d="M62 907v35q162 23 271 61q15 -67 21 -178q108 161 276 161q167 0 250 -126q50 -75 50 -223v-492q0 -51 12 -70q22 -35 134 -40v-41q-133 12 -224 12t-221 -12v40q62 2 94 17q31 15 38 46q3 14 3 45v502q0 122 -31 172q-46 77 -151 77q-109 0 -172 -83q-41 -55 -41 -174
v-494q0 -48 11 -66q23 -37 121 -42v-40q-130 12 -220 12q-89 0 -223 -12v41q72 3 102 15q34 13 42 48q3 15 3 47v634q-1 57 -4 73q-6 45 -60 51q-19 2 -81 4z" />
    <glyph glyph-name="o" unicode="o" horiz-adv-x="960" vert-adv-y="2457" 
d="M488 992q183 0 288 -148q103 -146 103 -363q0 -208 -106 -353q-110 -150 -294 -150t-294 150q-104 142 -104 355q0 224 113 365q114 144 294 144zM484 939q-85 0 -144 -73q-87 -108 -87 -383q0 -452 225 -452q92 0 151 80q78 107 78 367q0 461 -223 461z" />
    <glyph glyph-name="p" unicode="p" horiz-adv-x="1068" vert-adv-y="2457" 
d="M44 917v35q153 13 268 38q17 -62 27 -173q93 169 261 169t276 -141q110 -142 110 -361q0 -216 -104 -357q-106 -145 -276 -145q-108 0 -175 62q-34 30 -76 97v-399q0 -52 12 -71q22 -34 134 -40v-41q-137 13 -228 13q-92 0 -229 -13v41q71 3 103 16q33 12 41 47
q3 15 3 48v1051q0 84 -35 107q-21 13 -112 17zM581 929q-60 0 -110 -37t-74 -99q-44 -111 -44 -292q0 -462 235 -462q226 0 226 441q0 189 -45 305q-25 65 -75 105q-48 39 -113 39z" />
    <glyph glyph-name="q" unicode="q" horiz-adv-x="1066" vert-adv-y="2457" 
d="M1021 952v-35q-17 -1 -26 -1q-77 -3 -99 -30q-22 -26 -22 -93v-1051q0 -52 12 -71q22 -35 135 -40v-41q-133 13 -226 13q-92 0 -229 -13v41q70 4 102 16q33 12 41 47q3 15 3 48v399q-41 -66 -76 -97q-68 -62 -175 -62q-171 0 -276 145q-104 142 -104 357q0 219 110 361
q108 141 277 141q171 0 260 -169q8 107 27 173q109 -24 266 -38zM486 929q-88 0 -149 -76q-84 -104 -84 -372q0 -442 226 -442q235 0 235 452q0 438 -228 438z" />
    <glyph glyph-name="r" unicode="r" horiz-adv-x="776" vert-adv-y="2457" 
d="M62 916v35q156 15 270 48q14 -95 19 -193q23 60 63 105q71 81 176 81q84 0 134 -53q44 -47 44 -113q0 -43 -22 -69q-23 -30 -64 -30q-35 0 -59 19t-24 50q0 9 7 43q2 9 2 17q0 22 -18 36t-44 14q-94 0 -144 -124q-31 -78 -31 -208v-429q0 -51 12 -70q22 -35 134 -40v-41
q-141 12 -228 12q-88 0 -229 -12v41q70 3 102 15q34 13 41 48q4 15 4 47v637q-1 61 -3 77q-5 47 -61 53q-24 2 -81 4z" />
    <glyph glyph-name="s" unicode="s" horiz-adv-x="872" vert-adv-y="2457" 
d="M109 -24v342l45 1q17 -87 45 -143q30 -60 90 -96q59 -36 131 -36q94 0 156 57q56 53 56 127q0 75 -66 119q-37 25 -153 78q-123 56 -152 71q-139 72 -139 216q0 124 86 197q90 76 222 76q110 0 210 -65l34 84h36v-318h-46q-27 241 -215 241q-89 0 -145 -56
q-49 -48 -49 -113q0 -59 43 -99q29 -27 130 -72q24 -10 132 -57q101 -44 148 -91q62 -60 62 -163q0 -121 -84 -204q-93 -90 -245 -90q-135 0 -247 85l-49 -91h-36z" />
    <glyph glyph-name="t" unicode="t" horiz-adv-x="634" vert-adv-y="2457" 
d="M609 105v-61q-104 -62 -200 -62q-151 0 -202 115q-25 57 -25 184v38l9 573h-133v63q56 4 90 21q113 55 155 283h53l-1 -292h237v-75h-238l-1 -596q0 -123 19 -168q27 -66 103 -66q50 0 134 43z" />
    <glyph glyph-name="u" unicode="u" horiz-adv-x="1103" vert-adv-y="2457" 
d="M32 913v35q159 15 309 55v-684q0 -123 33 -174q47 -70 151 -70q117 0 174 88q38 58 38 184v446q0 60 -12 82q-17 31 -68 35q-25 3 -65 3v35q159 15 309 55v-833q0 -77 38 -91q24 -8 113 -10v-36q-163 -16 -282 -54q-9 69 -12 187q-40 -76 -84 -114q-79 -69 -196 -69
q-166 0 -249 115q-52 74 -52 225v470q0 60 -12 82q-17 31 -69 35q-25 3 -64 3z" />
    <glyph glyph-name="v" unicode="v" horiz-adv-x="993" vert-adv-y="2457" 
d="M525 -26h-55q-27 78 -59 162l-20 54l-239 649q-24 64 -64 80q-24 9 -89 13v41q151 -11 219 -11q75 0 210 11v-41q-62 -3 -83 -10q-28 -11 -28 -36q0 -13 12 -49l218 -622l224 617q17 46 17 60q0 22 -28 31q-15 6 -75 9v41q117 -9 159 -9q40 0 151 9v-41q-67 -4 -93 -18
q-36 -18 -59 -81l-236 -636q-7 -19 -43 -115q-14 -37 -39 -108z" />
    <glyph glyph-name="w" unicode="w" horiz-adv-x="1449" vert-adv-y="2457" 
d="M732 738l-197 -582q-30 -89 -57 -181h-55q-40 138 -56 191l-207 662q-22 70 -54 87q-23 13 -89 17v41q121 -10 208 -10t208 10v-41q-65 -3 -92 -13q-26 -10 -26 -35q0 -9 13 -49l174 -585l249 742h56l240 -746l179 587q11 36 11 53q0 26 -31 37q-18 6 -80 9v41
q98 -8 165 -8q69 0 150 8v-41q-64 -4 -92 -19q-38 -21 -57 -79l-209 -667q-29 -92 -56 -192h-55q-34 111 -55 177z" />
    <glyph glyph-name="x" unicode="x" horiz-adv-x="1044" vert-adv-y="2457" 
d="M448 478l-214 368q-31 54 -71 70q-32 14 -93 16v41q128 -11 214 -11q88 0 211 11v-41q-94 -4 -94 -40q0 -15 20 -49l130 -226l155 219q26 37 26 56q0 36 -103 40v41q100 -8 167 -8q66 0 166 8v-41q-62 -4 -94 -16q-40 -15 -81 -73l-203 -282l245 -420q42 -71 81 -89
q31 -15 102 -17v-41q-135 11 -225 11t-222 -11v41q105 4 105 44q0 15 -22 53l-166 288l-190 -270q-34 -49 -34 -69q0 -24 30 -36q18 -7 79 -10v-41q-117 9 -167 9q-51 0 -168 -9v41q68 4 102 24q37 22 88 95z" />
    <glyph glyph-name="y" unicode="y" horiz-adv-x="1022" vert-adv-y="2457" 
d="M479 33l-303 804q-23 63 -61 79q-28 12 -94 16v41q117 -10 209 -10t209 10v-41q-60 -4 -83 -13.5t-23 -29.5q0 -16 14 -55l215 -591l225 585q16 42 16 58q0 26 -32 37q-24 8 -85 9v41q77 -8 152 -8q77 0 176 8v-41q-55 -6 -86 -20q-46 -20 -69 -81l-387 -1000
q-53 -137 -135 -189q-66 -42 -162 -42q-9 0 -29 1v103q75 0 115 14q99 32 154 163z" />
    <glyph glyph-name="z" unicode="z" horiz-adv-x="915" vert-adv-y="2457" 
d="M69 0l555 914h-227q-69 0 -109 -18q-53 -24 -94 -111q-12 -26 -36 -84h-42l46 266h680l-557 -914h241q93 0 133 29q72 53 125 213h42l-53 -295h-704z" />
    <glyph glyph-name="braceleft" unicode="{" horiz-adv-x="633" vert-adv-y="2457" 
d="M528 -433h-40q-131 0 -187 54q-54 52 -54 178v538q0 88 -41 124q-30 27 -87 46q58 20 87 46q41 36 41 124v491q0 135 64 186q56 45 177 45h40q-136 -35 -136 -183v-500q0 -101 -39 -148q-22 -27 -87 -61q72 -37 95 -70q31 -47 31 -139v-547q0 -147 136 -184z" />
    <glyph glyph-name="bar" unicode="|" vert-adv-y="2457" 
d="M463 1365h97v-1706h-97v1706z" />
    <glyph glyph-name="braceright" unicode="}" horiz-adv-x="633" vert-adv-y="2457" 
d="M104 1399h40q132 0 188 -54q54 -51 54 -177v-491q0 -86 40 -123q28 -27 87 -47q-57 -19 -87 -47q-40 -36 -40 -123v-538q0 -135 -64 -186q-57 -46 -178 -46h-40q137 37 137 184v547q0 101 38 148q22 27 87 61q-72 37 -94 71q-31 47 -31 138v500q0 148 -137 183z" />
    <glyph glyph-name="asciitilde" unicode="~" horiz-adv-x="1365" vert-adv-y="2457" 
d="M1090 751l27 -17q-40 -69 -107 -123q-87 -69 -172 -69q-39 0 -105 21q-13 4 -90 29q-116 37 -178 37q-73 0 -127 -52q-22 -22 -62 -70l-27 18q38 61 97 116q83 78 188 78q57 0 187 -45q109 -37 163 -37q114 0 206 114z" />
    <glyph glyph-name="uni00A0" unicode="&#xa0;" horiz-adv-x="512" vert-adv-y="2457" 
 />
    <glyph glyph-name="exclamdown" unicode="&#xa1;" horiz-adv-x="507" vert-adv-y="2457" 
d="M304 557l36 -930h-172l35 930h101zM254 986q50 0 85 -36q36 -35 36 -85t-36 -86q-35 -35 -87 -35q-49 0 -84 35t-35 86t35 85q37 36 86 36z" />
    <glyph glyph-name="cent" unicode="&#xa2;" horiz-adv-x="1071" vert-adv-y="2457" 
d="M613 1126v-876q162 31 195 264h78q-21 -173 -118 -258q-65 -57 -155 -72v-160h-64v156q-131 11 -219 90q-159 141 -159 412q0 177 75 306q103 177 303 195v156h64v-158q92 -13 164 -83l54 103h36v-334h-46q-29 141 -89 200q-49 49 -119 59zM549 1125q-206 -40 -206 -435
q0 -279 86 -376q46 -52 120 -64v875z" />
    <glyph glyph-name="sterling" unicode="&#xa3;" horiz-adv-x="1071" vert-adv-y="2457" 
d="M428 739h261v-76h-271l-30 -234q-26 -211 -147 -362q127 62 216 62q44 0 134 -20q71 -16 119 -16q143 0 180 203h72q-19 -146 -77 -215q-45 -54 -127 -72q-41 -9 -118 -9h-530q49 63 71 139q24 82 38 206l38 318h-147v76h157l20 169q26 214 117 335q108 145 294 145
q223 0 251 -255h-81q-8 61 -25 99q-38 85 -138 85q-131 0 -197 -135q-33 -68 -53 -229z" />
    <glyph glyph-name="currency" unicode="&#xa4;" horiz-adv-x="1365" vert-adv-y="2457" 
d="M127 230l187 191q-106 135 -106 293q0 153 107 291l-194 191l73 73l191 -191q141 108 298 108t294 -107l192 190l73 -73l-191 -190q107 -141 107 -294q0 -152 -105 -290l191 -192l-72 -73l-192 191q-137 -106 -294 -106q-149 0 -297 106l-190 -191zM687 1071
q-152 0 -257 -106q-103 -104 -103 -252q0 -147 104 -252q105 -104 252 -104t251 105q104 104 104 251q0 151 -103 253q-108 105 -248 105z" />
    <glyph glyph-name="yen" unicode="&#xa5;" horiz-adv-x="1071" vert-adv-y="2457" 
d="M423 671l-60 153h-255v75h224l-120 301q-29 74 -79 100q-32 16 -92 21v50q143 -14 230 -14q88 0 230 14v-50q-127 -12 -127 -56q0 -17 17 -62l199 -511l206 514q18 44 18 63q0 31 -45 43q-23 6 -78 9v50q114 -10 172 -10q59 0 172 10v-50q-56 -7 -86 -19q-53 -21 -81 -91
l-126 -312h217v-75h-247l-61 -153h308v-75h-338v-416q0 -65 11 -86q23 -40 158 -50v-50q-159 15 -256 15q-96 0 -255 -15v50q84 6 119 21q41 17 47 58q3 20 3 57v416h-340v75h315z" />
    <glyph glyph-name="brokenbar" unicode="&#xa6;" vert-adv-y="2457" 
d="M463 1365h97v-679h-97v679zM463 314h97v-655h-97v655z" />
    <glyph glyph-name="section" unicode="&#xa7;" horiz-adv-x="1071" vert-adv-y="2457" 
d="M158 29h73q34 -247 276 -247q97 0 159 46q79 59 79 157q0 68 -45 119q-31 34 -100 75l-284 165q-87 51 -123 109q-39 61 -39 140q0 128 92 187q48 31 136 55q-76 50 -116 86q-75 70 -75 175q0 128 99 212q95 80 242 80q203 0 300 -141q51 -74 56 -187h-72q-8 87 -46 142
q-68 99 -208 99q-97 0 -160 -48q-65 -50 -65 -130q0 -78 69 -135q30 -25 90 -58l244 -139q93 -54 132 -107q45 -62 45 -147q0 -113 -78 -187q-45 -42 -126 -78q71 -45 110 -85q70 -73 70 -176q0 -141 -112 -231q-101 -80 -255 -80q-216 0 -315 155q-46 71 -53 174zM457 792
q-79 -18 -121 -43q-71 -42 -71 -123q0 -56 35 -97q27 -31 87 -66l264 -156q158 70 158 188q0 56 -33 95q-31 36 -98 74z" />
    <glyph glyph-name="dieresis" unicode="&#xa8;" vert-adv-y="2457" 
d="M328 1378q44 0 76 -32t32 -77q0 -46 -32 -78t-77 -32q-46 0 -78 32q-32 33 -32 77q0 47 32 78q33 32 79 32zM701 1378q44 0 76 -32t32 -77q0 -46 -32 -78t-77 -32q-46 0 -78 32q-32 33 -32 77q0 47 32 78q33 32 79 32z" />
    <glyph glyph-name="copyright" unicode="&#xa9;" horiz-adv-x="1593" vert-adv-y="2457" 
d="M1032 558h60q-5 -101 -41 -166q-38 -67 -106 -101q-65 -33 -141 -33q-105 0 -190 58q-87 59 -128 178q-30 88 -30 190q0 184 93 303q92 120 259 120q116 0 197 -68l43 66h33v-251h-41q-52 200 -219 200q-125 0 -182 -103q-55 -100 -55 -263q0 -156 52 -254
q58 -108 184 -108q125 0 180 101q28 52 32 131zM796 1388q292 0 499 -206q99 -99 153 -229t54 -269q0 -200 -104 -370t-281 -260q-151 -77 -329 -77q-190 0 -360 104q-169 104 -260 281q-77 151 -77 321q0 198 104 369q101 167 281 259q150 77 320 77zM796 1317
q-262 0 -448 -186q-89 -89 -138 -206q-48 -117 -48 -243q0 -263 186 -449q89 -89 206 -138q116 -48 235 -48q270 0 456 186t186 450q0 178 -93 331q-91 151 -253 234q-135 69 -289 69z" />
    <glyph glyph-name="ordfeminine" unicode="&#xaa;" horiz-adv-x="714" vert-adv-y="2457" 
d="M637 821v-48q-48 -9 -78 -9q-46 0 -71 24q-23 20 -33 69q-59 -96 -170 -96q-79 0 -132 46q-54 47 -54 122q0 180 338 226v69q0 61 -18 86q-25 34 -82 34q-48 0 -80 -25q-20 -16 -20 -44v-9q1 -16 1 -21q0 -61 -60 -61q-49 0 -49 50q0 60 59 106q66 51 159 51
q118 0 174 -75q33 -43 33 -139v-257q0 -58 9 -83q8 -22 34 -22q14 0 40 6zM437 1108q-219 -37 -219 -172q0 -51 28 -80q26 -27 72 -27q78 0 106 70q13 36 13 108v101zM74 653h589v-77h-589v77z" />
    <glyph glyph-name="guillemotleft" unicode="&#xab;" horiz-adv-x="817" vert-adv-y="2457" 
d="M359 967h60l-169 -478l169 -489h-60l-248 489zM637 967h60l-169 -478l169 -489h-60l-248 489z" />
    <glyph glyph-name="logicalnot" unicode="&#xac;" vert-adv-y="2457" 
d="M776 0v470h-701v76h875v-546h-174z" />
    <glyph glyph-name="uni00AD" unicode="&#xad;" horiz-adv-x="526" vert-adv-y="2457" 
d="M0 503v92h526v-92h-526z" />
    <glyph glyph-name="registered" unicode="&#xae;" horiz-adv-x="1593" vert-adv-y="2457" 
d="M680 656v-270q0 -36 6 -46q13 -21 99 -28v-43q-101 10 -164 10t-166 -10v43q60 5 78 12q22 9 25 30q2 10 2 32v589q0 36 -6 47q-13 21 -99 27v43h347q116 0 179 -40q46 -29 72 -78q27 -48 27 -101q0 -118 -111 -178q-31 -17 -77 -27q30 -14 44 -28q24 -25 45 -71l87 -191
q22 -48 45 -57q15 -7 59 -9v-43q-58 4 -91 4q-32 0 -87 -4q-19 38 -37 79l-98 216q-31 69 -67 82q-27 10 -71 10h-41zM681 707h99q178 0 178 170q0 164 -171 164h-106v-334zM796 1388q292 0 499 -206q99 -99 153 -229t54 -269q0 -200 -104 -370t-281 -260q-151 -77 -329 -77
q-190 0 -360 104q-169 104 -260 281q-77 151 -77 321q0 198 104 369q101 167 281 259q150 77 320 77zM796 1317q-262 0 -448 -186q-89 -89 -138 -206q-48 -117 -48 -243q0 -263 186 -449q89 -89 206 -138q116 -48 235 -48q270 0 456 186t186 450q0 178 -93 331
q-91 151 -253 234q-135 69 -289 69z" />
    <glyph glyph-name="macron" unicode="&#xaf;" vert-adv-y="2457" 
d="M199 1237v103h625v-103h-625z" />
    <glyph glyph-name="degree" unicode="&#xb0;" vert-adv-y="2457" 
d="M511 1391q120 0 204 -82q85 -82 85 -200q0 -116 -84 -199q-85 -83 -204 -83q-120 0 -205 83q-84 83 -84 203q0 115 84 195q87 83 204 83zM511 1300q-80 0 -137 -56t-57 -132q0 -82 56 -138q58 -56 139 -56q80 0 138 57q56 55 56 134q0 80 -57 135q-58 56 -138 56z" />
    <glyph glyph-name="plusminus" unicode="&#xb1;" horiz-adv-x="1071" vert-adv-y="2457" 
d="M110 630v121h363v358h126v-358h363v-121h-363v-344h-126v344h-363zM110 53v122h852v-122h-852z" />
    <glyph glyph-name="twosuperior" unicode="&#xb2;" horiz-adv-x="698" vert-adv-y="2457" 
d="M593 973l-14 -98h-487v77q139 153 224 264q79 101 112 163q33 59 33 107q0 52 -34 86q-37 36 -97 36q-141 0 -168 -169h-55q12 117 51 167q66 82 197 82q92 0 154 -46q75 -55 75 -143q0 -67 -53 -150q-49 -76 -308 -363l-12 -13h382z" />
    <glyph glyph-name="threesuperior" unicode="&#xb3;" horiz-adv-x="698" vert-adv-y="2457" 
d="M81 1113h56q6 -61 22 -94q37 -79 146 -79q84 0 132 50q44 45 44 119q0 116 -92 150q-42 16 -113 16h-22v56h22q73 0 114 29q59 41 59 121q0 59 -33 94q-35 38 -99 38q-132 0 -163 -149h-51q22 224 239 224q110 0 172 -62q54 -54 54 -134q0 -124 -138 -180
q173 -49 173 -205q0 -104 -78 -174q-76 -68 -194 -68q-239 0 -250 248z" />
    <glyph glyph-name="acute" unicode="&#xb4;" vert-adv-y="2457" 
d="M443 1129l201 301h227l-337 -301h-91z" />
    <glyph glyph-name="mu" unicode="&#xb5;" horiz-adv-x="900" vert-adv-y="2457" 
d="M918 105v-31l-154 -94q-5 -2 -8 -2q-38 0 -67 38q-20 27 -36 138q-92 -90 -137 -121q-91 -63 -187 -63q-169 0 -225 182v-58q0 -93 8 -163q2 -14 14 -120q8 -63 8 -90q0 -64 -29 -90q-18 -17 -40 -17q-31 0 -51 28q-19 26 -19 70q0 33 14 115q23 142 41 365
q15 180 15 388v357h129v-587q0 -130 20 -180q45 -109 170 -109q95 0 176 66q36 30 87 103v707h128v-701q0 -85 13 -116q17 -39 67 -39q27 0 63 24z" />
    <glyph glyph-name="paragraph" unicode="&#xb6;" horiz-adv-x="1071" vert-adv-y="2457" 
d="M1006 1365v-50q-85 -5 -119 -20q-39 -16 -47 -59q-3 -20 -3 -57v-1277q0 -63 12 -85q20 -34 85 -44q25 -3 72 -7v-50q-187 16 -376 16q-188 0 -375 -16v50q87 7 119 20q39 17 47 59q3 19 3 57v766q-328 47 -328 359q0 208 152 289q92 49 298 49h460zM727 -69v1232
q0 96 -18 115q-22 23 -75 23q-60 0 -82 -26q-18 -22 -18 -111v-1234q0 -92 21 -114q22 -24 79 -24t78 26q15 20 15 113z" />
    <glyph glyph-name="periodcentered" unicode="&#xb7;" horiz-adv-x="470" vert-adv-y="2457" 
d="M237 617q47 0 81 -34t34 -82q0 -49 -34 -83t-82 -34q-49 0 -83 34q-34 35 -34 82q0 49 34 83q35 34 84 34z" />
    <glyph glyph-name="cedilla" unicode="&#xb8;" vert-adv-y="2457" 
d="M499 0h88l-63 -120q74 -8 107 -27q66 -37 66 -112q0 -71 -57 -114q-51 -38 -130 -38q-72 0 -154 33v61q69 -19 106 -19q42 0 68 18q35 25 35 70q0 53 -58 74q-30 11 -95 14z" />
    <glyph glyph-name="onesuperior" unicode="&#xb9;" horiz-adv-x="698" vert-adv-y="2457" 
d="M417 1714v-725q0 -36 6 -47q13 -21 99 -27v-44q-86 9 -164 9q-79 0 -164 -9v44q59 4 78 12q16 6 21.5 18t5.5 44v547h-143v42q169 13 214 136h47z" />
    <glyph glyph-name="ordmasculine" unicode="&#xba;" horiz-adv-x="714" vert-adv-y="2457" 
d="M362 1391q120 0 188 -93q66 -90 66 -224q0 -129 -69 -219q-70 -94 -190 -94q-119 0 -191 94q-67 87 -67 220q0 138 73 226q74 90 190 90zM360 1345q-139 0 -139 -270q0 -268 135 -268q138 0 138 266q0 272 -134 272zM63 653h589v-77h-589v77z" />
    <glyph glyph-name="guillemotright" unicode="&#xbb;" horiz-adv-x="816" vert-adv-y="2457" 
d="M457 967l248 -478l-248 -489h-60l169 489l-169 478h60zM179 967l248 -478l-248 -489h-60l169 489l-169 478h60z" />
    <glyph glyph-name="onequarter" unicode="&#xbc;" horiz-adv-x="1497" vert-adv-y="2457" 
d="M417 1373v-726q0 -36 6 -47q13 -22 98 -27v-42q-85 8 -163 8q-79 0 -163 -8v42q58 3 77 11q22 9 26 31q2 10 2 32v549h-143v41q171 14 214 136h46zM314 0l783 1336h86l-784 -1336h-85zM1192 -18v227h-348l352 614h115v-523h141v-91h-141v-227h-119zM1193 300l2 420
l-237 -420h235z" />
    <glyph glyph-name="onehalf" unicode="&#xbd;" horiz-adv-x="1497" vert-adv-y="2457" 
d="M417 1373v-726q0 -35 6 -47q13 -22 98 -27v-42q-84 8 -163 8t-163 -8v42q58 3 77 11q22 9 26 31q2 10 2 32v549h-143v41q171 14 214 136h46zM314 0l783 1336h86l-784 -1336h-85zM1390 98l-14 -98h-486v77q146 162 225 264q78 102 112 163q33 60 33 107q0 52 -35 86
q-36 36 -97 36q-141 0 -169 -169h-54q12 117 51 167q65 82 197 82q92 0 154 -45q75 -56 75 -144q0 -84 -79 -186q-70 -93 -294 -340h381z" />
    <glyph glyph-name="threequarters" unicode="&#xbe;" horiz-adv-x="1497" vert-adv-y="2457" 
d="M82 770h55q6 -60 21 -94q38 -79 147 -79q84 0 132 50q44 45 44 120q0 117 -92 151q-38 15 -110 16h-24v55h26q67 0 107 27q61 42 61 124q0 59 -33 94q-35 38 -99 38q-131 0 -163 -149h-50q23 223 239 223q101 0 163 -55q61 -55 61 -141q0 -87 -62 -137q-27 -22 -76 -43
q56 -17 88 -39q85 -54 85 -166q0 -104 -78 -174q-75 -68 -193 -68q-238 0 -249 247zM314 0l783 1336h86l-783 -1336h-86zM1192 -18v227h-348l353 614h114v-523h141v-91h-141v-227h-119zM1194 300l1 420l-237 -420h236z" />
    <glyph glyph-name="questiondown" unicode="&#xbf;" horiz-adv-x="784" vert-adv-y="2457" 
d="M411 575h87q8 -60 8 -107q0 -109 -41 -184q-28 -50 -72 -95l-60 -61q-117 -118 -117 -219q0 -96 71 -146q47 -32 114 -32q119 0 190 84q48 57 58 157h56q0 -107 -32 -176q-43 -94 -143 -143q-81 -40 -178 -40q-111 0 -187 54q-117 84 -117 240q0 93 48 169q38 58 145 144
q79 62 111 104q62 81 62 207q0 16 -3 44zM437 986q50 0 86 -36q35 -35 35 -85t-35 -86q-35 -35 -88 -35q-48 0 -84 35q-35 36 -35 86q0 51 35 85q37 36 86 36z" />
    <glyph glyph-name="Agrave" unicode="&#xc0;" horiz-adv-x="1316" vert-adv-y="2457" 
d="M845 395h-478l-67 -192q-25 -70 -25 -97q0 -32 38 -49q23 -10 97 -13v-50q-118 11 -195 11q-78 0 -195 -11v50q93 6 125 28q37 25 71 116l468 1221l421 -1244q28 -83 80 -102q34 -13 110 -19v-50q-140 15 -249 15t-250 -15v50q79 6 106 22q25 15 25 39q0 28 -13 69z
M391 459h433l-199 627zM800 1483h-103l-403 281h248z" />
    <glyph glyph-name="Aacute" unicode="&#xc1;" horiz-adv-x="1316" vert-adv-y="2457" 
d="M845 395h-478l-67 -192q-25 -70 -25 -97q0 -32 38 -49q23 -10 97 -13v-50q-118 11 -195 11q-78 0 -195 -11v50q93 6 125 28q37 25 71 116l468 1221l421 -1244q28 -83 80 -102q34 -13 110 -19v-50q-140 15 -249 15t-250 -15v50q79 6 106 22q25 15 25 39q0 28 -13 69z
M391 459h433l-199 627zM570 1483l258 281h248l-403 -281h-103z" />
    <glyph glyph-name="Acircumflex" unicode="&#xc2;" horiz-adv-x="1316" vert-adv-y="2457" 
d="M845 395h-478l-67 -192q-25 -70 -25 -97q0 -32 38 -49q23 -10 97 -13v-50q-118 11 -195 11q-78 0 -195 -11v50q93 6 125 28q37 25 71 116l468 1221l421 -1244q28 -83 80 -102q34 -13 110 -19v-50q-140 15 -249 15t-250 -15v50q79 6 106 22q25 15 25 39q0 28 -13 69z
M391 459h433l-199 627zM334 1485l290 277h116l290 -277h-101l-247 171l-246 -171h-102z" />
    <glyph glyph-name="Atilde" unicode="&#xc3;" horiz-adv-x="1316" vert-adv-y="2457" 
d="M845 395h-478l-67 -192q-25 -70 -25 -97q0 -32 38 -49q23 -10 97 -13v-50q-118 11 -195 11q-78 0 -195 -11v50q93 6 125 28q37 25 71 116l468 1221l421 -1244q28 -83 80 -102q34 -13 110 -19v-50q-140 15 -249 15t-250 -15v50q79 6 106 22q25 15 25 39q0 28 -13 69z
M391 459h433l-199 627zM410 1522l-60 15q29 106 69 147q54 55 133 55q52 0 96 -24q24 -13 95 -62q48 -33 94 -33q63 0 95 45q15 21 29 62l59 -13q-18 -103 -69 -152q-60 -58 -134 -58q-44 0 -84 18q-28 12 -93 58q-60 43 -106 43q-82 0 -124 -101z" />
    <glyph glyph-name="Adieresis" unicode="&#xc4;" horiz-adv-x="1316" vert-adv-y="2457" 
d="M845 395h-478l-67 -192q-25 -70 -25 -97q0 -32 38 -49q23 -10 97 -13v-50q-118 11 -195 11q-78 0 -195 -11v50q93 6 125 28q37 25 71 116l468 1221l421 -1244q28 -83 80 -102q34 -13 110 -19v-50q-140 15 -249 15t-250 -15v50q79 6 106 22q25 15 25 39q0 28 -13 69z
M391 459h433l-199 627zM502 1739q46 0 80 -34t34 -82t-34 -82t-82 -34t-82 34t-34 82q0 49 34 82q35 34 84 34zM867 1739q46 0 80 -34t34 -82t-34 -82t-82 -34t-82 34t-34 82q0 49 34 82q35 34 84 34z" />
    <glyph glyph-name="Aring" unicode="&#xc5;" horiz-adv-x="1316" vert-adv-y="2457" 
d="M845 395h-478l-67 -192q-25 -70 -25 -97q0 -32 38 -49q23 -10 97 -13v-50q-118 11 -195 11q-78 0 -195 -11v50q93 6 125 28q37 25 71 116l468 1221l421 -1244q28 -83 80 -102q34 -13 110 -19v-50q-140 15 -249 15t-250 -15v50q79 6 106 22q25 15 25 39q0 28 -13 69z
M391 459h433l-199 627zM688 1799q68 0 119 -50q50 -50 50 -121t-50 -121t-121 -50t-122 50q-50 50 -50 121q0 72 50 121q52 50 124 50zM687 1727q-43 0 -72 -29t-29 -70t29 -70t71 -29q41 0 70 29t29 70q0 42 -29 70q-30 29 -69 29z" />
    <glyph glyph-name="AE" unicode="&#xc6;" horiz-adv-x="1834" vert-adv-y="2457" 
d="M1687 1365l36 -308h-46q-30 113 -62 165q-51 80 -181 80h-296v-561h293q69 0 91 34q24 37 30 135h50v-402h-50q-4 95 -29 132q-25 38 -103 38h-282v-494q0 -68 19 -89q29 -32 118 -32h145q93 0 140 25q88 45 138 242h47l-47 -330h-903v50q87 7 119 20q39 17 47 59
q3 20 3 57v276h-483l-171 -305q-22 -38 -22 -60q0 -29 36 -42q25 -8 105 -11v-50q-151 10 -204 10q-54 0 -205 -10v50q88 6 127 29q47 27 100 119l677 1173h763zM518 526h446v779z" />
    <glyph glyph-name="Ccedilla" unicode="&#xc7;" horiz-adv-x="1229" vert-adv-y="2457" 
d="M677 -25l-48 -94q76 -6 111 -26q69 -39 69 -121q0 -73 -58 -119q-52 -42 -131 -42q-74 0 -164 32v68q68 -18 107 -18q45 0 73 19q38 26 38 72q0 57 -59 77q-32 11 -103 13l76 142q-159 19 -275 125q-106 96 -161 265q-46 142 -46 312q0 308 145 511q73 103 190 156
q96 44 214 44q188 0 320 -123l72 119h37v-403h-47q-84 341 -358 341q-205 0 -297 -182q-91 -177 -91 -456q0 -263 83 -431q94 -191 302 -191q133 0 227 86q111 101 124 309h74q-11 -250 -152 -377q-109 -97 -272 -108z" />
    <glyph glyph-name="Egrave" unicode="&#xc8;" horiz-adv-x="1113" vert-adv-y="2457" 
d="M1015 330l-47 -330h-903v50q87 7 119 20q40 17 47 59q3 19 3 57v993q0 63 -12 85q-24 42 -157 51v50h892l36 -308h-46q-36 138 -83 190q-49 55 -160 55h-296v-561h293q70 0 91 34q24 38 30 135h50v-402h-50q-4 92 -29 131t-103 39h-282v-494q0 -68 19 -89q29 -32 118 -32
h145q119 0 170 46q67 62 108 221h47zM723 1483h-103l-403 281h248z" />
    <glyph glyph-name="Eacute" unicode="&#xc9;" horiz-adv-x="1113" vert-adv-y="2457" 
d="M1015 330l-47 -330h-903v50q87 7 119 20q40 17 47 59q3 19 3 57v993q0 63 -12 85q-24 42 -157 51v50h892l36 -308h-46q-36 138 -83 190q-49 55 -160 55h-296v-561h293q70 0 91 34q24 38 30 135h50v-402h-50q-4 92 -29 131t-103 39h-282v-494q0 -68 19 -89q29 -32 118 -32
h145q119 0 170 46q67 62 108 221h47zM430 1483l258 281h248l-403 -281h-103z" />
    <glyph glyph-name="Ecircumflex" unicode="&#xca;" horiz-adv-x="1113" vert-adv-y="2457" 
d="M1015 330l-47 -330h-903v50q87 7 119 20q40 17 47 59q3 19 3 57v993q0 63 -12 85q-24 42 -157 51v50h892l36 -308h-46q-36 138 -83 190q-49 55 -160 55h-296v-561h293q70 0 91 34q24 38 30 135h50v-402h-50q-4 92 -29 131t-103 39h-282v-494q0 -68 19 -89q29 -32 118 -32
h145q119 0 170 46q67 62 108 221h47zM212 1485l290 277h116l290 -277h-101l-247 171l-246 -171h-102z" />
    <glyph glyph-name="Edieresis" unicode="&#xcb;" horiz-adv-x="1113" vert-adv-y="2457" 
d="M1015 330l-47 -330h-903v50q87 7 119 20q40 17 47 59q3 19 3 57v993q0 63 -12 85q-24 42 -157 51v50h892l36 -308h-46q-36 138 -83 190q-49 55 -160 55h-296v-561h293q70 0 91 34q24 38 30 135h50v-402h-50q-4 92 -29 131t-103 39h-282v-494q0 -68 19 -89q29 -32 118 -32
h145q119 0 170 46q67 62 108 221h47zM386 1739q46 0 80 -34t34 -82t-34 -82t-82 -34t-82 34t-34 82q0 49 34 82q35 34 84 34zM751 1739q46 0 80 -34t34 -82t-34 -82t-82 -34t-82 34t-34 82q0 49 34 82q35 34 84 34z" />
    <glyph glyph-name="Igrave" unicode="&#xcc;" horiz-adv-x="642" vert-adv-y="2457" 
d="M577 44v-50q-163 15 -256 15t-256 -15v50q89 7 119 20q40 17 47 59q3 19 3 57v1005q0 64 -12 85q-20 35 -85 44q-24 4 -72 7v50q156 -15 256 -15t256 15v-50q-87 -6 -119 -20q-39 -17 -47 -59q-3 -20 -3 -57v-1005q0 -63 12 -85q20 -35 85 -44q22 -3 72 -7zM436 1483
h-103l-369 281h241z" />
    <glyph glyph-name="Iacute" unicode="&#xcd;" horiz-adv-x="642" vert-adv-y="2457" 
d="M577 44v-50q-163 15 -256 15t-256 -15v50q89 7 119 20q40 17 47 59q3 19 3 57v1005q0 64 -12 85q-20 35 -85 44q-24 4 -72 7v50q155 -15 256 -15q100 0 256 15v-50q-87 -6 -119 -20q-40 -17 -47 -59q-3 -20 -3 -57v-1005q0 -63 12 -85q20 -35 85 -44q22 -3 72 -7z
M212 1483l230 281h241l-369 -281h-102z" />
    <glyph glyph-name="Icircumflex" unicode="&#xce;" horiz-adv-x="642" vert-adv-y="2457" 
d="M577 44v-50q-163 15 -256 15t-256 -15v50q89 7 119 20q40 17 47 59q3 19 3 57v1005q0 64 -12 85q-20 35 -85 44q-24 4 -72 7v50q155 -15 256 -15q100 0 256 15v-50q-87 -6 -119 -20q-39 -17 -47 -59q-3 -20 -3 -57v-1005q0 -63 12 -85q20 -35 85 -44q22 -3 72 -7zM0 1485
l263 277h116l263 -277h-102l-219 171l-219 -171h-102z" />
    <glyph glyph-name="Idieresis" unicode="&#xcf;" horiz-adv-x="642" vert-adv-y="2457" 
d="M578 44v-50q-163 15 -256 15t-256 -15v50q89 7 119 20q40 17 47 59q3 19 3 57v1005q0 64 -12 85q-20 35 -85 44q-24 4 -72 7v50q155 -15 256 -15q100 0 256 15v-50q-87 -6 -119 -20q-40 -17 -47 -59q-3 -20 -3 -57v-1005q0 -63 12 -85q20 -35 85 -44q22 -3 72 -7z
M160 1738q46 0 80 -34q33 -33 33 -80q0 -48 -33 -81q-34 -34 -81 -34q-48 0 -81 34q-34 33 -34 80q0 49 34 81q34 34 82 34zM486 1738q45 0 79 -34q34 -33 34 -80q0 -48 -34 -81q-33 -34 -81 -34q-47 0 -80 34q-34 33 -34 80q0 49 34 81q34 34 82 34z" />
    <glyph glyph-name="Eth" unicode="&#xd0;" horiz-adv-x="1301" vert-adv-y="2457" 
d="M57 1315v50h502q185 0 293 -48q170 -76 267 -270q84 -166 84 -363q0 -228 -109 -411q-113 -190 -316 -247q-93 -26 -220 -26h-501v50q87 6 119 20q40 17 47 59q3 19 3 57v494h-169v75h169v424q0 63 -12 85q-24 42 -157 51zM400 1302v-547h312v-75h-312v-514q0 -66 20 -84
q24 -23 113 -23q229 0 338 116q150 160 150 512q0 323 -134 487q-104 128 -324 128h-163z" />
    <glyph glyph-name="Ntilde" unicode="&#xd1;" horiz-adv-x="1377" vert-adv-y="2457" 
d="M1149 -41h-30q-82 130 -163 250l-50 76l-604 908v-1013q0 -65 12 -86q18 -33 85 -43q23 -3 72 -7v-50q-146 10 -207 10q-65 0 -199 -10v50q86 7 119 20q41 17 47 59q3 21 3 57v1081q-33 35 -74 46q-35 10 -97 14v50q92 -7 172 -7q76 0 150 7l695 -1037v851q0 66 -11 86
q-23 41 -158 50v50q139 -10 208 -10q71 0 199 10v-50q-83 -6 -119 -20q-41 -17 -47 -59q-3 -19 -3 -57v-1226zM415 1522l-60 15q29 106 69 147q54 55 133 55q52 0 96 -24q24 -13 95 -62q48 -33 94 -33q63 0 95 45q15 21 29 62l59 -13q-18 -103 -69 -152q-60 -58 -134 -58
q-44 0 -84 18q-28 12 -93 58q-60 43 -106 43q-82 0 -124 -101z" />
    <glyph glyph-name="Ograve" unicode="&#xd2;" horiz-adv-x="1295" vert-adv-y="2457" 
d="M646 1391q186 0 326 -114q126 -104 184 -295q41 -136 41 -307q0 -280 -127 -478q-72 -112 -190 -171q-102 -52 -229 -52q-183 0 -321 109q-132 103 -192 306q-40 135 -40 297q0 289 125 478q70 108 181 168q110 59 242 59zM650 1334q-141 0 -236 -119
q-131 -163 -131 -526q0 -255 72 -434q39 -99 115 -162q76 -62 182 -62q145 0 236 121q71 96 103 275q21 118 21 254q0 264 -69 433q-91 220 -293 220zM789 1483h-103l-403 281h248z" />
    <glyph glyph-name="Oacute" unicode="&#xd3;" horiz-adv-x="1295" vert-adv-y="2457" 
d="M646 1391q186 0 326 -114q126 -104 184 -295q41 -136 41 -307q0 -280 -127 -478q-72 -112 -190 -171q-102 -52 -229 -52q-183 0 -321 109q-132 103 -192 306q-40 135 -40 297q0 289 125 478q70 108 181 168q110 59 242 59zM650 1334q-141 0 -236 -119
q-131 -163 -131 -526q0 -255 72 -434q39 -99 115 -162q76 -62 182 -62q145 0 236 121q71 96 103 275q21 118 21 254q0 264 -69 433q-91 220 -293 220zM525 1483l258 281h248l-403 -281h-103z" />
    <glyph glyph-name="Ocircumflex" unicode="&#xd4;" horiz-adv-x="1295" vert-adv-y="2457" 
d="M646 1391q186 0 326 -114q126 -104 184 -295q41 -136 41 -307q0 -280 -127 -478q-72 -112 -190 -171q-102 -52 -229 -52q-183 0 -321 109q-132 103 -192 306q-40 135 -40 297q0 289 125 478q70 108 181 168q110 59 242 59zM650 1334q-141 0 -236 -119
q-131 -163 -131 -526q0 -255 72 -434q39 -99 115 -162q76 -62 182 -62q145 0 236 121q71 96 103 275q21 118 21 254q0 264 -69 433q-91 220 -293 220zM299 1485l290 277h116l290 -277h-101l-247 171l-246 -171h-102z" />
    <glyph glyph-name="Otilde" unicode="&#xd5;" horiz-adv-x="1295" vert-adv-y="2457" 
d="M646 1391q186 0 326 -114q126 -104 184 -295q41 -136 41 -307q0 -280 -127 -478q-72 -112 -190 -171q-102 -52 -229 -52q-183 0 -321 109q-132 103 -192 306q-40 135 -40 297q0 289 125 478q70 108 181 168q110 59 242 59zM650 1334q-141 0 -236 -119
q-131 -163 -131 -526q0 -255 72 -434q39 -99 115 -162q76 -62 182 -62q145 0 236 121q71 96 103 275q21 118 21 254q0 264 -69 433q-91 220 -293 220zM386 1522l-60 15q29 106 69 147q54 55 133 55q52 0 96 -24q24 -13 95 -62q48 -33 94 -33q63 0 95 45q15 21 29 62l59 -13
q-18 -103 -69 -152q-60 -58 -134 -58q-44 0 -84 18q-28 12 -93 58q-60 43 -106 43q-82 0 -124 -101z" />
    <glyph glyph-name="Odieresis" unicode="&#xd6;" horiz-adv-x="1295" vert-adv-y="2457" 
d="M646 1391q186 0 326 -114q126 -104 184 -295q41 -136 41 -307q0 -280 -127 -478q-72 -112 -190 -171q-102 -52 -229 -52q-183 0 -321 109q-132 103 -192 306q-40 135 -40 297q0 289 125 478q70 108 181 168q110 59 242 59zM650 1334q-141 0 -236 -119
q-131 -163 -131 -526q0 -255 72 -434q39 -99 115 -162q76 -62 182 -62q145 0 236 121q71 96 103 275q21 118 21 254q0 264 -69 433q-91 220 -293 220zM467 1739q46 0 80 -34t34 -82t-34 -82t-82 -34t-82 34t-34 82q0 49 34 82q35 34 84 34zM832 1739q46 0 80 -34t34 -82
t-34 -82t-82 -34t-82 34t-34 82q0 49 34 82q35 34 84 34z" />
    <glyph glyph-name="multiply" unicode="&#xd7;" horiz-adv-x="1071" vert-adv-y="2457" 
d="M151 987l88 88l299 -298l295 295l84 -83l-296 -296l299 -298l-89 -89l-298 299l-295 -296l-84 84l296 295z" />
    <glyph glyph-name="Oslash" unicode="&#xd8;" horiz-adv-x="1295" vert-adv-y="2457" 
d="M1159 1365h93l-169 -209q113 -185 113 -457q0 -306 -140 -512q-75 -111 -195 -168q-95 -45 -212 -45q-239 0 -392 172l-119 -146h-94l169 206q-116 193 -116 463q0 305 137 506q72 104 186 163q105 53 229 53q236 0 389 -174zM951 1120q-99 213 -295 213
q-138 0 -235 -112q-81 -94 -119 -273q-29 -134 -29 -296q0 -171 44 -327zM346 245q91 -213 297 -213q143 0 235 114q75 93 113 272q29 138 29 302q0 178 -41 320z" />
    <glyph glyph-name="Ugrave" unicode="&#xd9;" horiz-adv-x="1361" vert-adv-y="2457" 
d="M900 1321v50q139 -10 208 -10q70 0 199 10v-50q-88 -6 -120 -20q-39 -17 -46 -59q-3 -18 -3 -57v-749q0 -128 -24 -197q-47 -134 -170 -202q-109 -60 -264 -60q-232 0 -360 139q-70 75 -87 171q-10 57 -10 133v765q0 64 -12 85q-20 35 -85 44q-24 4 -72 7v50
q155 -15 256 -15t256 15v-50q-87 -6 -119 -20q-40 -17 -47 -59q-3 -20 -3 -57v-782q0 -122 24 -177q38 -86 130 -126q72 -32 169 -32q142 0 233 65q81 56 104 162q12 54 12 131v759q0 63 -12 85q-20 35 -85 44q-25 4 -72 7zM874 1483h-103l-403 281h248z" />
    <glyph glyph-name="Uacute" unicode="&#xda;" horiz-adv-x="1361" vert-adv-y="2457" 
d="M900 1321v50q139 -10 208 -10q70 0 199 10v-50q-88 -6 -120 -20q-39 -17 -46 -59q-3 -18 -3 -57v-749q0 -128 -24 -197q-47 -134 -170 -202q-109 -60 -264 -60q-232 0 -360 139q-70 75 -87 171q-10 57 -10 133v765q0 64 -12 85q-20 35 -85 44q-24 4 -72 7v50
q155 -15 256 -15t256 15v-50q-87 -6 -119 -20q-40 -17 -47 -59q-3 -20 -3 -57v-782q0 -122 24 -177q38 -86 130 -126q72 -32 169 -32q142 0 233 65q81 56 104 162q12 54 12 131v759q0 63 -12 85q-20 35 -85 44q-25 4 -72 7zM602 1483l258 281h248l-403 -281h-103z" />
    <glyph glyph-name="Ucircumflex" unicode="&#xdb;" horiz-adv-x="1361" vert-adv-y="2457" 
d="M900 1321v50q139 -10 208 -10q70 0 199 10v-50q-88 -6 -120 -20q-39 -17 -46 -59q-3 -18 -3 -57v-749q0 -128 -24 -197q-47 -134 -170 -202q-109 -60 -264 -60q-232 0 -360 139q-70 75 -87 171q-10 57 -10 133v765q0 64 -12 85q-20 35 -85 44q-24 4 -72 7v50
q155 -15 256 -15t256 15v-50q-87 -6 -119 -20q-40 -17 -47 -59q-3 -20 -3 -57v-782q0 -122 24 -177q38 -86 130 -126q72 -32 169 -32q142 0 233 65q81 56 104 162q12 54 12 131v759q0 63 -12 85q-20 35 -85 44q-25 4 -72 7zM383 1485l290 277h116l290 -277h-101l-247 171
l-246 -171h-102z" />
    <glyph glyph-name="Udieresis" unicode="&#xdc;" horiz-adv-x="1361" vert-adv-y="2457" 
d="M900 1321v50q139 -10 208 -10q70 0 199 10v-50q-88 -6 -120 -20q-39 -17 -46 -59q-3 -18 -3 -57v-749q0 -128 -24 -197q-47 -134 -170 -202q-109 -60 -264 -60q-232 0 -360 139q-70 75 -87 171q-10 57 -10 133v765q0 64 -12 85q-20 35 -85 44q-24 4 -72 7v50
q155 -15 256 -15t256 15v-50q-87 -6 -119 -20q-40 -17 -47 -59q-3 -20 -3 -57v-782q0 -122 24 -177q38 -86 130 -126q72 -32 169 -32q142 0 233 65q81 56 104 162q12 54 12 131v759q0 63 -12 85q-20 35 -85 44q-25 4 -72 7zM550 1739q47 0 81 -34t34 -82t-34 -82t-82 -34
t-82 34t-34 82q0 49 34 82q34 34 83 34zM915 1739q47 0 81 -34t34 -82t-34 -82t-82 -34t-82 34t-34 82q0 49 34 82q35 34 83 34z" />
    <glyph glyph-name="Yacute" unicode="&#xdd;" horiz-adv-x="1211" vert-adv-y="2457" 
d="M523 595l-304 605q-39 78 -84 99q-33 16 -107 22v50q138 -14 252 -14q113 0 251 14v-50q-84 -5 -112 -17q-31 -13 -31 -38q0 -21 21 -63l262 -520l262 523q19 39 19 61q0 28 -38 41q-25 9 -101 13v50q114 -10 189 -10q76 0 190 10v-50q-74 -9 -104 -21q-47 -20 -82 -89
l-309 -616v-415q0 -66 11 -86q19 -33 86 -43q23 -3 72 -7v-50q-163 15 -256 15t-256 -15v50q86 7 119 20q41 17 47 59q3 21 3 57v415zM533 1483l258 281h248l-403 -281h-103z" />
    <glyph glyph-name="Thorn" unicode="&#xde;" horiz-adv-x="1116" vert-adv-y="2457" 
d="M408 400v-220q0 -63 12 -85q20 -35 85 -44q22 -3 72 -7v-50q-163 15 -256 15t-256 -15v50q89 7 119 20q40 17 47 59q3 19 3 57v1005q0 64 -12 85q-20 35 -85 44q-24 4 -72 7v50q155 -15 256 -15q100 0 256 15v-50q-87 -6 -119 -20q-40 -17 -47 -59q-3 -20 -3 -57v-36h197
q135 0 213 -27q118 -40 183 -147q57 -93 57 -204q0 -191 -150 -296q-106 -75 -283 -75h-217zM408 463h163q142 0 214 61q99 85 99 254q0 153 -77 236q-68 72 -223 72h-176v-623z" />
    <glyph glyph-name="germandbls" unicode="&#xdf;" horiz-adv-x="1054" vert-adv-y="2457" 
d="M438 721v65q125 5 188 52q92 69 92 227q0 251 -176 251q-72 0 -123 -46q-64 -57 -64 -212v-1062q-86 7 -141 7q-64 0 -170 -9v41q72 3 102 15q34 13 41 48q4 15 4 47v834q0 165 67 259q45 62 119 98q79 40 171 40q148 0 241 -91q91 -89 91 -224q0 -136 -98 -221
q-43 -38 -129 -76q321 -83 321 -396q0 -152 -84 -259q-95 -123 -238 -123q-88 0 -178 64v56q66 -35 118 -35q103 0 159 84q55 80 55 204q0 214 -153 308q-80 49 -215 54z" />
    <glyph glyph-name="agrave" unicode="&#xe0;" horiz-adv-x="955" vert-adv-y="2457" 
d="M911 54v-54q-69 -14 -113 -14q-89 0 -128 63q-24 39 -31 112q-41 -74 -79 -109q-74 -70 -196 -70q-123 0 -202 71q-83 75 -83 192q0 184 233 281q132 55 303 77v122q0 103 -31 146q-44 60 -138 60q-80 0 -135 -43q-35 -29 -35 -78v-17q1 -17 1 -32q0 -89 -83 -89
q-68 0 -68 69q0 94 90 165q102 80 246 80q100 0 180 -43q99 -54 124 -155q13 -52 13 -140v-418q0 -97 15 -140t65 -43q18 0 52 7zM615 550q-140 -25 -230 -70q-140 -71 -140 -223q0 -89 48 -139q44 -47 122 -47q132 0 178 121q22 59 22 180v178zM587 1129h-92l-336 301h227z
" />
    <glyph glyph-name="aacute" unicode="&#xe1;" horiz-adv-x="955" vert-adv-y="2457" 
d="M911 54v-54q-69 -14 -113 -14q-89 0 -128 63q-24 39 -31 112q-41 -74 -79 -109q-74 -70 -196 -70q-123 0 -202 71q-83 75 -83 192q0 184 233 281q132 55 303 77v122q0 103 -31 146q-44 60 -138 60q-80 0 -135 -43q-35 -29 -35 -78v-17q1 -17 1 -32q0 -89 -83 -89
q-68 0 -68 69q0 94 90 165q102 80 246 80q100 0 180 -43q99 -54 124 -155q13 -52 13 -140v-418q0 -97 15 -140t65 -43q18 0 52 7zM615 550q-140 -25 -230 -70q-140 -71 -140 -223q0 -89 48 -139q44 -47 122 -47q132 0 178 121q22 59 22 180v178zM360 1129l201 301h227
l-337 -301h-91z" />
    <glyph glyph-name="acircumflex" unicode="&#xe2;" horiz-adv-x="955" vert-adv-y="2457" 
d="M911 54v-54q-69 -14 -113 -14q-89 0 -128 63q-24 39 -31 112q-41 -74 -79 -109q-74 -70 -196 -70q-123 0 -202 71q-83 75 -83 192q0 184 233 281q132 55 303 77v122q0 103 -31 146q-44 60 -138 60q-80 0 -135 -43q-35 -29 -35 -78v-17q1 -17 1 -32q0 -89 -83 -89
q-68 0 -68 69q0 94 90 165q102 80 246 80q100 0 180 -43q99 -54 124 -155q13 -52 13 -140v-418q0 -97 15 -140t65 -43q18 0 52 7zM615 550q-140 -25 -230 -70q-140 -71 -140 -223q0 -89 48 -139q44 -47 122 -47q132 0 178 121q22 59 22 180v178zM151 1130l269 299h99
l269 -299h-98l-221 177l-221 -177h-97z" />
    <glyph glyph-name="atilde" unicode="&#xe3;" horiz-adv-x="955" vert-adv-y="2457" 
d="M911 54v-54q-69 -14 -113 -14q-89 0 -128 63q-24 39 -31 112q-41 -74 -79 -109q-74 -70 -196 -70q-123 0 -202 71q-83 75 -83 192q0 184 233 281q132 55 303 77v122q0 103 -31 146q-44 60 -138 60q-80 0 -135 -43q-35 -29 -35 -78v-17q1 -17 1 -32q0 -89 -83 -89
q-68 0 -68 69q0 94 90 165q102 80 246 80q100 0 180 -43q99 -54 124 -155q13 -52 13 -140v-418q0 -97 15 -140t65 -43q18 0 52 7zM615 550q-140 -25 -230 -70q-140 -71 -140 -223q0 -89 48 -139q44 -47 122 -47q132 0 178 121q22 59 22 180v178zM229 1181l-57 16
q31 109 65 146q51 55 126 55q65 0 140 -55q53 -39 67 -47q31 -17 64 -17q60 0 90 45q14 21 28 62l56 -13q-19 -104 -65 -152q-57 -58 -128 -58q-42 0 -80 18q-27 13 -88 58q-57 43 -101 43q-77 0 -117 -101z" />
    <glyph glyph-name="adieresis" unicode="&#xe4;" horiz-adv-x="955" vert-adv-y="2457" 
d="M911 54v-54q-69 -14 -113 -14q-89 0 -128 63q-24 39 -31 112q-41 -74 -79 -109q-74 -70 -196 -70q-123 0 -202 71q-83 75 -83 192q0 184 233 281q132 55 303 77v122q0 103 -31 146q-44 60 -138 60q-80 0 -135 -43q-35 -29 -35 -78v-17q1 -17 1 -32q0 -89 -83 -89
q-68 0 -68 69q0 94 90 165q102 80 246 80q100 0 180 -43q99 -54 124 -155q13 -52 13 -140v-418q0 -97 15 -140t65 -43q18 0 52 7zM615 550q-140 -25 -230 -70q-140 -71 -140 -223q0 -89 48 -139q44 -47 122 -47q132 0 178 121q22 59 22 180v178zM278 1378q44 0 76 -32
t32 -77q0 -46 -32 -78t-77 -32q-46 0 -78 32q-32 33 -32 77q0 47 32 78q33 32 79 32zM651 1378q44 0 76 -32t32 -77q0 -46 -32 -78t-77 -32q-46 0 -78 32q-32 33 -32 77q0 47 32 78q33 32 79 32z" />
    <glyph glyph-name="aring" unicode="&#xe5;" horiz-adv-x="955" vert-adv-y="2457" 
d="M911 54v-54q-66 -14 -114 -14q-88 0 -127 63q-23 37 -31 112q-40 -74 -79 -109q-75 -70 -196 -70q-123 0 -202 71q-83 74 -83 192q0 185 233 281q133 55 303 77v122q0 104 -31 146q-44 60 -138 60q-95 0 -147 -52q-25 -26 -25 -65q0 -3 2 -44v-11q0 -87 -81 -87
q-69 0 -69 70q0 93 90 164q102 80 246 80q100 0 180 -43q99 -54 124 -155q13 -52 13 -140v-418q0 -98 15 -140q15 -43 64 -43q19 0 53 7zM615 550q-140 -25 -230 -70q-140 -71 -140 -223q0 -89 48 -139q44 -47 122 -47q132 0 178 121q22 59 22 180v178zM471 1463
q69 0 119 -50t50 -121q0 -70 -50 -121q-50 -50 -121 -50t-121 50q-50 51 -50 121q0 72 50 121q51 50 123 50zM470 1391q-42 0 -71 -29t-29 -70t29 -70t70 -29t70 29t29 70q0 42 -29 70q-30 29 -69 29z" />
    <glyph glyph-name="ae" unicode="&#xe6;" horiz-adv-x="1472" vert-adv-y="2457" 
d="M1309 315h82q-13 -115 -73 -197q-100 -137 -299 -137q-248 0 -361 229q-78 -229 -293 -229q-142 0 -222 89q-64 71 -64 171q0 165 186 255q112 54 350 80v149q0 125 -49 166q-47 40 -121 40q-94 0 -146 -53q-26 -27 -26 -59q0 -6 2 -20q2 -21 2 -38q0 -90 -83 -90
q-68 0 -68 69q0 88 83 159q101 87 248 87q135 0 227 -72q25 -20 47 -52q114 124 284 124q129 0 228 -80q134 -109 147 -403h-614q2 -197 36 -286q64 -168 236 -168q130 0 198 96q48 68 63 170zM615 513q-184 -25 -261 -71q-109 -66 -109 -190q0 -92 54 -142q43 -40 116 -40
q113 0 163 90q37 66 37 212v141zM1224 580q-10 353 -214 353t-232 -353h446z" />
    <glyph glyph-name="ccedilla" unicode="&#xe7;" horiz-adv-x="892" vert-adv-y="2457" 
d="M530 -19l-52 -102q173 -16 173 -138q0 -72 -57 -114q-51 -38 -130 -38q-72 0 -154 33v61q69 -18 106 -18q42 0 68 18q35 25 35 69q0 53 -58 74q-30 11 -95 14l76 140q-117 16 -199 86q-158 135 -158 411q0 236 119 380q111 135 286 135q120 0 208 -87l55 104h36v-338h-46
q-19 93 -48 147q-28 53 -79 86q-49 33 -109 33q-128 0 -188 -135q-56 -127 -56 -325q0 -432 238 -432q189 0 227 270h82q-35 -295 -280 -334z" />
    <glyph glyph-name="egrave" unicode="&#xe8;" horiz-adv-x="939" vert-adv-y="2457" 
d="M776 315h81q-13 -117 -75 -201q-98 -134 -289 -134q-193 0 -299 134q-113 143 -113 372q0 224 113 366q108 135 288 135q140 0 239 -89q129 -117 134 -391h-608q5 -199 36 -285q62 -174 234 -174q149 0 217 129q31 56 42 138zM692 580q-17 354 -213 354q-198 0 -228 -354
h441zM601 1129h-92l-336 301h227z" />
    <glyph glyph-name="eacute" unicode="&#xe9;" horiz-adv-x="939" vert-adv-y="2457" 
d="M776 315h81q-13 -117 -75 -201q-98 -134 -289 -134q-193 0 -299 134q-113 143 -113 372q0 224 113 366q108 135 288 135q140 0 239 -89q129 -117 134 -391h-608q5 -199 36 -285q62 -174 234 -174q149 0 217 129q31 56 42 138zM692 580q-17 354 -213 354q-198 0 -228 -354
h441zM380 1129l201 301h227l-337 -301h-91z" />
    <glyph glyph-name="ecircumflex" unicode="&#xea;" horiz-adv-x="939" vert-adv-y="2457" 
d="M776 315h81q-13 -117 -75 -201q-98 -134 -289 -134q-193 0 -299 134q-113 143 -113 372q0 224 113 366q108 135 288 135q140 0 239 -89q129 -117 134 -391h-608q5 -199 36 -285q62 -174 234 -174q149 0 217 129q31 56 42 138zM692 580q-17 354 -213 354q-198 0 -228 -354
h441zM165 1130l269 299h99l269 -299h-98l-221 177l-221 -177h-97z" />
    <glyph glyph-name="edieresis" unicode="&#xeb;" horiz-adv-x="939" vert-adv-y="2457" 
d="M776 315h81q-13 -117 -75 -201q-98 -134 -289 -134q-193 0 -299 134q-113 143 -113 372q0 224 113 366q108 135 288 135q140 0 239 -89q129 -117 134 -391h-608q5 -199 36 -285q62 -174 234 -174q149 0 217 129q31 56 42 138zM692 580q-17 354 -213 354q-198 0 -228 -354
h441zM299 1378q44 0 76 -32t32 -77q0 -46 -32 -78t-77 -32q-46 0 -78 32q-32 33 -32 77q0 47 32 78q33 32 79 32zM672 1378q44 0 76 -32t32 -77q0 -46 -32 -78t-77 -32q-46 0 -78 32q-32 33 -32 77q0 47 32 78q33 32 79 32z" />
    <glyph glyph-name="igrave" unicode="&#xec;" horiz-adv-x="571" vert-adv-y="2457" 
d="M371 1003v-858q0 -51 12 -70q22 -35 134 -40v-41q-145 12 -228 12q-84 0 -229 -12v41q72 3 102 15q34 13 41 48q4 15 4 47v648q0 61 -12 82q-18 30 -69 35q-23 2 -64 3v35q163 16 309 55zM389 1129h-92l-336 301h227z" />
    <glyph glyph-name="iacute" unicode="&#xed;" horiz-adv-x="571" vert-adv-y="2457" 
d="M372 1003v-858q0 -51 12 -70q22 -35 134 -40v-41q-145 12 -228 12q-84 0 -229 -12v41q72 3 102 15q34 13 41 48q4 15 4 47v648q0 61 -12 82q-18 30 -69 35q-23 2 -64 3v35q163 16 309 55zM176 1129l201 301h227l-337 -301h-91z" />
    <glyph glyph-name="icircumflex" unicode="&#xee;" horiz-adv-x="571" vert-adv-y="2457" 
d="M371 1003v-858q0 -51 12 -70q22 -35 135 -40v-41q-141 12 -229 12t-229 -12v41q71 3 102 15q34 13 42 48q3 15 3 47v648q0 60 -12 82q-17 31 -69 35q-23 2 -64 3v35q160 15 309 55zM-6 1130l230 301h95l230 -301h-91l-187 177l-186 -177h-91z" />
    <glyph glyph-name="idieresis" unicode="&#xef;" horiz-adv-x="571" vert-adv-y="2457" 
d="M372 1003v-858q0 -51 12 -70q22 -35 134 -40v-41q-145 12 -228 12q-84 0 -229 -12v41q72 3 102 15q34 13 41 48q4 15 4 47v648q0 61 -12 82q-18 30 -69 35q-23 2 -64 3v35q163 16 309 55zM124 1405q44 0 75 -32q32 -31 32 -76t-32 -76q-31 -32 -76 -32t-76 32
q-32 32 -32 76q0 45 32 76q32 32 77 32zM429 1405q43 0 75 -32q32 -31 32 -76t-32 -76q-31 -32 -76 -32t-76 32q-32 32 -32 76q0 45 32 76q32 32 77 32z" />
    <glyph glyph-name="eth" unicode="&#xf0;" horiz-adv-x="960" vert-adv-y="2457" 
d="M303 1348l50 33l110 -137l160 101l38 -60l-150 -95l169 -212q98 -123 135 -204q64 -136 64 -300q0 -199 -97 -337q-109 -156 -298 -156q-176 0 -289 141q-114 143 -114 367q0 209 103 346q115 150 298 150q29 0 61 -5l-106 163l-152 -95l-37 58l151 96zM477 932
q-88 0 -147 -76q-77 -101 -77 -344q0 -478 232 -478q223 0 223 416q0 482 -231 482z" />
    <glyph glyph-name="ntilde" unicode="&#xf1;" horiz-adv-x="1122" vert-adv-y="2457" 
d="M62 907v35q162 23 271 61q15 -67 21 -178q108 161 276 161q167 0 250 -126q50 -75 50 -223v-492q0 -51 12 -70q22 -35 134 -40v-41q-133 12 -224 12t-221 -12v40q62 2 94 17q31 15 38 46q3 14 3 45v502q0 122 -31 172q-46 77 -151 77q-109 0 -172 -83q-41 -55 -41 -174
v-494q0 -48 11 -66q23 -37 121 -42v-40q-130 12 -220 12q-89 0 -223 -12v41q72 3 102 15q34 13 42 48q3 15 3 47v634q-1 57 -4 73q-6 45 -60 51q-19 2 -81 4zM313 1181l-57 16q31 109 65 146q51 55 126 55q65 0 140 -55q53 -39 67 -47q31 -17 64 -17q60 0 90 45q14 21 28 62
l56 -13q-19 -104 -65 -152q-57 -58 -128 -58q-42 0 -80 18q-27 13 -88 58q-57 43 -101 43q-77 0 -117 -101z" />
    <glyph glyph-name="ograve" unicode="&#xf2;" horiz-adv-x="960" vert-adv-y="2457" 
d="M488 992q183 0 288 -148q103 -146 103 -363q0 -208 -106 -353q-110 -150 -294 -150t-294 150q-104 142 -104 355q0 224 113 365q114 144 294 144zM484 939q-85 0 -144 -73q-87 -108 -87 -383q0 -452 225 -452q92 0 151 80q78 107 78 367q0 461 -223 461zM632 1129h-92
l-336 301h227z" />
    <glyph glyph-name="oacute" unicode="&#xf3;" horiz-adv-x="960" vert-adv-y="2457" 
d="M488 992q183 0 288 -148q103 -146 103 -363q0 -208 -106 -353q-110 -150 -294 -150t-294 150q-104 142 -104 355q0 224 113 365q114 144 294 144zM484 939q-85 0 -144 -73q-87 -108 -87 -383q0 -452 225 -452q92 0 151 80q78 107 78 367q0 461 -223 461zM391 1129
l201 301h227l-337 -301h-91z" />
    <glyph glyph-name="ocircumflex" unicode="&#xf4;" horiz-adv-x="960" vert-adv-y="2457" 
d="M488 992q183 0 288 -148q103 -146 103 -363q0 -208 -106 -353q-110 -150 -294 -150t-294 150q-104 142 -104 355q0 224 113 365q114 144 294 144zM484 939q-85 0 -144 -73q-87 -108 -87 -383q0 -452 225 -452q92 0 151 80q78 107 78 367q0 461 -223 461zM162 1130
l269 299h99l269 -299h-98l-221 177l-221 -177h-97z" />
    <glyph glyph-name="otilde" unicode="&#xf5;" horiz-adv-x="960" vert-adv-y="2457" 
d="M488 992q183 0 288 -148q103 -146 103 -363q0 -208 -106 -353q-110 -150 -294 -150t-294 150q-104 142 -104 355q0 224 113 365q114 144 294 144zM484 939q-85 0 -144 -73q-87 -108 -87 -383q0 -452 225 -452q92 0 151 80q78 107 78 367q0 461 -223 461zM233 1181l-57 16
q31 109 65 146q51 55 126 55q65 0 140 -55q53 -39 67 -47q31 -17 64 -17q60 0 90 45q14 21 28 62l56 -13q-19 -104 -65 -152q-57 -58 -128 -58q-42 0 -80 18q-27 13 -88 58q-57 43 -101 43q-77 0 -117 -101z" />
    <glyph glyph-name="odieresis" unicode="&#xf6;" horiz-adv-x="960" vert-adv-y="2457" 
d="M488 992q183 0 288 -148q103 -146 103 -363q0 -208 -106 -353q-110 -150 -294 -150t-294 150q-104 142 -104 355q0 224 113 365q114 144 294 144zM484 939q-85 0 -144 -73q-87 -108 -87 -383q0 -452 225 -452q92 0 151 80q78 107 78 367q0 461 -223 461zM296 1378
q44 0 76 -32t32 -77q0 -46 -32 -78t-77 -32q-46 0 -78 32q-32 33 -32 77q0 47 32 78q33 32 79 32zM669 1378q44 0 76 -32t32 -77q0 -46 -32 -78t-77 -32q-46 0 -78 32q-32 33 -32 77q0 47 32 78q33 32 79 32z" />
    <glyph glyph-name="divide" unicode="&#xf7;" horiz-adv-x="1071" vert-adv-y="2457" 
d="M110 631v119h852v-119h-852zM537 516q42 0 74 -31q31 -31 31 -76q0 -44 -31 -75t-75 -31t-76 31q-31 32 -31 75q0 45 31 76q32 31 77 31zM537 1078q42 0 74 -31q31 -31 31 -76q0 -44 -31 -75q-32 -31 -75 -31q-44 0 -76 31q-31 32 -31 75q0 45 31 76q32 31 77 31z" />
    <glyph glyph-name="oslash" unicode="&#xf8;" horiz-adv-x="960" vert-adv-y="2457" 
d="M125 -6h-84l125 157q-83 135 -83 318q0 235 125 383q112 134 285 134q152 0 255 -107l75 94h84l-117 -148q87 -138 87 -327q0 -227 -118 -377q-110 -140 -284 -140q-158 0 -267 116zM287 187q21 -55 61 -91q62 -56 133 -56q65 0 121 49q114 102 114 391q0 143 -25 230z
M669 790q-53 137 -184 137q-143 0 -204 -183q-37 -110 -37 -286q0 -103 23 -192z" />
    <glyph glyph-name="ugrave" unicode="&#xf9;" horiz-adv-x="1103" vert-adv-y="2457" 
d="M32 913v35q159 15 309 55v-684q0 -123 33 -174q47 -70 151 -70q117 0 174 88q38 58 38 184v446q0 60 -12 82q-17 31 -68 35q-25 3 -65 3v35q159 15 309 55v-833q0 -77 38 -91q24 -8 113 -10v-36q-163 -16 -282 -54q-9 69 -12 187q-40 -76 -84 -114q-79 -69 -196 -69
q-166 0 -249 115q-52 74 -52 225v470q0 60 -12 82q-17 31 -69 35q-25 3 -64 3zM672 1129h-92l-336 301h227z" />
    <glyph glyph-name="uacute" unicode="&#xfa;" horiz-adv-x="1103" vert-adv-y="2457" 
d="M32 913v35q159 15 309 55v-684q0 -123 33 -174q47 -70 151 -70q117 0 174 88q38 58 38 184v446q0 60 -12 82q-17 31 -68 35q-25 3 -65 3v35q159 15 309 55v-833q0 -77 38 -91q24 -8 113 -10v-36q-163 -16 -282 -54q-9 69 -12 187q-40 -76 -84 -114q-79 -69 -196 -69
q-166 0 -249 115q-52 74 -52 225v470q0 60 -12 82q-17 31 -69 35q-25 3 -64 3zM424 1129l201 301h227l-337 -301h-91z" />
    <glyph glyph-name="ucircumflex" unicode="&#xfb;" horiz-adv-x="1103" vert-adv-y="2457" 
d="M32 913v35q159 15 309 55v-684q0 -123 33 -174q47 -70 151 -70q117 0 174 88q38 58 38 184v446q0 60 -12 82q-17 31 -68 35q-25 3 -65 3v35q159 15 309 55v-833q0 -77 38 -91q24 -8 113 -10v-36q-163 -16 -282 -54q-9 69 -12 187q-40 -76 -84 -114q-79 -69 -196 -69
q-166 0 -249 115q-52 74 -52 225v470q0 60 -12 82q-17 31 -69 35q-25 3 -64 3zM222 1130l269 299h99l269 -299h-98l-221 177l-221 -177h-97z" />
    <glyph glyph-name="udieresis" unicode="&#xfc;" horiz-adv-x="1103" vert-adv-y="2457" 
d="M32 913v35q159 15 309 55v-684q0 -123 33 -174q47 -70 151 -70q117 0 174 88q38 58 38 184v446q0 60 -12 82q-17 31 -68 35q-25 3 -65 3v35q159 15 309 55v-833q0 -77 38 -91q24 -8 113 -10v-36q-163 -16 -282 -54q-9 69 -12 187q-40 -76 -84 -114q-79 -69 -196 -69
q-166 0 -249 115q-52 74 -52 225v470q0 60 -12 82q-17 31 -69 35q-25 3 -64 3zM356 1378q44 0 76 -32t32 -77q0 -46 -32 -78t-77 -32q-46 0 -78 32q-32 33 -32 77q0 47 32 78q33 32 79 32zM729 1378q44 0 76 -32t32 -77q0 -46 -32 -78t-77 -32q-46 0 -78 32q-32 33 -32 77
q0 47 32 78q33 32 79 32z" />
    <glyph glyph-name="yacute" unicode="&#xfd;" horiz-adv-x="1022" vert-adv-y="2457" 
d="M479 33l-303 804q-23 63 -61 79q-28 12 -94 16v41q117 -10 209 -10t209 10v-41q-60 -4 -83 -13.5t-23 -29.5q0 -16 14 -55l215 -591l225 585q16 42 16 58q0 26 -32 37q-24 8 -85 9v41q77 -8 152 -8q77 0 176 8v-41q-55 -6 -86 -20q-46 -20 -69 -81l-387 -1000
q-53 -137 -135 -189q-66 -42 -162 -42q-9 0 -29 1v103q75 0 115 14q99 32 154 163zM435 1129l201 301h227l-337 -301h-91z" />
    <glyph glyph-name="thorn" unicode="&#xfe;" horiz-adv-x="1068" vert-adv-y="2457" 
d="M356 842q89 143 244 143q168 0 277 -141q110 -141 110 -360q0 -216 -104 -358q-106 -144 -276 -144q-108 0 -176 62q-33 30 -75 96v-398q0 -52 12 -71q22 -34 134 -40v-41q-141 12 -228 12q-88 0 -229 -12v41q71 3 102 16q34 13 41 47q4 15 4 48v1436q0 61 -12 82
q-17 31 -69 36q-25 2 -64 2v36q163 15 309 54v-546zM582 928q-60 0 -110 -37t-75 -99q-43 -110 -43 -292q0 -461 235 -461q226 0 226 440q0 190 -45 306q-25 64 -75 104q-49 39 -113 39z" />
    <glyph glyph-name="ydieresis" unicode="&#xff;" horiz-adv-x="1022" vert-adv-y="2457" 
d="M479 33l-303 804q-23 63 -61 79q-28 12 -94 16v41q117 -10 209 -10t209 10v-41q-60 -4 -83 -13.5t-23 -29.5q0 -16 14 -55l215 -591l225 585q16 42 16 58q0 26 -32 37q-24 8 -85 9v41q77 -8 152 -8q77 0 176 8v-41q-55 -6 -86 -20q-46 -20 -69 -81l-387 -1000
q-53 -137 -135 -189q-66 -42 -162 -42q-9 0 -29 1v103q75 0 115 14q99 32 154 163zM358 1378q44 0 76 -32t32 -77q0 -46 -32 -78t-77 -32q-46 0 -78 32q-32 33 -32 77q0 47 32 78q33 32 79 32zM731 1378q44 0 76 -32t32 -77q0 -46 -32 -78t-77 -32q-46 0 -78 32
q-32 33 -32 77q0 47 32 78q33 32 79 32z" />
    <glyph glyph-name="Amacron" unicode="&#x100;" horiz-adv-x="1316" vert-adv-y="2457" 
d="M845 395h-478l-67 -192q-25 -70 -25 -97q0 -32 38 -49q23 -10 97 -13v-50q-118 11 -195 11q-78 0 -195 -11v50q93 6 125 28q37 25 71 116l468 1221l421 -1244q28 -83 80 -102q34 -13 110 -19v-50q-140 15 -249 15t-250 -15v50q79 6 106 22q25 15 25 39q0 28 -13 69z
M391 459h433l-199 627zM353 1558v104h659v-104h-659z" />
    <glyph glyph-name="amacron" unicode="&#x101;" horiz-adv-x="955" vert-adv-y="2457" 
d="M911 54v-54q-69 -14 -113 -14q-89 0 -128 63q-24 39 -31 112q-41 -74 -79 -109q-74 -70 -196 -70q-123 0 -202 71q-83 75 -83 192q0 184 233 281q132 55 303 77v122q0 103 -31 146q-44 60 -138 60q-80 0 -135 -43q-35 -29 -35 -78v-17q1 -17 1 -32q0 -89 -83 -89
q-68 0 -68 69q0 94 90 165q102 80 246 80q100 0 180 -43q99 -54 124 -155q13 -52 13 -140v-418q0 -97 15 -140t65 -43q18 0 52 7zM615 550q-140 -25 -230 -70q-140 -71 -140 -223q0 -89 48 -139q44 -47 122 -47q132 0 178 121q22 59 22 180v178zM152 1237v103h625v-103h-625
z" />
    <glyph glyph-name="Abreve" unicode="&#x102;" horiz-adv-x="1316" vert-adv-y="2457" 
d="M845 395h-478l-67 -192q-25 -70 -25 -97q0 -32 38 -49q23 -10 97 -13v-50q-118 11 -195 11q-78 0 -195 -11v50q93 6 125 28q37 25 71 116l468 1221l421 -1244q28 -83 80 -102q34 -13 110 -19v-50q-140 15 -249 15t-250 -15v50q79 6 106 22q25 15 25 39q0 28 -13 69z
M391 459h433l-199 627zM891 1760h70q-10 -75 -36 -129q-34 -66 -95 -106q-66 -42 -147 -42q-114 0 -192 78q-71 73 -86 199h69q63 -150 209 -150t208 150z" />
    <glyph glyph-name="abreve" unicode="&#x103;" horiz-adv-x="955" vert-adv-y="2457" 
d="M911 54v-54q-69 -14 -113 -14q-89 0 -128 63q-24 39 -31 112q-41 -74 -79 -109q-74 -70 -196 -70q-123 0 -202 71q-83 75 -83 192q0 184 233 281q132 55 303 77v122q0 103 -31 146q-44 60 -138 60q-80 0 -135 -43q-35 -29 -35 -78v-17q1 -17 1 -32q0 -89 -83 -89
q-68 0 -68 69q0 94 90 165q102 80 246 80q100 0 180 -43q99 -54 124 -155q13 -52 13 -140v-418q0 -97 15 -140t65 -43q18 0 52 7zM615 550q-140 -25 -230 -70q-140 -71 -140 -223q0 -89 48 -139q44 -47 122 -47q132 0 178 121q22 59 22 180v178zM677 1427h70
q-10 -79 -36 -137q-34 -71 -95 -113q-66 -44 -147 -44q-115 0 -192 83q-71 77 -86 211h69q63 -168 209 -168t208 168z" />
    <glyph glyph-name="Aogonek" unicode="&#x104;" horiz-adv-x="1317" vert-adv-y="2457" 
d="M1295 44v-48q-57 -9 -134 -57q-80 -49 -80 -110q0 -44 33 -70q33 -25 80 -25q38 0 103 18v-66q-91 -32 -160 -32q-77 0 -129 35q-67 45 -67 122q0 126 222 195q-76 3 -121 3q-105 0 -246 -15v50q79 6 106 22q25 15 25 39q0 28 -13 69l-69 221h-478l-67 -192
q-25 -70 -25 -97q0 -32 38 -49q23 -10 97 -13v-50q-118 11 -195 11q-78 0 -195 -11v50q93 6 125 28q37 25 71 116l468 1221l421 -1244q28 -83 80 -102q34 -13 110 -19zM391 459h433l-199 627z" />
    <glyph glyph-name="aogonek" unicode="&#x105;" horiz-adv-x="955" vert-adv-y="2457" 
d="M911 54v-54q-47 -19 -76 -49q-59 -59 -59 -118q0 -39 32 -64q31 -24 79 -24q25 0 67 11v-63q-72 -25 -126 -25q-73 0 -123 35q-63 45 -63 115q0 72 74 131q28 23 65 39q-58 3 -89 34q-43 42 -53 139q-40 -74 -79 -109q-75 -70 -196 -70q-123 0 -202 71q-83 74 -83 192
q0 185 233 281q133 55 303 77v122q0 104 -31 146q-44 60 -138 60q-80 0 -134 -43q-36 -29 -36 -78v-17q1 -18 1 -32q0 -89 -83 -89q-68 0 -68 70q0 93 90 164q102 80 246 80q100 0 180 -43q99 -54 124 -155q13 -52 13 -140v-418q0 -98 15 -140q15 -43 64 -43q19 0 53 7z
M615 550q-140 -25 -230 -70q-140 -71 -140 -223q0 -89 48 -139q44 -47 122 -47q132 0 178 121q22 59 22 180v178z" />
    <glyph glyph-name="Cacute" unicode="&#x106;" horiz-adv-x="1229" vert-adv-y="2457" 
d="M1027 460h74q-7 -156 -64 -265q-58 -108 -166 -167q-100 -54 -222 -54q-166 0 -298 98q-135 99 -199 296q-46 142 -46 312q0 308 145 511q73 103 190 156q96 44 214 44q188 0 320 -123l72 119h37v-403h-47q-84 341 -358 341q-204 0 -297 -182q-91 -177 -91 -456
q0 -263 83 -431q94 -191 302 -191q133 0 227 86q111 101 124 309zM518 1483l258 281h248l-403 -281h-103z" />
    <glyph glyph-name="cacute" unicode="&#x107;" horiz-adv-x="892" vert-adv-y="2457" 
d="M789 1009v-338h-46q-19 93 -48 147q-28 53 -79 86q-49 33 -109 33q-128 0 -188 -135q-56 -127 -56 -324q0 -432 238 -432q189 0 227 269h82q-13 -112 -57 -187q-86 -150 -269 -150q-180 0 -292 141q-107 135 -107 358q0 236 119 380q111 135 286 135q120 0 208 -87
l55 104h36zM378 1129l201 301h227l-337 -301h-91z" />
    <glyph glyph-name="Ccircumflex" unicode="&#x108;" horiz-adv-x="1229" vert-adv-y="2457" 
d="M1027 460h74q-7 -156 -64 -265q-58 -108 -166 -167q-100 -54 -222 -54q-166 0 -298 98q-135 99 -199 296q-46 142 -46 312q0 308 145 511q73 103 190 156q96 44 214 44q188 0 320 -123l72 119h37v-403h-47q-84 341 -358 341q-204 0 -297 -182q-91 -177 -91 -456
q0 -263 83 -431q94 -191 302 -191q133 0 227 86q111 101 124 309zM325 1485l292 279h112l292 -279h-101l-247 171l-246 -171h-102z" />
    <glyph glyph-name="ccircumflex" unicode="&#x109;" horiz-adv-x="892" vert-adv-y="2457" 
d="M789 1009v-338h-46q-19 93 -48 147q-28 53 -79 86q-49 33 -109 33q-128 0 -188 -135q-56 -127 -56 -324q0 -432 238 -432q189 0 227 269h82q-13 -112 -57 -187q-86 -150 -269 -150q-180 0 -292 141q-107 135 -107 358q0 236 119 380q111 135 286 135q120 0 208 -87
l55 104h36zM166 1130l269 299h98l269 -299h-97l-221 177l-221 -177h-97z" />
    <glyph glyph-name="Cdotaccent" unicode="&#x10a;" horiz-adv-x="1229" vert-adv-y="2457" 
d="M1027 460h74q-7 -156 -64 -265q-58 -108 -166 -167q-100 -54 -222 -54q-166 0 -298 98q-135 99 -199 296q-46 142 -46 312q0 308 145 511q73 103 190 156q96 44 214 44q188 0 320 -123l72 119h37v-403h-47q-84 341 -358 341q-204 0 -297 -182q-91 -177 -91 -456
q0 -263 83 -431q94 -191 302 -191q133 0 227 86q111 101 124 309zM668 1739q47 0 81 -34t34 -82t-34 -82t-82 -34t-82 34t-34 82q0 49 34 82q35 34 83 34z" />
    <glyph glyph-name="cdotaccent" unicode="&#x10b;" horiz-adv-x="892" vert-adv-y="2457" 
d="M789 1009v-338h-46q-19 93 -48 147q-28 53 -79 86q-49 33 -109 33q-128 0 -188 -135q-56 -127 -56 -324q0 -432 238 -432q189 0 227 269h82q-13 -112 -57 -187q-86 -150 -269 -150q-180 0 -292 141q-107 135 -107 358q0 236 119 380q111 135 286 135q120 0 208 -87
l55 104h36zM491 1378q44 0 76 -32t32 -77q0 -46 -32 -78t-77 -32q-46 0 -78 32q-32 33 -32 77q0 47 32 78q33 32 79 32z" />
    <glyph glyph-name="Ccaron" unicode="&#x10c;" horiz-adv-x="1229" vert-adv-y="2457" 
d="M1027 460h74q-7 -156 -64 -265q-58 -108 -166 -167q-100 -54 -222 -54q-166 0 -298 98q-135 99 -199 296q-46 142 -46 312q0 308 145 511q73 103 190 156q96 44 214 44q188 0 320 -123l72 119h37v-403h-47q-84 341 -358 341q-204 0 -297 -182q-91 -177 -91 -456
q0 -263 83 -431q94 -191 302 -191q133 0 227 86q111 101 124 309zM1011 1757l-290 -277h-116l-290 277h102l246 -171l247 171h101z" />
    <glyph glyph-name="ccaron" unicode="&#x10d;" horiz-adv-x="892" vert-adv-y="2457" 
d="M789 1009v-338h-46q-19 93 -48 147q-28 53 -79 86q-49 33 -109 33q-128 0 -188 -135q-56 -127 -56 -324q0 -432 238 -432q189 0 227 269h82q-13 -112 -57 -187q-86 -150 -269 -150q-180 0 -292 141q-107 135 -107 358q0 236 119 380q111 135 286 135q120 0 208 -87
l55 104h36zM807 1424l-269 -299h-99l-269 299h97l221 -177l221 177h98z" />
    <glyph glyph-name="Dcaron" unicode="&#x10e;" horiz-adv-x="1301" vert-adv-y="2457" 
d="M57 1315v50h502q186 0 294 -48q169 -76 267 -271q84 -166 84 -364q0 -227 -109 -409q-113 -190 -316 -247q-93 -26 -221 -26h-501v50q87 6 119 20q40 17 47 59q3 18 3 57v993q0 63 -12 85q-24 42 -157 51zM400 1302v-1136q0 -66 20 -84q25 -23 114 -23q229 0 337 115
q151 161 151 512q0 324 -134 488q-104 128 -325 128h-163zM934 1759l-290 -277h-116l-290 277h102l246 -171l247 171h101z" />
    <glyph glyph-name="dcaron" unicode="&#x10f;" horiz-adv-x="1226" vert-adv-y="2457" 
d="M1013 68v-36q-171 -21 -270 -53q-20 83 -28 164q-85 -168 -253 -168q-167 0 -273 141q-108 142 -108 361q0 215 103 357q105 145 270 145q107 0 172 -62q32 -30 74 -97v358q0 60 -12 82q-17 31 -69 36q-24 2 -64 2v36q163 15 309 54v-1180q0 -93 25 -116q23 -22 124 -24z
M473 922q-220 0 -220 -442q0 -186 44 -304q22 -62 73 -105q47 -39 110 -39q81 0 139 68q83 96 83 361q0 461 -229 461zM1049 992h-91q111 102 118 208l-8 1q-9 -2 -14 -2q-37 0 -61 17q-33 25 -33 74q0 46 29 72t75 26q108 0 108 -129q0 -75 -43 -156q-12 -22 -80 -111z" />
    <glyph glyph-name="Dcroat" unicode="&#x110;" horiz-adv-x="1301" vert-adv-y="2457" 
d="M57 1315v50h502q185 0 293 -48q170 -76 267 -270q84 -166 84 -363q0 -228 -109 -411q-113 -190 -316 -247q-93 -26 -220 -26h-501v50q87 6 119 20q40 17 47 59q3 19 3 57v494h-169v75h169v424q0 63 -12 85q-24 42 -157 51zM400 1302v-547h312v-75h-312v-514q0 -66 20 -84
q24 -23 113 -23q229 0 338 116q150 160 150 512q0 323 -134 487q-104 128 -324 128h-163z" />
    <glyph glyph-name="dcroat" unicode="&#x111;" horiz-adv-x="1050" vert-adv-y="2457" 
d="M1009 60v-35q-154 -13 -266 -38q-20 75 -28 156q-85 -168 -253 -168q-167 0 -273 141q-108 142 -108 361q0 215 103 357q105 145 270 145q107 0 172 -62q32 -30 74 -97v267h-241v75h241v24q0 56 -12 76q-18 29 -69 34q-24 2 -64 2v36q163 15 309 54v-226h140v-75h-140
v-893q0 -80 22 -106q20 -22 78 -26q3 0 32 -1q6 0 13 -1zM473 922q-220 0 -220 -442q0 -186 44 -304q22 -62 73 -105q47 -39 110 -39q81 0 139 68q83 96 83 361q0 461 -229 461z" />
    <glyph glyph-name="Emacron" unicode="&#x112;" horiz-adv-x="1113" vert-adv-y="2457" 
d="M1015 330l-47 -330h-903v50q87 7 119 20q40 17 47 59q3 19 3 57v993q0 63 -12 85q-24 42 -157 51v50h892l36 -308h-46q-36 138 -83 190q-49 55 -160 55h-296v-561h293q70 0 91 34q24 38 30 135h50v-402h-50q-4 92 -29 131t-103 39h-282v-494q0 -68 19 -89q29 -32 118 -32
h145q119 0 170 46q67 62 108 221h47zM226 1558v104h659v-104h-659z" />
    <glyph glyph-name="emacron" unicode="&#x113;" horiz-adv-x="939" vert-adv-y="2457" 
d="M776 315h81q-13 -117 -75 -201q-98 -134 -289 -134q-193 0 -299 134q-113 143 -113 372q0 224 113 366q108 135 288 135q140 0 239 -89q129 -117 134 -391h-608q5 -199 36 -285q62 -174 234 -174q149 0 217 129q31 56 42 138zM692 580q-17 354 -213 354q-198 0 -228 -354
h441zM169 1237v103h625v-103h-625z" />
    <glyph glyph-name="Ebreve" unicode="&#x114;" horiz-adv-x="1113" vert-adv-y="2457" 
d="M1015 330l-47 -330h-903v50q87 7 119 20q40 17 47 59q3 19 3 57v993q0 63 -12 85q-24 42 -157 51v50h892l36 -308h-46q-36 138 -83 190q-49 55 -160 55h-296v-561h293q70 0 91 34q24 38 30 135h50v-402h-50q-4 92 -29 131t-103 39h-282v-494q0 -68 19 -89q29 -32 118 -32
h145q119 0 170 46q67 62 108 221h47zM775 1760h70q-9 -74 -37 -129q-33 -67 -94 -106q-66 -42 -147 -42q-114 0 -192 78q-70 71 -86 199h70q62 -150 208 -150t208 150z" />
    <glyph glyph-name="ebreve" unicode="&#x115;" horiz-adv-x="939" vert-adv-y="2457" 
d="M776 315h81q-13 -117 -75 -201q-98 -134 -289 -134q-193 0 -299 134q-113 143 -113 372q0 224 113 366q108 135 288 135q140 0 239 -89q129 -117 134 -391h-608q5 -199 36 -285q62 -174 234 -174q149 0 217 129q31 56 42 138zM692 580q-17 354 -213 354q-198 0 -228 -354
h441zM691 1427h70q-10 -79 -37 -137q-33 -71 -94 -113q-66 -44 -147 -44q-115 0 -192 83q-71 77 -86 211h69q63 -168 209 -168t208 168z" />
    <glyph glyph-name="Edotaccent" unicode="&#x116;" horiz-adv-x="1113" vert-adv-y="2457" 
d="M1015 330l-47 -330h-903v50q87 7 119 20q40 17 47 59q3 19 3 57v993q0 63 -12 85q-24 42 -157 51v50h892l36 -308h-46q-36 138 -83 190q-49 55 -160 55h-296v-561h293q70 0 91 34q24 38 30 135h50v-402h-50q-4 92 -29 131t-103 39h-282v-494q0 -68 19 -89q29 -32 118 -32
h145q119 0 170 46q67 62 108 221h47zM569 1739q46 0 80 -34t34 -82t-34 -82t-82 -34t-82 34t-34 82q0 49 34 82q35 34 84 34z" />
    <glyph glyph-name="edotaccent" unicode="&#x117;" horiz-adv-x="939" vert-adv-y="2457" 
d="M776 315h81q-13 -117 -75 -201q-98 -134 -289 -134q-193 0 -299 134q-113 143 -113 372q0 224 113 366q108 135 288 135q140 0 239 -89q129 -117 134 -391h-608q5 -199 36 -285q62 -174 234 -174q149 0 217 129q31 56 42 138zM692 580q-17 354 -213 354q-198 0 -228 -354
h441zM486 1386q47 0 82 -34q34 -34 34 -83t-34 -83q-35 -35 -83 -35q-49 0 -83 35q-35 34 -35 82q0 50 35 84t84 34z" />
    <glyph glyph-name="Eogonek" unicode="&#x118;" horiz-adv-x="1113" vert-adv-y="2457" 
d="M1015 330l-47 -330q-215 -72 -215 -171q0 -44 33 -70q33 -25 80 -25q38 0 103 18v-66q-92 -32 -159 -32q-77 0 -130 35q-67 45 -67 122q0 122 203 189h-751v50q87 7 119 20q40 17 47 59q3 19 3 57v993q0 63 -12 85q-24 42 -157 51v50h892l36 -308h-46q-30 114 -62 164
q-32 49 -76 66q-38 15 -105 15h-296v-561h293q53 0 72 14q42 30 49 155h50v-402h-50q-3 74 -19 113q-23 57 -101 57h-294v-494q0 -68 19 -89q29 -32 118 -32h145q93 0 140 25q87 45 138 242h47z" />
    <glyph glyph-name="eogonek" unicode="&#x119;" horiz-adv-x="939" vert-adv-y="2457" 
d="M802 -235v-64q-68 -25 -124 -25q-74 0 -124 36q-63 44 -63 113q0 57 54 110q21 21 78 59q-75 -17 -130 -17q-192 0 -301 132q-111 133 -111 369q0 238 112 378q108 136 289 136q143 0 241 -87q130 -115 132 -398h-608q0 -183 36 -287q62 -175 234 -175q148 0 217 130
q31 56 42 139h81q-8 -72 -36 -135q-21 -49 -76 -115q-120 -143 -120 -218q0 -43 33 -69q30 -24 78 -24q27 0 66 12zM692 581q-16 358 -213 358q-198 0 -228 -358h441z" />
    <glyph glyph-name="Ecaron" unicode="&#x11a;" horiz-adv-x="1113" vert-adv-y="2457" 
d="M1015 330l-47 -330h-903v50q87 7 119 20q40 17 47 59q3 19 3 57v993q0 63 -12 85q-24 42 -157 51v50h892l36 -308h-46q-36 138 -83 190q-49 55 -160 55h-296v-561h293q70 0 91 34q24 38 30 135h50v-402h-50q-4 92 -29 131t-103 39h-282v-494q0 -68 19 -89q29 -32 118 -32
h145q119 0 170 46q67 62 108 221h47zM915 1759l-290 -277h-116l-290 277h102l246 -171l247 171h101z" />
    <glyph glyph-name="ecaron" unicode="&#x11b;" horiz-adv-x="939" vert-adv-y="2457" 
d="M776 315h81q-13 -117 -75 -201q-98 -134 -289 -134q-193 0 -299 134q-113 143 -113 372q0 224 113 366q108 135 288 135q140 0 239 -89q129 -117 134 -391h-608q5 -199 36 -285q62 -174 234 -174q149 0 217 129q31 56 42 138zM692 580q-17 354 -213 354q-198 0 -228 -354
h441zM802 1426l-269 -299h-99l-269 299h97l221 -177l221 177h98z" />
    <glyph glyph-name="Gcircumflex" unicode="&#x11c;" horiz-adv-x="1300" vert-adv-y="2457" 
d="M1098 1391v-407h-47q-34 116 -76 185q-45 73 -120 115q-79 44 -176 44q-153 0 -250 -103q-146 -153 -146 -536q0 -653 392 -653q130 0 275 78v346q0 40 -11 59q-22 35 -147 43v50q135 -12 232 -12t233 12v-50q-88 -7 -116 -22q-23 -12 -27 -40q-2 -9 -2 -44v-332
q-241 -147 -457 -147q-175 0 -309 98q-138 100 -201 290q-47 143 -47 324q0 315 147 504q151 195 410 195q181 0 323 -117l83 120h37zM309 1485l290 277h116l290 -277h-101l-247 171l-246 -171h-102z" />
    <glyph glyph-name="gcircumflex" unicode="&#x11d;" horiz-adv-x="1008" vert-adv-y="2457" 
d="M707 932h272v-82l-196 5q50 -77 50 -171q0 -163 -133 -251q-57 -38 -220 -79q-140 -35 -175 -55q-34 -19 -34 -49q0 -31 29 -46q25 -13 156 -22q230 -16 318 -51q84 -33 128 -106q31 -52 31 -117q0 -89 -58 -166q-59 -78 -177 -117q-95 -31 -209 -31q-172 0 -293 66
q-61 34 -98 91t-37 126q0 151 197 220q-43 18 -64 34q-44 34 -44 85q0 114 221 166q-79 24 -132 68q-104 87 -104 227q0 142 93 223q97 85 268 85q119 0 211 -53zM489 933q-98 0 -149 -69q-50 -69 -50 -184q0 -110 43 -177q50 -81 152 -81q101 0 150 79q43 70 43 180
q0 252 -189 252zM461 36q-147 0 -236 -48q-80 -43 -80 -127q0 -91 92 -144q104 -59 246 -59q148 0 241 55q83 50 83 145q0 90 -97 136q-88 42 -249 42zM186 1130l270 301h96l270 -301h-97l-221 177l-221 -177h-97z" />
    <glyph glyph-name="Gbreve" unicode="&#x11e;" horiz-adv-x="1300" vert-adv-y="2457" 
d="M1098 1391v-407h-47q-34 116 -76 185q-45 73 -120 115q-79 44 -176 44q-153 0 -250 -103q-146 -153 -146 -536q0 -653 392 -653q130 0 275 78v346q0 40 -11 59q-22 35 -147 43v50q135 -12 232 -12t233 12v-50q-88 -7 -116 -22q-23 -12 -27 -40q-2 -9 -2 -44v-332
q-241 -147 -457 -147q-175 0 -309 98q-138 100 -201 290q-47 143 -47 324q0 315 147 504q151 195 410 195q181 0 323 -117l83 120h37zM865 1760h70q-10 -75 -36 -129q-34 -66 -95 -106q-66 -42 -147 -42q-114 0 -192 78q-71 73 -86 199h69q63 -150 209 -150t208 150z" />
    <glyph glyph-name="gbreve" unicode="&#x11f;" horiz-adv-x="1008" vert-adv-y="2457" 
d="M707 932h272v-82l-196 5q50 -77 50 -171q0 -163 -133 -251q-57 -38 -220 -79q-140 -35 -175 -55q-34 -19 -34 -49q0 -31 29 -46q25 -13 156 -22q230 -16 318 -51q84 -33 128 -106q31 -52 31 -117q0 -89 -58 -166q-59 -78 -177 -117q-95 -31 -209 -31q-172 0 -293 66
q-61 34 -98 91t-37 126q0 151 197 220q-43 18 -64 34q-44 34 -44 85q0 114 221 166q-79 24 -132 68q-104 87 -104 227q0 142 93 223q97 85 268 85q119 0 211 -53zM489 933q-98 0 -149 -69q-50 -69 -50 -184q0 -110 43 -177q50 -81 152 -81q101 0 150 79q43 70 43 180
q0 252 -189 252zM461 36q-147 0 -236 -48q-80 -43 -80 -127q0 -91 92 -144q104 -59 246 -59q148 0 241 55q83 50 83 145q0 90 -97 136q-88 42 -249 42zM712 1427h70q-10 -79 -36 -137q-34 -71 -95 -113q-66 -44 -147 -44q-115 0 -192 83q-71 77 -86 211h69q63 -168 209 -168
t208 168z" />
    <glyph glyph-name="Gdotaccent" unicode="&#x120;" horiz-adv-x="1300" vert-adv-y="2457" 
d="M1098 1391v-407h-47q-34 116 -76 185q-45 73 -120 115q-79 44 -176 44q-153 0 -250 -103q-146 -153 -146 -536q0 -653 392 -653q130 0 275 78v346q0 40 -11 59q-22 35 -147 43v50q135 -12 232 -12t233 12v-50q-88 -7 -116 -22q-23 -12 -27 -40q-2 -9 -2 -44v-332
q-241 -147 -457 -147q-175 0 -309 98q-138 100 -201 290q-47 143 -47 324q0 315 147 504q151 195 410 195q181 0 323 -117l83 120h37zM659 1739q46 0 80 -34t34 -82t-34 -82t-82 -34t-82 34t-34 82q0 49 34 82q35 34 84 34z" />
    <glyph glyph-name="gdotaccent" unicode="&#x121;" horiz-adv-x="1008" vert-adv-y="2457" 
d="M707 932h272v-82l-196 5q50 -77 50 -171q0 -163 -133 -251q-57 -38 -220 -79q-140 -35 -175 -55q-34 -19 -34 -49q0 -31 29 -46q25 -13 156 -22q230 -16 318 -51q84 -33 128 -106q31 -52 31 -117q0 -89 -58 -166q-59 -78 -177 -117q-95 -31 -209 -31q-172 0 -293 66
q-61 34 -98 91t-37 126q0 151 197 220q-43 18 -64 34q-44 34 -44 85q0 114 221 166q-79 24 -132 68q-104 87 -104 227q0 142 93 223q97 85 268 85q119 0 211 -53zM489 933q-98 0 -149 -69q-50 -69 -50 -184q0 -110 43 -177q50 -81 152 -81q101 0 150 79q43 70 43 180
q0 252 -189 252zM461 36q-147 0 -236 -48q-80 -43 -80 -127q0 -91 92 -144q104 -59 246 -59q148 0 241 55q83 50 83 145q0 90 -97 136q-88 42 -249 42zM507 1378q44 0 76 -32t32 -77q0 -46 -32 -78t-77 -32q-46 0 -78 32t-32 77q0 47 32 78q33 32 79 32z" />
    <glyph glyph-name="Gcommaaccent" unicode="&#x122;" horiz-adv-x="1300" vert-adv-y="2457" 
d="M1098 1391v-407h-47q-34 116 -76 185q-45 73 -120 115q-79 44 -176 44q-153 0 -250 -103q-146 -153 -146 -536q0 -653 392 -653q130 0 275 78v346q0 40 -11 59q-22 35 -147 43v50q135 -12 232 -12t233 12v-50q-88 -7 -116 -22q-23 -12 -27 -40q-2 -9 -2 -44v-332
q-241 -147 -457 -147q-175 0 -309 98q-138 100 -201 290q-47 143 -47 324q0 315 147 504q151 195 410 195q181 0 323 -117l83 120h37zM650 -493h-91q100 92 118 192l-8 1q-9 -2 -14 -2q-37 0 -61 17q-33 25 -33 74q0 46 29 72q30 26 75 26q54 0 83 -37q25 -32 25 -83
q0 -121 -123 -260z" />
    <glyph glyph-name="gcommaaccent" unicode="&#x123;" horiz-adv-x="1008" vert-adv-y="2457" 
d="M707 932h272v-82l-196 5q50 -77 50 -171q0 -163 -133 -251q-57 -38 -220 -79q-140 -35 -175 -55q-34 -19 -34 -49q0 -31 29 -46q25 -13 156 -22q230 -16 318 -51q84 -33 128 -106q31 -52 31 -117q0 -89 -58 -166q-59 -78 -177 -117q-95 -31 -209 -31q-172 0 -293 66
q-61 34 -98 91t-37 126q0 151 197 220q-43 18 -64 34q-44 34 -44 85q0 114 221 166q-79 24 -132 68q-104 87 -104 227q0 142 93 223q97 85 268 85q119 0 211 -53zM489 933q-98 0 -149 -69q-50 -69 -50 -184q0 -110 43 -177q50 -81 152 -81q101 0 150 79q43 70 43 180
q0 252 -189 252zM461 36q-147 0 -236 -48q-80 -43 -80 -127q0 -91 92 -144q104 -59 246 -59q148 0 241 55q83 50 83 145q0 90 -97 136q-88 42 -249 42zM514 1506h92q-101 -92 -118 -192l8 -1q7 2 14 2q37 0 60 -17q34 -25 34 -74q0 -46 -29 -72q-30 -26 -75 -26
q-54 0 -83 37q-25 32 -25 83q0 122 122 260z" />
    <glyph glyph-name="Hcircumflex" unicode="&#x124;" horiz-adv-x="1388" vert-adv-y="2457" 
d="M406 744h575v442q0 62 -12 84q-20 35 -85 44q-25 4 -72 7v50q155 -15 257 -15q101 0 253 15v-50q-87 -6 -119 -20q-40 -17 -47 -59q-3 -18 -3 -56v-1006q0 -63 12 -85q20 -35 85 -44q22 -3 72 -7v-50q-159 15 -254 15q-93 0 -256 -15v50q89 7 119 20q39 17 47 59
q3 19 3 57v501h-575v-501q0 -63 12 -85q20 -35 85 -44q21 -3 72 -7v-50q-163 15 -257 15t-253 -15v50q89 7 119 20q40 17 47 59q3 19 3 57v1006q0 63 -12 84q-20 35 -85 44q-24 4 -72 7v50q152 -15 253 -15q102 0 257 15v-50q-88 -6 -120 -20q-39 -17 -46 -59q-3 -18 -3 -56
v-442zM345 1485l291 277h115l291 -277h-102l-247 171l-246 -171h-102z" />
    <glyph glyph-name="hcircumflex" unicode="&#x125;" horiz-adv-x="1106" vert-adv-y="2457" 
d="M46 1298v36q159 15 309 54v-539q97 137 260 137q167 0 250 -127q50 -75 50 -222v-492q0 -51 12 -70q22 -35 135 -40v-41q-134 12 -224 12q-92 0 -223 -12v40q63 2 95 17q31 15 38 46q3 15 3 45v502q0 122 -31 172q-47 77 -151 77q-110 0 -172 -83q-42 -55 -42 -174v-494
q0 -48 11 -66q23 -37 122 -42v-40q-130 12 -221 12q-89 0 -223 -12v41q72 3 103 15q33 13 41 48q3 15 3 47v1033q0 61 -12 82q-17 31 -69 36q-24 2 -64 2zM-100 1485l290 277h116l290 -277h-101l-247 171l-246 -171h-102z" />
    <glyph glyph-name="Hbar" unicode="&#x126;" horiz-adv-x="1388" vert-adv-y="2457" 
d="M981 1068v118q0 63 -12 84q-20 35 -85 45q-22 3 -72 6v50q155 -15 257 -15q101 0 253 15v-50q-88 -6 -119 -20q-40 -17 -47 -59q-3 -18 -3 -56v-118h169v-75h-169v-813q0 -63 12 -85q20 -35 85 -44q22 -3 72 -7v-50q-159 15 -253 15t-257 -15v50q89 7 119 20q40 17 47 59
q3 19 3 57v501h-575v-501q0 -63 12 -85q20 -35 85 -44q22 -3 72 -7v-50q-163 15 -257 15t-253 -15v50q89 7 119 20q40 17 47 59q3 19 3 57v813h-169v75h169v118q0 63 -12 84q-20 35 -85 45q-23 3 -72 6v50q152 -15 253 -15q102 0 257 15v-50q-89 -6 -119 -20
q-40 -17 -47 -59q-3 -18 -3 -56v-118h575zM981 993h-575v-249h575v249z" />
    <glyph glyph-name="hbar" unicode="&#x127;" horiz-adv-x="1106" vert-adv-y="2457" 
d="M355 1162h241v-75h-241v-238q98 137 259 137q166 0 250 -126q50 -75 50 -223v-492q0 -51 12 -70q22 -35 135 -40v-41q-134 12 -224 12q-92 0 -222 -12v40q62 2 95 17q30 14 37 46q3 14 3 45v502q0 122 -31 172q-47 77 -151 77q-109 0 -172 -83q-41 -55 -41 -174v-494
q0 -48 11 -66q23 -38 122 -42v-40q-131 12 -221 12q-89 0 -223 -12v41q71 3 102 15q34 13 42 48q3 15 3 47v942h-147v75h147v27q0 64 -17 83q-23 25 -128 26v36q163 15 309 54v-226z" />
    <glyph glyph-name="Itilde" unicode="&#x128;" horiz-adv-x="642" vert-adv-y="2457" 
d="M577 44v-50q-163 15 -256 15t-256 -15v50q89 7 119 20q40 17 47 59q3 19 3 57v1005q0 64 -12 85q-20 35 -85 44q-24 4 -72 7v50q155 -15 256 -15q100 0 256 15v-50q-87 -6 -119 -20q-39 -17 -47 -59q-3 -20 -3 -57v-1005q0 -63 12 -85q20 -35 85 -44q22 -3 72 -7z
M46 1522l-60 15q29 106 69 147q54 55 133 55q52 0 96 -24q24 -13 95 -62q48 -33 94 -33q63 0 95 45q15 21 29 62l59 -13q-18 -103 -69 -152q-60 -58 -134 -58q-44 0 -84 18q-28 12 -93 58q-60 43 -106 43q-82 0 -124 -101z" />
    <glyph glyph-name="itilde" unicode="&#x129;" horiz-adv-x="571" vert-adv-y="2457" 
d="M371 1003v-858q0 -51 12 -70q22 -35 135 -40v-41q-145 12 -229 12t-229 -12v41q72 3 103 15q33 13 41 48q3 15 3 47v648q0 61 -12 82q-17 30 -69 35q-23 2 -64 3v35q163 16 309 55zM25 1181l-57 16q31 109 65 146q51 55 126 55q65 0 140 -55q53 -39 67 -47q31 -17 64 -17
q60 0 90 45q14 21 28 62l56 -13q-19 -104 -65 -152q-57 -58 -128 -58q-42 0 -80 18q-27 13 -88 58q-57 43 -101 43q-77 0 -117 -101z" />
    <glyph glyph-name="Imacron" unicode="&#x12a;" horiz-adv-x="643" vert-adv-y="2457" 
d="M577 44v-50q-163 15 -256 15t-256 -15v50q89 7 119 20q40 17 47 59q3 19 3 57v1005q0 64 -12 85q-20 35 -85 44q-24 4 -72 7v50q155 -15 256 -15q100 0 256 15v-50q-87 -6 -119 -20q-39 -17 -47 -59q-3 -20 -3 -57v-1005q0 -63 12 -85q20 -35 85 -44q22 -3 72 -7z
M46 1558v104h550v-104h-550z" />
    <glyph glyph-name="imacron" unicode="&#x12b;" horiz-adv-x="571" vert-adv-y="2457" 
d="M371 1003v-858q0 -51 12 -70q22 -35 135 -40v-41q-145 12 -229 12t-229 -12v41q72 3 103 15q33 13 41 48q3 15 3 47v648q0 61 -12 82q-17 30 -69 35q-23 2 -64 3v35q163 16 309 55zM27 1237v103h475v-103h-475z" />
    <glyph glyph-name="Ibreve" unicode="&#x12c;" horiz-adv-x="642" vert-adv-y="2457" 
d="M577 44v-50q-163 15 -256 15t-256 -15v50q89 7 119 20q40 17 47 59q3 19 3 57v1005q0 64 -12 85q-20 35 -85 44q-24 4 -72 7v50q155 -15 256 -15q100 0 256 15v-50q-87 -6 -119 -20q-39 -17 -47 -59q-3 -20 -3 -57v-1005q0 -63 12 -85q20 -35 85 -44q22 -3 72 -7z
M529 1760h70q-10 -75 -36 -129q-34 -66 -95 -106q-66 -42 -147 -42q-114 0 -192 78q-71 73 -86 199h69q63 -150 209 -150t208 150z" />
    <glyph glyph-name="ibreve" unicode="&#x12d;" horiz-adv-x="571" vert-adv-y="2457" 
d="M371 1003v-858q0 -51 12 -70q22 -35 135 -40v-41q-141 12 -229 12t-229 -12v41q71 3 103 15q33 13 41 48q3 14 3 47v648q0 61 -12 82q-17 31 -68 35q-24 2 -65 3v35q159 15 309 55zM473 1427h69q-9 -82 -32 -137q-29 -69 -92 -113q-65 -44 -147 -44q-115 0 -191 83
q-64 69 -80 211h69q55 -168 202 -168q92 0 150 67q28 32 52 101z" />
    <glyph glyph-name="Iogonek" unicode="&#x12e;" horiz-adv-x="642" vert-adv-y="2457" 
d="M577 -5q-66 -15 -119 -50q-80 -52 -80 -116q0 -44 33 -70q33 -25 80 -25q39 0 104 18v-66q-93 -32 -160 -32q-77 0 -130 35q-67 45 -67 122t77 129q47 32 140 65q-106 4 -145 4q-81 0 -245 -15v50q89 7 119 20q40 17 47 59q3 19 3 57v1005q0 64 -12 85q-20 35 -85 44
q-24 4 -72 7v50q155 -15 256 -15q100 0 256 15v-50q-87 -6 -119 -20q-40 -17 -47 -59q-3 -20 -3 -57v-1005q0 -63 12 -85q20 -35 85 -44q22 -3 72 -7v-49z" />
    <glyph glyph-name="iogonek" unicode="&#x12f;" horiz-adv-x="571" vert-adv-y="2457" 
d="M518 -6q-44 -7 -83 -43q-52 -49 -52 -103q0 -45 32 -71q31 -24 78 -24q28 0 67 12v-64q-69 -25 -124 -25q-75 0 -125 36q-62 44 -62 116q0 109 177 173q-95 5 -143 5q-76 0 -222 -12v41q72 3 102 15q34 13 41 48q4 15 4 47v648q0 61 -12 82q-18 30 -69 35q-23 2 -64 3v35
q163 16 309 55v-858q0 -51 12 -70q22 -35 134 -40v-41zM283 1365q47 0 79 -32q33 -33 33 -79q0 -47 -33 -80q-32 -32 -80 -32q-45 0 -78 33q-32 32 -32 79t32 79q33 32 79 32z" />
    <glyph glyph-name="Idotaccent" unicode="&#x130;" horiz-adv-x="642" vert-adv-y="2457" 
d="M577 44v-50q-163 15 -256 15t-256 -15v50q89 7 119 20q40 17 47 59q3 19 3 57v1005q0 64 -12 85q-20 35 -85 44q-24 4 -72 7v50q155 -15 256 -15q100 0 256 15v-50q-87 -6 -119 -20q-40 -17 -47 -59q-3 -20 -3 -57v-1005q0 -63 12 -85q20 -35 85 -44q22 -3 72 -7z
M322 1739q46 0 80 -34t34 -82t-34 -82t-82 -34t-82 34t-34 82q0 49 34 82q35 34 84 34z" />
    <glyph glyph-name="dotlessi" unicode="&#x131;" horiz-adv-x="571" vert-adv-y="2457" 
d="M372 1003v-858q0 -51 12 -70q22 -35 134 -40v-41q-145 12 -228 12q-84 0 -229 -12v41q72 3 102 15q34 13 41 48q4 15 4 47v648q0 61 -12 82q-18 30 -69 35q-23 2 -64 3v35q163 16 309 55z" />
    <glyph glyph-name="IJ" unicode="&#x132;" horiz-adv-x="1281" vert-adv-y="2457" 
d="M577 44v-50q-163 15 -256 15t-256 -15v50q89 7 119 20q40 17 47 59q3 19 3 57v1005q0 64 -12 85q-20 35 -85 44q-24 4 -72 7v50q155 -15 256 -15q100 0 256 15v-50q-87 -6 -119 -20q-40 -17 -47 -59q-3 -20 -3 -57v-1005q0 -63 12 -85q20 -35 85 -44q22 -3 72 -7z
M629 -142v61q31 -2 47 -2q89 0 141 40q43 34 54 108q6 36 6 109v1011q0 66 -12 86q-22 41 -157 50v50q155 -15 256 -15t256 15v-50q-83 -6 -119 -20q-41 -17 -47 -59q-3 -19 -3 -57v-940q0 -159 -39 -231q-50 -93 -158 -132q-76 -27 -163 -27q-18 0 -62 3z" />
    <glyph glyph-name="ij" unicode="&#x133;" horiz-adv-x="1127" vert-adv-y="2457" 
d="M372 1003v-858q0 -51 12 -70q22 -35 134 -40v-41q-145 12 -228 12q-84 0 -229 -12v41q72 3 102 15q34 13 41 48q4 15 4 47v648q0 61 -12 82q-18 30 -69 35q-23 2 -64 3v35q163 16 309 55zM283 1365q47 0 79 -32q33 -33 33 -79q0 -47 -33 -80q-32 -32 -80 -32
q-45 0 -78 33q-32 32 -32 79t32 79q33 32 79 32zM937 1003v-975q0 -158 -48 -252q-65 -128 -221 -172q-63 -18 -139 -19v53q99 16 159 64q57 46 74 119q11 48 11 121v851q0 61 -12 82q-18 30 -69 35q-23 2 -64 3v35q162 16 309 55zM847 1365q47 0 79 -32q33 -33 33 -80
q0 -46 -33 -79q-32 -32 -80 -32q-45 0 -78 33q-32 32 -32 79t32 79q33 32 79 32z" />
    <glyph glyph-name="Jcircumflex" unicode="&#x134;" horiz-adv-x="638" vert-adv-y="2457" 
d="M-12 -142v61q27 -2 44 -2q94 0 144 41q43 35 55 107q5 34 5 109v1011q0 66 -11 86q-23 41 -158 50v50q155 -15 256 -15t256 15v-50q-83 -6 -119 -20q-41 -17 -47 -59q-3 -19 -3 -57v-940q0 -159 -39 -231q-88 -159 -317 -159q-26 0 -66 3zM-32 1485l290 277h116l290 -277
h-101l-247 171l-246 -171h-102z" />
    <glyph glyph-name="jcircumflex" unicode="&#x135;" horiz-adv-x="556" vert-adv-y="2457" 
d="M365 1003v-975q0 -158 -47 -252q-66 -128 -222 -172q-62 -18 -138 -19v53q98 16 158 64q58 46 74 119q11 48 11 121v851q0 61 -12 82q-17 30 -69 35q-23 2 -64 3v35q162 16 309 55zM-51 1130l269 299h99l269 -299h-98l-221 177l-221 -177h-97z" />
    <glyph glyph-name="Kcommaaccent" unicode="&#x136;" horiz-adv-x="1305" vert-adv-y="2457" 
d="M402 715l466 512q28 31 28 51q0 24 -36 34q-17 5 -90 9v50q114 -9 210 -9q95 0 210 9v-50q-76 -4 -115 -16q-65 -20 -131 -92l-352 -389l455 -649q60 -87 120 -111q41 -16 113 -20v-50q-154 16 -267 16q-112 0 -267 -16v50q88 7 112 17q29 13 29 36q0 20 -35 73l-368 547
l-84 -90v-447q0 -63 13 -85q23 -41 152 -51v-50q-136 15 -241 15q-104 0 -258 -15v50q87 6 119 20q39 17 46 59q4 21 4 57v1005q0 63 -12 85q-19 35 -85 44q-26 4 -72 7v50q157 -15 258 -15q102 0 247 15v-50q-86 -5 -119 -20q-40 -17 -47 -59q-3 -18 -3 -57v-470zM647 -493
h-91q100 92 118 192l-8 1q-9 -2 -14 -2q-37 0 -61 17q-33 25 -33 74q0 46 29 72q30 26 75 26q54 0 83 -37q25 -32 25 -83q0 -121 -123 -260z" />
    <glyph glyph-name="kcommaaccent" unicode="&#x137;" horiz-adv-x="1094" vert-adv-y="2457" 
d="M353 476l329 349q35 36 35 59q0 42 -112 48v41q109 -10 194 -10q84 0 202 10v-41q-81 -7 -117 -24.5t-89 -72.5l-196 -206l290 -483q44 -73 82 -91q34 -17 102 -20v-41q-87 7 -139 7q-54 0 -136 -7l-304 536l-143 -147v-238q0 -50 12 -70q22 -35 135 -40v-41
q-142 12 -228 12q-85 0 -226 -12v41q72 3 102 15q34 13 41 48q4 15 4 47v1033q0 61 -12 82q-17 31 -69 36q-25 2 -64 2v36q160 16 307 54v-912zM544 -493h-91q100 92 118 192l-8 1q-9 -2 -14 -2q-37 0 -61 17q-33 25 -33 74q0 46 29 72q30 26 75 26q54 0 83 -37
q25 -32 25 -83q0 -121 -123 -260z" />
    <glyph glyph-name="kgreenlandic" unicode="&#x138;" horiz-adv-x="1094" vert-adv-y="2457" 
d="M353 476l329 349q35 36 35 59q0 42 -112 48v41q109 -10 194 -10q84 0 202 10v-41q-81 -7 -117 -24.5t-89 -72.5l-196 -206l290 -483q44 -73 82 -91q34 -17 102 -20v-41q-87 7 -139 7q-54 0 -136 -7l-304 536l-143 -147v-238q0 -50 12 -70q22 -35 135 -40v-41
q-142 12 -228 12q-85 0 -226 -12v41q72 3 102 15q34 13 41 48q4 15 4 47v649q0 60 -12 82q-18 31 -69 35q-22 2 -64 3v35q161 17 307 54v-527z" />
    <glyph glyph-name="Lacute" unicode="&#x139;" horiz-adv-x="1035" vert-adv-y="2457" 
d="M1015 330l-47 -330h-903v50q87 7 119 20q40 17 47 59q3 19 3 57v999q0 64 -12 85q-20 35 -85 44q-24 4 -72 7v50q155 -15 256 -15q100 0 256 15v-50q-87 -6 -119 -20q-40 -17 -47 -59q-3 -20 -3 -57v-995q0 -68 19 -89q29 -32 118 -32h145q93 0 140 24q87 45 138 237h47z
M223 1483l258 281h248l-403 -281h-103z" />
    <glyph glyph-name="lacute" unicode="&#x13a;" horiz-adv-x="559" vert-adv-y="2457" 
d="M368 1388v-1243q0 -51 12 -70q22 -35 134 -40v-41q-145 12 -228 12q-84 0 -229 -12v41q72 3 102 15q34 13 41 48q4 15 4 47v1033q0 61 -12 82q-17 31 -69 36q-25 2 -64 2v36q160 15 309 54zM143 1483l216 281h242l-356 -281h-102z" />
    <glyph glyph-name="Lcommaaccent" unicode="&#x13b;" horiz-adv-x="1035" vert-adv-y="2457" 
d="M1015 330l-47 -330h-903v50q87 7 119 20q40 17 47 59q3 19 3 57v999q0 64 -12 85q-20 35 -85 44q-24 4 -72 7v50q155 -15 256 -15q100 0 256 15v-50q-87 -6 -119 -20q-40 -17 -47 -59q-3 -20 -3 -57v-995q0 -68 19 -89q29 -32 118 -32h145q93 0 140 24q87 45 138 237h47z
M518 -493h-91q100 92 118 192l-8 1q-9 -2 -14 -2q-37 0 -61 17q-33 25 -33 74q0 46 29 72q30 26 75 26q54 0 83 -37q25 -32 25 -83q0 -121 -123 -260z" />
    <glyph glyph-name="lcommaaccent" unicode="&#x13c;" horiz-adv-x="559" vert-adv-y="2457" 
d="M368 1388v-1243q0 -51 12 -70q22 -35 134 -40v-41q-145 12 -228 12q-84 0 -229 -12v41q72 3 102 15q34 13 41 48q4 15 4 47v1033q0 61 -12 82q-17 31 -69 36q-25 2 -64 2v36q160 15 309 54zM275 -493h-91q100 92 118 192l-8 1q-9 -2 -14 -2q-37 0 -61 17q-33 25 -33 74
q0 46 29 72q30 26 75 26q54 0 83 -37q25 -32 25 -83q0 -121 -123 -260z" />
    <glyph glyph-name="Lcaron" unicode="&#x13d;" horiz-adv-x="1035" vert-adv-y="2457" 
d="M1015 330l-47 -330h-903v50q87 7 119 20q40 17 47 59q3 19 3 57v999q0 64 -12 85q-20 35 -85 44q-24 4 -72 7v50q155 -15 256 -15q100 0 256 15v-50q-87 -6 -119 -20q-40 -17 -47 -59q-3 -20 -3 -57v-995q0 -68 19 -89q29 -32 118 -32h145q93 0 140 24q87 45 138 237h47z
M762 991h-91q112 102 118 209l-8 1q-9 -3 -14 -3q-37 0 -61 17q-33 25 -33 76q0 47 29 74q30 26 75 26q108 0 108 -133q0 -128 -123 -267z" />
    <glyph glyph-name="lcaron" unicode="&#x13e;" horiz-adv-x="729" vert-adv-y="2457" 
d="M368 1388v-1243q0 -51 12 -70q22 -35 134 -40v-41q-145 12 -228 12q-84 0 -229 -12v41q72 3 102 15q34 13 41 48q4 15 4 47v1033q0 61 -12 82q-17 31 -69 36q-25 2 -64 2v36q160 15 309 54zM552 992h-91q111 102 118 208l-8 1q-9 -2 -14 -2q-37 0 -61 17q-33 25 -33 74
q0 46 29 72t75 26q108 0 108 -129q0 -75 -43 -156q-12 -22 -80 -111z" />
    <glyph glyph-name="Ldot" unicode="&#x13f;" horiz-adv-x="1035" vert-adv-y="2457" 
d="M1015 330l-47 -330h-903v50q87 7 119 20q40 17 47 59q3 19 3 57v999q0 64 -12 85q-20 35 -85 44q-24 4 -72 7v50q155 -15 256 -15q100 0 256 15v-50q-87 -6 -119 -20q-40 -17 -47 -59q-3 -20 -3 -57v-995q0 -68 19 -89q29 -32 118 -32h145q93 0 140 24q87 45 138 237h47z
M836 822q47 0 81 -34t34 -82q0 -49 -34 -83t-82 -34q-49 0 -83 34q-34 35 -34 82q0 49 34 83q35 34 84 34z" />
    <glyph glyph-name="ldot" unicode="&#x140;" horiz-adv-x="783" vert-adv-y="2457" 
d="M355 1388v-1243q0 -51 12 -70q22 -35 134 -40v-41q-145 12 -228 12q-84 0 -229 -12v41q72 3 102 15q34 13 41 48q4 15 4 47v1033q0 61 -12 82q-17 31 -69 36q-25 2 -64 2v36q160 15 309 54zM668 822q47 0 81 -34t34 -82q0 -49 -34 -83t-82 -34q-49 0 -83 34
q-34 35 -34 82q0 49 34 83q35 34 84 34z" />
    <glyph glyph-name="Lslash" unicode="&#x141;" horiz-adv-x="1035" vert-adv-y="2457" 
d="M234 606l-169 -102v86l169 101v494q0 64 -12 85q-20 35 -85 44q-25 4 -72 7v50q155 -15 256 -15t256 15v-50q-87 -6 -119 -20q-39 -17 -47 -59q-3 -20 -3 -57v-414l288 168v-85l-288 -169v-495q0 -68 19 -89q29 -32 118 -32h145q93 0 140 24q87 45 138 237h47l-47 -330
h-903v50q87 7 119 20q40 17 47 59q3 19 3 57v420z" />
    <glyph glyph-name="lslash" unicode="&#x142;" horiz-adv-x="559" vert-adv-y="2457" 
d="M368 1388v-579l146 87v-86l-146 -87v-578q0 -51 12 -70q22 -35 134 -40v-41q-141 12 -228 12q-88 0 -229 -12v41q71 3 102 15q34 13 42 48q3 15 3 47v501l-146 -87v85l146 88v446q0 61 -12 82q-17 31 -69 36q-25 2 -64 2v36q163 15 309 54z" />
    <glyph glyph-name="Nacute" unicode="&#x143;" horiz-adv-x="1377" vert-adv-y="2457" 
d="M1149 -41h-30q-82 130 -163 250l-50 76l-604 908v-1013q0 -65 12 -86q18 -33 85 -43q23 -3 72 -7v-50q-146 10 -207 10q-65 0 -199 -10v50q86 7 119 20q41 17 47 59q3 21 3 57v1081q-33 35 -74 46q-35 10 -97 14v50q92 -7 172 -7q76 0 150 7l695 -1037v851q0 66 -11 86
q-23 41 -158 50v50q139 -10 208 -10q71 0 199 10v-50q-83 -6 -119 -20q-41 -17 -47 -59q-3 -19 -3 -57v-1226zM574 1483l258 281h248l-403 -281h-103z" />
    <glyph glyph-name="nacute" unicode="&#x144;" horiz-adv-x="1122" vert-adv-y="2457" 
d="M62 907v35q162 23 271 61q15 -67 21 -178q108 161 276 161q167 0 250 -126q50 -75 50 -223v-492q0 -51 12 -70q22 -35 134 -40v-41q-133 12 -224 12t-221 -12v40q62 2 94 17q31 15 38 46q3 14 3 45v502q0 122 -31 172q-46 77 -151 77q-109 0 -172 -83q-41 -55 -41 -174
v-494q0 -48 11 -66q23 -37 121 -42v-40q-130 12 -220 12q-89 0 -223 -12v41q72 3 102 15q34 13 42 48q3 15 3 47v634q-1 57 -4 73q-6 45 -60 51q-19 2 -81 4zM451 1129l201 301h227l-337 -301h-91z" />
    <glyph glyph-name="Ncommaaccent" unicode="&#x145;" horiz-adv-x="1377" vert-adv-y="2457" 
d="M1149 -41h-30q-82 130 -163 250l-50 76l-604 908v-1013q0 -65 12 -86q18 -33 85 -43q23 -3 72 -7v-50q-146 10 -207 10q-65 0 -199 -10v50q86 7 119 20q41 17 47 59q3 21 3 57v1081q-33 35 -74 46q-35 10 -97 14v50q92 -7 172 -7q76 0 150 7l695 -1037v851q0 66 -11 86
q-23 41 -158 50v50q139 -10 208 -10q71 0 199 10v-50q-83 -6 -119 -20q-41 -17 -47 -59q-3 -19 -3 -57v-1226zM676 -493h-91q100 92 118 192l-8 1q-9 -2 -14 -2q-37 0 -61 17q-33 25 -33 74q0 46 29 72q30 26 75 26q54 0 83 -37q25 -32 25 -83q0 -121 -123 -260z" />
    <glyph glyph-name="ncommaaccent" unicode="&#x146;" horiz-adv-x="1122" vert-adv-y="2457" 
d="M62 907v35q162 23 271 61q15 -67 21 -178q108 161 276 161q167 0 250 -126q50 -75 50 -223v-492q0 -51 12 -70q22 -35 134 -40v-41q-133 12 -224 12t-221 -12v40q62 2 94 17q31 15 38 46q3 14 3 45v502q0 122 -31 172q-46 77 -151 77q-109 0 -172 -83q-41 -55 -41 -174
v-494q0 -48 11 -66q23 -37 121 -42v-40q-130 12 -220 12q-89 0 -223 -12v41q72 3 102 15q34 13 42 48q3 15 3 47v634q-1 57 -4 73q-6 45 -60 51q-19 2 -81 4zM546 -493h-91q100 92 118 192l-8 1q-9 -2 -14 -2q-37 0 -61 17q-33 25 -33 74q0 46 29 72q30 26 75 26
q54 0 83 -37q25 -32 25 -83q0 -121 -123 -260z" />
    <glyph glyph-name="Ncaron" unicode="&#x147;" horiz-adv-x="1377" vert-adv-y="2457" 
d="M1149 -41h-30q-82 130 -163 250l-50 76l-604 908v-1013q0 -65 12 -86q18 -33 85 -43q23 -3 72 -7v-50q-146 10 -207 10q-65 0 -199 -10v50q86 7 119 20q41 17 47 59q3 21 3 57v1081q-33 35 -74 46q-35 10 -97 14v50q92 -7 172 -7q76 0 150 7l695 -1037v851q0 66 -11 86
q-23 41 -158 50v50q139 -10 208 -10q71 0 199 10v-50q-83 -6 -119 -20q-41 -17 -47 -59q-3 -19 -3 -57v-1226zM1031 1759l-290 -277h-116l-290 277h102l246 -171l247 171h101z" />
    <glyph glyph-name="ncaron" unicode="&#x148;" horiz-adv-x="1122" vert-adv-y="2457" 
d="M62 907v35q162 23 271 61q15 -67 21 -178q108 161 276 161q167 0 250 -126q50 -75 50 -223v-492q0 -51 12 -70q22 -35 134 -40v-41q-133 12 -224 12t-221 -12v40q62 2 94 17q31 15 38 46q3 14 3 45v502q0 122 -31 172q-46 77 -151 77q-109 0 -172 -83q-41 -55 -41 -174
v-494q0 -48 11 -66q23 -37 121 -42v-40q-130 12 -220 12q-89 0 -223 -12v41q72 3 102 15q34 13 42 48q3 15 3 47v634q-1 57 -4 73q-6 45 -60 51q-19 2 -81 4zM872 1426l-269 -299h-99l-269 299h97l221 -177l221 177h98z" />
    <glyph glyph-name="napostrophe" unicode="&#x149;" horiz-adv-x="1473" vert-adv-y="2457" 
d="M212 923h-98q135 135 154 265h-8q-9 -3 -16 -3q-38 0 -64 19q-35 26 -35 78q0 46 32 76t80 30q57 0 89 -39q27 -34 27 -90q0 -144 -161 -336zM412 907v35q162 23 271 61q16 -67 21 -178q108 161 277 161q167 0 250 -126q50 -76 50 -223v-492q0 -51 12 -70q22 -35 135 -40
v-41q-134 12 -224 12q-92 0 -222 -12v40q62 2 95 17q30 15 37 46q3 14 3 45v502q0 122 -31 172q-46 77 -151 77q-110 0 -172 -83q-42 -55 -42 -174v-494q0 -48 11 -66q23 -37 122 -42v-40q-130 12 -220 12t-224 -12v41q72 3 103 15q33 13 41 48q3 15 3 47v634q-1 57 -3 73
q-7 45 -60 51q-20 2 -82 4z" />
    <glyph glyph-name="Eng" unicode="&#x14a;" horiz-adv-x="1277" vert-adv-y="2457" 
d="M65 1280v50q139 16 298 69q20 -92 24 -235q127 227 329 227q114 0 202 -67q103 -79 131 -228q16 -86 16 -197v-924q0 -159 -38 -231q-48 -91 -159 -131q-76 -28 -162 -28q-18 0 -63 4v60q28 -2 46 -2q92 0 142 40q43 34 54 108q6 36 6 109v1004q0 173 -37 243
q-58 109 -184 109q-78 0 -143 -44q-73 -51 -102 -148q-18 -59 -18 -171v-717q0 -63 12 -85q20 -35 85 -44q22 -3 72 -7v-50q-163 15 -256 15q-92 0 -255 -15v50q89 7 119 20q40 17 47 59q3 20 3 57v919q-1 79 -4 103q-6 63 -73 72q-29 4 -92 6z" />
    <glyph glyph-name="eng" unicode="&#x14b;" horiz-adv-x="1121" vert-adv-y="2457" 
d="M62 907v35q162 23 271 61q15 -67 21 -178q108 161 276 161q167 0 250 -126q50 -75 50 -223v-609q0 -162 -48 -252q-100 -188 -359 -191v53q100 16 160 63q83 66 83 242v701q0 122 -31 172q-46 77 -151 77q-109 0 -172 -83q-41 -55 -41 -174v-494q0 -48 11 -66
q23 -37 121 -42v-40q-130 12 -220 12q-89 0 -223 -12v41q72 3 102 15q34 13 42 48q3 15 3 47v634q0 86 -13 104q-12 18 -72 22q-20 1 -60 2z" />
    <glyph glyph-name="Omacron" unicode="&#x14c;" horiz-adv-x="1295" vert-adv-y="2457" 
d="M646 1391q186 0 326 -114q126 -104 184 -295q41 -136 41 -307q0 -280 -127 -478q-72 -112 -190 -171q-102 -52 -229 -52q-183 0 -321 109q-132 103 -192 306q-40 135 -40 297q0 289 125 478q70 108 181 168q110 59 242 59zM650 1334q-141 0 -236 -119
q-131 -163 -131 -526q0 -255 72 -434q39 -99 115 -162q76 -62 182 -62q145 0 236 121q71 96 103 275q21 118 21 254q0 264 -69 433q-91 220 -293 220zM318 1558v104h659v-104h-659z" />
    <glyph glyph-name="omacron" unicode="&#x14d;" horiz-adv-x="960" vert-adv-y="2457" 
d="M488 992q183 0 288 -148q103 -146 103 -363q0 -208 -106 -353q-110 -150 -294 -150t-294 150q-104 142 -104 355q0 224 113 365q114 144 294 144zM484 939q-85 0 -144 -73q-87 -108 -87 -383q0 -452 225 -452q92 0 151 80q78 107 78 367q0 461 -223 461zM167 1237v103
h625v-103h-625z" />
    <glyph glyph-name="Obreve" unicode="&#x14e;" horiz-adv-x="1295" vert-adv-y="2457" 
d="M646 1391q186 0 326 -114q126 -104 184 -295q41 -136 41 -307q0 -280 -127 -478q-72 -112 -190 -171q-102 -52 -229 -52q-183 0 -321 109q-132 103 -192 306q-40 135 -40 297q0 289 125 478q70 108 181 168q110 59 242 59zM650 1334q-141 0 -236 -119
q-131 -163 -131 -526q0 -255 72 -434q39 -99 115 -162q76 -62 182 -62q145 0 236 121q71 96 103 275q21 118 21 254q0 264 -69 433q-91 220 -293 220zM856 1760h69q-9 -75 -36 -129q-33 -66 -95 -106q-65 -42 -147 -42q-114 0 -191 78q-72 73 -87 199h70q62 -150 208 -150
t209 150z" />
    <glyph glyph-name="obreve" unicode="&#x14f;" horiz-adv-x="960" vert-adv-y="2457" 
d="M488 992q183 0 288 -148q103 -146 103 -363q0 -208 -106 -353q-110 -150 -294 -150t-294 150q-104 142 -104 355q0 224 113 365q114 144 294 144zM484 939q-85 0 -144 -73q-87 -108 -87 -383q0 -452 225 -452q92 0 151 80q78 107 78 367q0 461 -223 461zM688 1427h70
q-9 -79 -36 -137q-34 -71 -95 -113q-66 -44 -147 -44q-115 0 -192 83q-71 77 -86 211h70q62 -168 208 -168t208 168z" />
    <glyph glyph-name="Ohungarumlaut" unicode="&#x150;" horiz-adv-x="1295" vert-adv-y="2457" 
d="M646 1391q186 0 326 -114q126 -104 184 -295q41 -136 41 -307q0 -280 -127 -478q-72 -112 -190 -171q-102 -52 -229 -52q-183 0 -321 109q-132 103 -192 306q-40 135 -40 297q0 289 125 478q70 108 181 168q110 59 242 59zM650 1334q-141 0 -236 -119
q-131 -163 -131 -526q0 -255 72 -434q39 -99 115 -162q76 -62 182 -62q145 0 236 121q71 96 103 275q21 118 21 254q0 264 -69 433q-91 220 -293 220zM415 1483l221 281h195l-322 -281h-94zM736 1483l222 281h197l-325 -281h-94z" />
    <glyph glyph-name="ohungarumlaut" unicode="&#x151;" horiz-adv-x="960" vert-adv-y="2457" 
d="M488 992q183 0 288 -148q103 -146 103 -363q0 -208 -106 -353q-110 -150 -294 -150t-294 150q-104 142 -104 355q0 224 113 365q114 144 294 144zM484 939q-85 0 -144 -73q-87 -108 -87 -383q0 -452 225 -452q92 0 151 80q78 107 78 367q0 461 -223 461zM279 1129
l174 301h177l-268 -301h-83zM561 1129l176 301h177l-271 -301h-82z" />
    <glyph glyph-name="OE" unicode="&#x152;" horiz-adv-x="1883" vert-adv-y="2457" 
d="M1013 1158v207h723l36 -308h-46q-36 140 -83 191q-48 54 -160 54h-314v-561h311q53 0 72 14q42 30 49 155h50v-402h-50q-5 93 -29 131q-25 39 -103 39h-300v-494q0 -67 21 -89q31 -32 128 -32h151q93 0 140 25q87 45 138 242h47l-47 -330h-734v206q-131 -229 -375 -229
q-172 0 -307 107q-129 102 -190 297q-43 140 -43 307q0 282 124 474q69 106 178 167q107 59 232 59q250 0 381 -230zM648 1330q-144 0 -241 -122q-127 -160 -127 -522q0 -262 73 -435q40 -94 116 -154q77 -62 183 -62q144 0 234 117q72 94 105 268q22 118 22 258
q0 264 -68 429q-92 223 -297 223z" />
    <glyph glyph-name="oe" unicode="&#x153;" horiz-adv-x="1564" vert-adv-y="2457" 
d="M1401 315h82q-14 -116 -76 -200q-98 -134 -288 -134q-202 0 -334 171q-122 -170 -307 -170q-182 0 -293 148q-104 139 -104 351q0 220 113 362q113 143 295 143q180 0 298 -168q33 45 74 78q109 90 243 90q142 0 241 -89q134 -120 136 -413h-614q4 -176 35 -262
q63 -173 236 -173q151 0 220 128q31 55 43 138zM484 933q-85 0 -144 -72q-87 -107 -87 -378q0 -448 225 -448q229 0 229 443q0 455 -223 455zM1317 561q-4 130 -28 210q-50 167 -188 167q-150 0 -205 -201q-18 -64 -28 -176h449z" />
    <glyph glyph-name="Racute" unicode="&#x154;" horiz-adv-x="1221" vert-adv-y="2457" 
d="M406 649v-469q0 -64 12 -85q20 -35 85 -44q22 -3 72 -7v-50q-158 15 -253 15q-94 0 -257 -15v50q89 7 119 20q40 17 47 59q3 19 3 57v999q0 63 -12 85q-24 42 -157 51v50h549q183 0 283 -66q71 -47 113 -127q42 -79 42 -166q0 -131 -88 -228q-76 -83 -247 -118
q48 -13 86 -41q46 -35 89 -134l141 -323q37 -85 78 -104q27 -12 89 -14v-50q-82 6 -135 6q-52 0 -135 -6q-28 59 -57 126l-157 366q-31 71 -58 103q-50 60 -174 60h-78zM408 712h171q139 0 211 65q88 81 88 235q0 151 -86 229q-68 61 -202 61h-182v-590zM419 1483l258 281
h248l-403 -281h-103z" />
    <glyph glyph-name="racute" unicode="&#x155;" horiz-adv-x="776" vert-adv-y="2457" 
d="M62 916v35q156 15 270 48q14 -95 19 -193q23 60 63 105q71 81 176 81q84 0 134 -53q44 -47 44 -113q0 -43 -22 -69q-23 -30 -64 -30q-35 0 -59 19t-24 50q0 9 7 43q2 9 2 17q0 22 -18 36t-44 14q-94 0 -144 -124q-31 -78 -31 -208v-429q0 -51 12 -70q22 -35 134 -40v-41
q-141 12 -228 12q-88 0 -229 -12v41q70 3 102 15q34 13 41 48q4 15 4 47v637q-1 61 -3 77q-5 47 -61 53q-24 2 -81 4zM332 1129l201 301h227l-337 -301h-91z" />
    <glyph glyph-name="Rcommaaccent" unicode="&#x156;" horiz-adv-x="1221" vert-adv-y="2457" 
d="M406 649v-469q0 -64 12 -85q20 -35 85 -44q22 -3 72 -7v-50q-158 15 -253 15q-94 0 -257 -15v50q89 7 119 20q40 17 47 59q3 19 3 57v999q0 63 -12 85q-24 42 -157 51v50h549q183 0 283 -66q71 -47 113 -127q42 -79 42 -166q0 -131 -88 -228q-76 -83 -247 -118
q48 -13 86 -41q46 -35 89 -134l141 -323q37 -85 78 -104q27 -12 89 -14v-50q-82 6 -135 6q-52 0 -135 -6q-28 59 -57 126l-157 366q-31 71 -58 103q-50 60 -174 60h-78zM408 712h171q139 0 211 65q88 81 88 235q0 151 -86 229q-68 61 -202 61h-182v-590zM632 -493h-91
q100 92 118 192l-8 1q-9 -2 -14 -2q-37 0 -61 17q-33 25 -33 74q0 46 29 72q30 26 75 26q54 0 83 -37q25 -32 25 -83q0 -121 -123 -260z" />
    <glyph glyph-name="rcommaaccent" unicode="&#x157;" horiz-adv-x="776" vert-adv-y="2457" 
d="M62 916v35q156 15 270 48q14 -95 19 -193q23 60 63 105q71 81 176 81q84 0 134 -53q44 -47 44 -113q0 -43 -22 -69q-23 -30 -64 -30q-35 0 -59 19t-24 50q0 9 7 43q2 9 2 17q0 22 -18 36t-44 14q-94 0 -144 -124q-31 -78 -31 -208v-429q0 -51 12 -70q22 -35 134 -40v-41
q-141 12 -228 12q-88 0 -229 -12v41q70 3 102 15q34 13 41 48q4 15 4 47v637q-1 61 -3 77q-5 47 -61 53q-24 2 -81 4zM278 -493h-91q100 92 118 192l-8 1q-9 -2 -14 -2q-37 0 -61 17q-33 25 -33 74q0 46 29 72q30 26 75 26q54 0 83 -37q25 -32 25 -83q0 -121 -123 -260z" />
    <glyph glyph-name="Rcaron" unicode="&#x158;" horiz-adv-x="1221" vert-adv-y="2457" 
d="M406 649v-469q0 -64 12 -85q20 -35 85 -44q22 -3 72 -7v-50q-158 15 -253 15q-94 0 -257 -15v50q89 7 119 20q40 17 47 59q3 19 3 57v999q0 63 -12 85q-24 42 -157 51v50h549q183 0 283 -66q71 -47 113 -127q42 -79 42 -166q0 -131 -88 -228q-76 -83 -247 -118
q48 -13 86 -41q46 -35 89 -134l141 -323q37 -85 78 -104q27 -12 89 -14v-50q-82 6 -135 6q-52 0 -135 -6q-28 59 -57 126l-157 366q-31 71 -58 103q-50 60 -174 60h-78zM408 712h171q139 0 211 65q88 81 88 235q0 151 -86 229q-68 61 -202 61h-182v-590zM903 1759l-290 -277
h-116l-290 277h102l246 -171l247 171h101z" />
    <glyph glyph-name="rcaron" unicode="&#x159;" horiz-adv-x="776" vert-adv-y="2457" 
d="M62 916v35q156 15 270 48q14 -95 19 -193q23 60 63 105q71 81 176 81q84 0 134 -53q44 -47 44 -113q0 -43 -22 -69q-23 -30 -64 -30q-35 0 -59 19t-24 50q0 9 7 43q2 9 2 17q0 22 -18 36t-44 14q-94 0 -144 -124q-31 -78 -31 -208v-429q0 -51 12 -70q22 -35 134 -40v-41
q-141 12 -228 12q-88 0 -229 -12v41q70 3 102 15q34 13 41 48q4 15 4 47v637q-1 61 -3 77q-5 47 -61 53q-24 2 -81 4zM741 1426l-269 -299h-99l-269 299h97l221 -177l221 177h98z" />
    <glyph glyph-name="Sacute" unicode="&#x15a;" horiz-adv-x="1064" vert-adv-y="2457" 
d="M119 413h48q61 -367 361 -367q131 0 209 81q74 77 74 188q0 124 -92 193q-46 35 -196 112q-230 117 -288 172q-94 87 -94 232q0 165 112 264q107 96 278 96q155 0 267 -106l61 114h37v-377h-48q-25 109 -67 178q-78 129 -234 129q-115 0 -188 -77q-70 -73 -70 -173
q0 -116 116 -188q48 -29 200 -106q166 -85 233 -135q124 -94 124 -270q0 -175 -118 -285q-113 -106 -291 -106q-184 0 -323 118l-74 -131h-37v444zM409 1483l258 281h248l-403 -281h-103z" />
    <glyph glyph-name="sacute" unicode="&#x15b;" horiz-adv-x="873" vert-adv-y="2457" 
d="M109 -24v342l45 1q17 -87 45 -143q30 -60 90 -96q59 -36 131 -36q94 0 156 57q56 53 56 127q0 75 -66 119q-37 25 -153 78q-123 56 -152 71q-139 72 -139 216q0 124 86 197q90 76 222 76q110 0 210 -65l34 84h36v-318h-46q-27 241 -215 241q-89 0 -145 -56
q-49 -48 -49 -113q0 -59 43 -99q29 -27 130 -72q24 -10 132 -57q101 -44 148 -91q62 -60 62 -163q0 -121 -84 -204q-93 -90 -245 -90q-135 0 -247 85l-49 -91h-36zM327 1129l201 301h227l-337 -301h-91z" />
    <glyph glyph-name="Scircumflex" unicode="&#x15c;" horiz-adv-x="1063" vert-adv-y="2457" 
d="M119 413h48q61 -367 361 -367q131 0 209 81q74 77 74 188q0 124 -92 193q-46 35 -196 112q-230 117 -288 172q-94 87 -94 232q0 165 112 264q107 96 278 96q155 0 267 -106l61 114h37v-377h-48q-25 109 -67 178q-78 129 -234 129q-115 0 -188 -77q-70 -73 -70 -173
q0 -116 116 -189q50 -31 200 -105q165 -82 234 -135q123 -94 123 -270q0 -175 -118 -285q-113 -106 -291 -106q-184 0 -323 118l-74 -131h-37v444zM189 1485l293 279h112l292 -279h-102l-246 171l-247 -171h-102z" />
    <glyph glyph-name="scircumflex" unicode="&#x15d;" horiz-adv-x="872" vert-adv-y="2457" 
d="M109 -24v342l45 1q17 -87 45 -143q30 -60 90 -96q59 -36 131 -36q94 0 156 57q56 53 56 127q0 75 -66 119q-37 25 -153 78q-123 56 -152 71q-139 72 -139 216q0 124 86 197q90 76 222 76q110 0 210 -65l34 84h36v-318h-46q-27 241 -215 241q-89 0 -145 -56
q-49 -48 -49 -113q0 -59 43 -99q29 -27 130 -72q24 -10 132 -57q101 -44 148 -91q62 -60 62 -163q0 -121 -84 -204q-93 -90 -245 -90q-135 0 -247 85l-49 -91h-36zM125 1130l271 301h95l271 -301h-98l-220 177l-221 -177h-98z" />
    <glyph glyph-name="Scedilla" unicode="&#x15e;" horiz-adv-x="1063" vert-adv-y="2457" 
d="M575 -18l-52 -101q76 -6 111 -26q69 -39 69 -121q0 -73 -58 -119q-52 -42 -131 -42q-73 0 -163 32v68q68 -18 106 -18q44 0 72 19q38 26 38 72q0 57 -59 78q-29 10 -101 12l79 149q-82 13 -134 35q-57 25 -122 80l-74 -131h-37v444h48q61 -367 361 -367q131 0 209 81
q74 77 74 188q0 124 -92 193q-46 35 -196 112q-230 117 -288 172q-94 87 -94 232q0 165 112 264q107 96 278 96q155 0 267 -106l61 114h37v-377h-48q-26 109 -67 178q-78 129 -234 129q-115 0 -188 -77q-70 -73 -70 -174q0 -116 116 -187q47 -29 200 -107q168 -85 233 -135
q124 -93 124 -270q0 -140 -77 -240q-106 -138 -310 -150z" />
    <glyph glyph-name="scedilla" unicode="&#x15f;" horiz-adv-x="872" vert-adv-y="2457" 
d="M477 -17l-54 -104q74 -7 108 -26q66 -37 66 -112q0 -71 -58 -114q-50 -38 -130 -38q-73 0 -154 33v61q69 -19 106 -19q43 0 69 18q35 25 35 69q0 54 -58 75q-31 11 -96 14l78 144q-72 14 -115 33q-36 16 -80 49l-49 -90h-36v342h45q17 -86 45 -143q30 -59 90 -96
q58 -36 131 -36q95 0 156 57q56 53 56 127q0 75 -66 120q-37 24 -153 77q-123 56 -152 71q-139 73 -139 217q0 124 86 197q90 76 222 76q110 0 210 -65l34 84h36v-318h-46q-26 241 -215 241q-89 0 -145 -56q-49 -48 -49 -113q0 -59 43 -99q29 -27 130 -72q23 -10 132 -58
q100 -43 148 -90q62 -60 62 -163q0 -96 -56 -171q-78 -106 -237 -122z" />
    <glyph glyph-name="Scaron" unicode="&#x160;" horiz-adv-x="1063" vert-adv-y="2457" 
d="M119 413h48q61 -367 361 -367q131 0 209 81q74 77 74 188q0 124 -92 193q-46 35 -196 112q-230 117 -288 172q-94 87 -94 232q0 165 112 264q107 96 278 96q155 0 267 -106l61 114h37v-377h-48q-25 109 -67 178q-78 129 -234 129q-115 0 -188 -77q-70 -73 -70 -173
q0 -116 116 -188q48 -29 200 -106q166 -85 233 -135q124 -94 124 -270q0 -175 -118 -285q-113 -106 -291 -106q-184 0 -323 118l-74 -131h-37v444zM885 1757l-290 -277h-116l-290 277h102l246 -171l247 171h101z" />
    <glyph glyph-name="scaron" unicode="&#x161;" horiz-adv-x="872" vert-adv-y="2457" 
d="M109 -24v342l45 1q17 -87 45 -143q30 -60 90 -96q59 -36 131 -36q94 0 156 57q56 53 56 127q0 75 -66 119q-37 25 -153 78q-123 56 -152 71q-139 72 -139 216q0 124 86 197q90 76 222 76q110 0 210 -65l34 84h36v-318h-46q-27 241 -215 241q-89 0 -145 -56
q-49 -48 -49 -113q0 -59 43 -99q29 -27 130 -72q24 -10 132 -57q101 -44 148 -91q62 -60 62 -163q0 -121 -84 -204q-93 -90 -245 -90q-135 0 -247 85l-49 -91h-36zM755 1424l-269 -299h-99l-269 299h97l221 -177l221 177h98z" />
    <glyph glyph-name="Tcommaaccent" unicode="&#x162;" horiz-adv-x="1083" vert-adv-y="2457" 
d="M625 1302v-1122q0 -66 11 -86q19 -33 86 -43q24 -3 72 -7v-50q-158 15 -256 15t-256 -15v50q87 7 119 20q41 17 47 59q3 20 3 57v1122h-110q-128 0 -183 -80q-34 -50 -70 -169h-50l55 312h896l57 -312h-49q-33 121 -67 171q-33 49 -80 65q-35 13 -96 13h-129zM528 -493
h-91q100 92 118 192l-8 1q-9 -2 -14 -2q-37 0 -61 17q-33 25 -33 74q0 46 29 72q30 26 75 26q54 0 83 -37q25 -32 25 -83q0 -121 -123 -260z" />
    <glyph glyph-name="tcommaaccent" unicode="&#x163;" horiz-adv-x="634" vert-adv-y="2457" 
d="M609 105v-61q-104 -62 -200 -62q-151 0 -202 115q-25 57 -25 184v38l9 573h-133v63q56 4 90 21q113 55 155 283h53l-1 -292h237v-75h-238l-1 -596q0 -123 19 -168q27 -66 103 -66q50 0 134 43zM349 -493h-91q100 92 118 192l-8 1q-9 -2 -14 -2q-37 0 -61 17
q-33 25 -33 74q0 46 29 72q30 26 75 26q54 0 83 -37q25 -32 25 -83q0 -121 -123 -260z" />
    <glyph glyph-name="Tcaron" unicode="&#x164;" horiz-adv-x="1083" vert-adv-y="2457" 
d="M625 1302v-1122q0 -66 11 -86q19 -33 86 -43q24 -3 72 -7v-50q-158 15 -256 15t-256 -15v50q87 7 119 20q41 17 47 59q3 20 3 57v1122h-110q-128 0 -183 -80q-34 -50 -70 -169h-50l55 312h896l57 -312h-49q-33 121 -67 171q-33 49 -80 65q-35 13 -96 13h-129zM890 1759
l-290 -277h-116l-290 277h102l246 -171l247 171h101z" />
    <glyph glyph-name="tcaron" unicode="&#x165;" horiz-adv-x="718" vert-adv-y="2457" 
d="M609 105v-61q-104 -62 -200 -62q-151 0 -202 115q-25 57 -25 184v38l9 573h-133v63q56 4 90 21q113 55 155 283h53l-1 -292h237v-75h-238l-1 -596q0 -123 19 -168q27 -66 103 -66q50 0 134 43zM541 1074h-91q111 102 118 208l-8 1q-9 -2 -14 -2q-37 0 -61 17
q-33 25 -33 74q0 46 29 72t75 26q108 0 108 -129q0 -75 -43 -156q-12 -22 -80 -111z" />
    <glyph glyph-name="Tbar" unicode="&#x166;" horiz-adv-x="1083" vert-adv-y="2457" 
d="M625 872h290v-75h-290v-617q0 -66 11 -86q19 -33 86 -43q24 -3 72 -7v-50q-158 15 -256 15t-256 -15v50q87 7 119 20q41 17 47 59q3 20 3 57v617h-290v75h290v430h-110q-73 0 -114 -19q-64 -30 -106 -132q-14 -35 -33 -98h-50l55 312h896l57 -312h-49q-33 120 -69 171
q-34 49 -78 65q-34 13 -96 13h-129v-430z" />
    <glyph glyph-name="tbar" unicode="&#x167;" horiz-adv-x="633" vert-adv-y="2457" 
d="M188 723l3 169h-133v63q56 4 90 21q113 55 155 283h53l-1 -292h237v-75h-238v-169h238v-76h-238v-351q0 -126 17 -168q27 -66 105 -66q49 0 133 43v-61q-102 -62 -200 -62q-150 0 -202 115q-25 57 -25 179v43l5 328h-129v76h130z" />
    <glyph glyph-name="Utilde" unicode="&#x168;" horiz-adv-x="1361" vert-adv-y="2457" 
d="M900 1321v50q139 -10 208 -10q70 0 199 10v-50q-88 -6 -120 -20q-39 -17 -46 -59q-3 -18 -3 -57v-749q0 -128 -24 -197q-47 -134 -170 -202q-109 -60 -264 -60q-232 0 -360 139q-70 75 -87 171q-10 57 -10 133v765q0 64 -12 85q-20 35 -85 44q-24 4 -72 7v50
q155 -15 256 -15t256 15v-50q-87 -6 -119 -20q-40 -17 -47 -59q-3 -20 -3 -57v-782q0 -122 24 -177q38 -86 130 -126q72 -32 169 -32q142 0 233 65q81 56 104 162q12 54 12 131v759q0 63 -12 85q-20 35 -85 44q-25 4 -72 7zM406 1522l-61 15q29 106 69 147q54 55 133 55
q52 0 97 -24q24 -13 95 -62q47 -33 94 -33q62 0 94 45q15 21 29 62l60 -13q-19 -103 -70 -152q-60 -58 -134 -58q-44 0 -84 18q-28 12 -93 58q-60 43 -106 43q-82 0 -123 -101z" />
    <glyph glyph-name="utilde" unicode="&#x169;" horiz-adv-x="1103" vert-adv-y="2457" 
d="M32 913v35q159 15 309 55v-684q0 -123 33 -174q47 -70 151 -70q117 0 174 88q38 58 38 184v446q0 60 -12 82q-17 31 -68 35q-25 3 -65 3v35q159 15 309 55v-833q0 -77 38 -91q24 -8 113 -10v-36q-163 -16 -282 -54l-3 44q-7 78 -9 143q-40 -76 -84 -114q-79 -69 -196 -69
q-166 0 -249 115q-52 74 -52 225v470q0 60 -12 82q-17 31 -69 35q-25 3 -64 3zM285 1181l-57 16q29 108 65 146q50 55 126 55q65 0 140 -55q52 -39 67 -47q31 -17 64 -17q60 0 89 45q13 20 29 62l56 -13q-19 -104 -66 -152q-57 -58 -128 -58q-42 0 -79 18q-27 12 -89 59
q-57 42 -100 42q-77 0 -117 -101z" />
    <glyph glyph-name="Umacron" unicode="&#x16a;" horiz-adv-x="1361" vert-adv-y="2457" 
d="M900 1321v50q139 -10 208 -10q70 0 199 10v-50q-88 -6 -120 -20q-39 -17 -46 -59q-3 -18 -3 -57v-749q0 -128 -24 -197q-47 -134 -170 -202q-109 -60 -264 -60q-232 0 -360 139q-70 75 -87 171q-10 57 -10 133v765q0 64 -12 85q-20 35 -85 44q-24 4 -72 7v50
q155 -15 256 -15t256 15v-50q-87 -6 -119 -20q-40 -17 -47 -59q-3 -20 -3 -57v-782q0 -122 24 -177q38 -86 130 -126q72 -32 169 -32q142 0 233 65q81 56 104 162q12 54 12 131v759q0 63 -12 85q-20 35 -85 44q-25 4 -72 7zM392 1558v104h659v-104h-659z" />
    <glyph glyph-name="umacron" unicode="&#x16b;" horiz-adv-x="1103" vert-adv-y="2457" 
d="M32 913v35q159 15 309 55v-684q0 -123 33 -174q47 -70 151 -70q117 0 174 88q38 58 38 184v446q0 60 -12 82q-17 31 -68 35q-25 3 -65 3v35q159 15 309 55v-833q0 -77 38 -91q24 -8 113 -10v-36q-163 -16 -282 -54q-9 69 -12 187q-40 -76 -84 -114q-79 -69 -196 -69
q-166 0 -249 115q-52 74 -52 225v470q0 60 -12 82q-17 31 -69 35q-25 3 -64 3zM225 1237v103h625v-103h-625z" />
    <glyph glyph-name="Ubreve" unicode="&#x16c;" horiz-adv-x="1361" vert-adv-y="2457" 
d="M900 1321v50q139 -10 208 -10q70 0 199 10v-50q-88 -6 -120 -20q-39 -17 -46 -59q-3 -18 -3 -57v-749q0 -128 -24 -197q-47 -134 -170 -202q-109 -60 -264 -60q-232 0 -360 139q-70 75 -87 171q-10 57 -10 133v765q0 64 -12 85q-20 35 -85 44q-24 4 -72 7v50
q155 -15 256 -15t256 15v-50q-87 -6 -119 -20q-40 -17 -47 -59q-3 -20 -3 -57v-782q0 -122 24 -177q38 -86 130 -126q72 -32 169 -32q142 0 233 65q81 56 104 162q12 54 12 131v759q0 63 -12 85q-20 35 -85 44q-25 4 -72 7zM889 1760h69q-9 -75 -36 -129q-33 -66 -95 -106
q-65 -42 -147 -42q-114 0 -191 78q-72 73 -86 199h69q63 -150 208 -150q146 0 209 150z" />
    <glyph glyph-name="ubreve" unicode="&#x16d;" horiz-adv-x="1103" vert-adv-y="2457" 
d="M32 913v35q159 15 309 55v-684q0 -123 33 -174q47 -70 151 -70q117 0 174 88q38 58 38 184v446q0 60 -12 82q-17 31 -68 35q-25 3 -65 3v35q159 15 309 55v-833q0 -77 38 -91q24 -8 113 -10v-36q-163 -16 -282 -54q-10 127 -12 187q-40 -76 -84 -114q-79 -69 -196 -69
q-166 0 -249 115q-52 74 -52 225v470q0 60 -12 82q-17 31 -69 35q-25 3 -64 3zM756 1427h69q-8 -79 -36 -137q-33 -71 -95 -113q-65 -44 -147 -44q-114 0 -191 83q-71 76 -86 211h69q62 -168 208 -168t209 168z" />
    <glyph glyph-name="Uring" unicode="&#x16e;" horiz-adv-x="1361" vert-adv-y="2457" 
d="M900 1321v50q139 -10 208 -10q70 0 199 10v-50q-88 -6 -120 -20q-39 -17 -46 -59q-3 -18 -3 -57v-749q0 -128 -24 -197q-47 -134 -170 -202q-109 -60 -264 -60q-232 0 -360 139q-70 75 -87 171q-10 57 -10 133v765q0 64 -12 85q-20 35 -85 44q-24 4 -72 7v50
q155 -15 256 -15t256 15v-50q-87 -6 -119 -20q-40 -17 -47 -59q-3 -20 -3 -57v-782q0 -122 24 -177q38 -86 130 -126q72 -32 169 -32q142 0 233 65q81 56 104 162q12 54 12 131v759q0 63 -12 85q-20 35 -85 44q-25 4 -72 7zM737 1799q68 0 119 -50q50 -50 50 -121t-50 -121
t-121 -50t-122 50q-50 50 -50 121q0 72 50 121q52 50 124 50zM736 1727q-43 0 -72 -29t-29 -70t29 -70t71 -29q41 0 70 29t29 70q0 42 -29 70q-30 29 -69 29z" />
    <glyph glyph-name="uring" unicode="&#x16f;" horiz-adv-x="1103" vert-adv-y="2457" 
d="M32 913v35q159 15 309 55v-684q0 -123 33 -174q47 -70 151 -70q117 0 174 88q38 58 38 184v446q0 60 -12 82q-17 31 -68 35q-25 3 -65 3v35q159 15 309 55v-833q0 -77 38 -91q24 -8 113 -10v-36q-163 -16 -282 -54q-10 127 -12 187q-40 -76 -84 -114q-79 -69 -196 -69
q-166 0 -249 115q-52 74 -52 225v470q0 60 -12 82q-17 31 -69 35q-25 3 -64 3zM543 1463q68 0 119 -50q50 -50 50 -121t-50 -121q-51 -50 -121 -50q-71 0 -121 50t-50 121q0 72 50 121q51 50 123 50zM542 1391q-42 0 -71 -29t-29 -70t29 -70q28 -29 70 -29q41 0 70 29t29 70
q0 42 -29 70q-30 29 -69 29z" />
    <glyph glyph-name="Uhungarumlaut" unicode="&#x170;" horiz-adv-x="1361" vert-adv-y="2457" 
d="M900 1321v50q139 -10 208 -10q70 0 199 10v-50q-88 -6 -120 -20q-39 -17 -46 -59q-3 -18 -3 -57v-749q0 -128 -24 -197q-47 -134 -170 -202q-109 -60 -264 -60q-232 0 -360 139q-70 75 -87 171q-10 57 -10 133v765q0 64 -12 85q-20 35 -85 44q-24 4 -72 7v50
q155 -15 256 -15t256 15v-50q-87 -6 -119 -20q-40 -17 -47 -59q-3 -20 -3 -57v-782q0 -122 24 -177q38 -86 130 -126q72 -32 169 -32q142 0 233 65q81 56 104 162q12 54 12 131v759q0 63 -12 85q-20 35 -85 44q-25 4 -72 7zM472 1483l221 281h195l-322 -281h-94zM793 1483
l222 281h197l-325 -281h-94z" />
    <glyph glyph-name="uhungarumlaut" unicode="&#x171;" horiz-adv-x="1103" vert-adv-y="2457" 
d="M32 913v35q159 15 309 55v-684q0 -123 33 -174q47 -70 151 -70q117 0 174 88q38 58 38 184v446q0 60 -12 82q-17 31 -68 35q-25 3 -65 3v35q159 15 309 55v-833q0 -77 38 -91q24 -8 113 -10v-36q-163 -16 -282 -54q-9 69 -12 187q-40 -76 -84 -114q-79 -69 -196 -69
q-166 0 -249 115q-52 74 -52 225v470q0 60 -12 82q-17 31 -69 35q-25 3 -64 3zM313 1129l174 301h177l-268 -301h-83zM595 1129l176 301h177l-271 -301h-82z" />
    <glyph glyph-name="Uogonek" unicode="&#x172;" horiz-adv-x="1361" vert-adv-y="2457" 
d="M1070 -241v-66q-91 -33 -160 -33q-78 0 -129 35q-67 45 -67 121q0 67 59 123q25 24 86 62q-86 -24 -167 -24q-245 0 -372 139q-70 75 -87 171q-10 57 -10 133v765q0 64 -12 85q-20 35 -85 44q-24 4 -72 7v50q155 -15 256 -15t256 15v-50q-87 -6 -119 -20q-40 -17 -47 -59
q-3 -20 -3 -57v-782q0 -122 24 -177q38 -86 130 -126q72 -32 169 -32q142 0 233 65q81 56 104 162q12 54 12 131v759q0 63 -12 85q-20 35 -85 44q-25 4 -72 7v50q139 -10 208 -10q70 0 199 10v-50q-88 -6 -120 -20q-39 -17 -46 -59q-3 -18 -3 -57v-749q0 -154 -42 -240
q-23 -47 -59 -85l-67 -71q-117 -123 -117 -206q0 -43 33 -69q33 -25 80 -25q39 0 104 19z" />
    <glyph glyph-name="uogonek" unicode="&#x173;" horiz-adv-x="1103" vert-adv-y="2457" 
d="M1094 -235v-64q-69 -25 -122 -25q-68 0 -120 36q-63 42 -63 115q0 74 68 131q29 25 89 63q-104 -19 -176 -42q-9 69 -12 187q-40 -76 -84 -114q-79 -69 -196 -69q-166 0 -249 115q-52 74 -52 225v470q0 60 -12 82q-17 31 -69 35q-25 3 -64 3v35q159 15 309 55v-684
q0 -123 33 -174q47 -70 151 -70q117 0 174 88q38 58 38 184v446q0 60 -12 82q-17 31 -68 35q-25 3 -65 3v35q159 15 309 55v-833q0 -77 38 -91q24 -8 113 -10v-36q-35 -18 -65 -51q-64 -71 -64 -140q0 -40 32 -65q32 -24 75 -24q23 0 64 12z" />
    <glyph glyph-name="Wcircumflex" unicode="&#x174;" horiz-adv-x="1796" vert-adv-y="2457" 
d="M576 -25h-39l-333 1226q-20 74 -63 98q-30 17 -103 22v50q125 -15 238 -15t237 15v-50q-78 -6 -104 -19q-32 -15 -32 -45q0 -16 11 -58l230 -850l314 1047h47l307 -1049l234 847q13 46 13 67q0 32 -33 46q-27 11 -95 14v50q96 -11 179 -11q82 0 179 11v-50
q-75 -5 -104 -20q-43 -23 -61 -87l-349 -1237h-39l-311 1103zM604 1485l290 277h116l290 -277h-102l-246 171l-247 -171h-101z" />
    <glyph glyph-name="wcircumflex" unicode="&#x175;" horiz-adv-x="1449" vert-adv-y="2457" 
d="M732 738l-197 -582q-30 -89 -57 -181h-55q-40 138 -56 191l-207 662q-22 70 -54 87q-23 13 -89 17v41q121 -10 208 -10t208 10v-41q-65 -3 -92 -13q-26 -10 -26 -35q0 -9 13 -49l174 -585l249 742h56l240 -746l179 587q11 36 11 53q0 26 -31 37q-18 6 -80 9v41
q98 -8 165 -8q69 0 150 8v-41q-64 -4 -92 -19q-38 -21 -57 -79l-209 -667q-29 -92 -56 -192h-55q-34 111 -55 177zM411 1130l269 299h98l270 -299h-98l-221 177l-221 -177h-97z" />
    <glyph glyph-name="Ycircumflex" unicode="&#x176;" horiz-adv-x="1211" vert-adv-y="2457" 
d="M523 595l-304 605q-39 78 -84 99q-33 16 -107 22v50q138 -14 252 -14q113 0 251 14v-50q-84 -5 -112 -17q-31 -13 -31 -38q0 -21 21 -63l262 -520l262 523q19 39 19 61q0 28 -38 41q-25 9 -101 13v50q114 -10 189 -10q76 0 190 10v-50q-74 -9 -104 -21q-47 -20 -82 -89
l-309 -616v-415q0 -66 11 -86q19 -33 86 -43q23 -3 72 -7v-50q-163 15 -256 15t-256 -15v50q86 7 119 20q41 17 47 59q3 21 3 57v415zM307 1485l290 277h116l291 -277h-102l-247 171l-246 -171h-102z" />
    <glyph glyph-name="ycircumflex" unicode="&#x177;" horiz-adv-x="1022" vert-adv-y="2457" 
d="M479 33l-303 804q-23 63 -61 79q-28 12 -94 16v41q117 -10 209 -10t209 10v-41q-60 -4 -83 -13.5t-23 -29.5q0 -16 14 -55l215 -591l225 585q16 42 16 58q0 26 -32 37q-24 8 -85 9v41q77 -8 152 -8q77 0 176 8v-41q-55 -6 -86 -20q-46 -20 -69 -81l-387 -1000
q-53 -137 -135 -189q-66 -42 -162 -42q-9 0 -29 1v103q75 0 115 14q99 32 154 163zM227 1130l269 299h98l269 -299h-97l-221 177l-221 -177h-97z" />
    <glyph glyph-name="Ydieresis" unicode="&#x178;" horiz-adv-x="1211" vert-adv-y="2457" 
d="M523 595l-304 605q-39 78 -84 99q-33 16 -107 22v50q138 -14 252 -14q113 0 251 14v-50q-84 -5 -112 -17q-31 -13 -31 -38q0 -21 21 -63l262 -520l262 523q19 39 19 61q0 28 -38 41q-25 9 -101 13v50q114 -10 189 -10q76 0 190 10v-50q-74 -9 -104 -21q-47 -20 -82 -89
l-309 -616v-415q0 -66 11 -86q19 -33 86 -43q23 -3 72 -7v-50q-163 15 -256 15t-256 -15v50q86 7 119 20q41 17 47 59q3 21 3 57v415zM474 1739q46 0 80 -34t34 -82t-34 -82t-82 -34t-82 34t-34 82q0 49 34 82q35 34 84 34zM839 1739q46 0 80 -34t34 -82t-34 -82t-82 -34
t-82 34t-34 82q0 49 34 82q35 34 84 34z" />
    <glyph glyph-name="Zacute" unicode="&#x179;" horiz-adv-x="1102" vert-adv-y="2457" 
d="M64 0l740 1302h-343q-82 0 -128 -22q-89 -43 -135 -217h-53l55 302h833l-739 -1302h387q99 0 140 19q92 42 167 251h50l-61 -333h-913zM474 1483l258 281h248l-403 -281h-103z" />
    <glyph glyph-name="zacute" unicode="&#x17a;" horiz-adv-x="915" vert-adv-y="2457" 
d="M69 0l555 914h-227q-69 0 -109 -18q-53 -24 -94 -111q-12 -26 -36 -84h-42l46 266h680l-557 -914h241q93 0 133 29q72 53 125 213h42l-53 -295h-704zM382 1129l201 301h227l-337 -301h-91z" />
    <glyph glyph-name="Zdotaccent" unicode="&#x17b;" horiz-adv-x="1102" vert-adv-y="2457" 
d="M64 0l740 1302h-343q-82 0 -128 -22q-89 -43 -135 -217h-53l55 302h833l-739 -1302h387q99 0 140 19q92 42 167 251h50l-61 -333h-913zM619 1739q46 0 80 -34t34 -82t-34 -82t-82 -34t-82 34t-34 82q0 49 34 82q35 34 84 34z" />
    <glyph glyph-name="zdotaccent" unicode="&#x17c;" horiz-adv-x="915" vert-adv-y="2457" 
d="M510 1378q44 0 76 -32t32 -77q0 -46 -32 -78t-77 -32q-46 0 -78 32q-32 33 -32 77q0 47 32 78q33 32 79 32zM69 0l555 914h-227q-69 0 -109 -18q-53 -24 -94 -111q-12 -26 -36 -84h-42l46 266h680l-557 -914h241q93 0 133 29q72 53 125 213h42l-53 -295h-704z" />
    <glyph glyph-name="Zcaron" unicode="&#x17d;" horiz-adv-x="1102" vert-adv-y="2457" 
d="M64 0l740 1302h-343q-82 0 -128 -22q-89 -43 -135 -217h-53l55 302h833l-739 -1302h387q99 0 140 19q92 42 167 251h50l-61 -333h-913zM965 1759l-290 -277h-116l-290 277h102l246 -171l247 171h101z" />
    <glyph glyph-name="zcaron" unicode="&#x17e;" horiz-adv-x="915" vert-adv-y="2457" 
d="M69 0l555 914h-227q-69 0 -109 -18q-53 -24 -94 -111q-12 -26 -36 -84h-42l46 266h680l-557 -914h241q93 0 133 29q72 53 125 213h42l-53 -295h-704zM819 1413l-269 -299h-99l-269 299h97l221 -177l221 177h98z" />
    <glyph glyph-name="uni017F" unicode="&#x17f;" horiz-adv-x="606" vert-adv-y="2457" 
d="M514 35v-41q-141 12 -228 12q-88 0 -229 -12v41q70 3 102 15q34 13 41 48q4 15 4 47v850q0 164 24 227q34 86 112 132q67 40 157 40q98 0 155 -52q47 -41 47 -101q0 -77 -76 -77q-34 0 -54 18q-19 17 -19 43q0 7 2 27q3 16 3 29q0 24 -13 39q-17 22 -49 22
q-76 0 -108 -80q-17 -44 -17 -159v-958q0 -51 12 -70q22 -35 134 -40z" />
    <glyph glyph-name="florin" unicode="&#x192;" horiz-adv-x="1071" vert-adv-y="2457" 
d="M883 966l-3 -77h-222l-116 -656q-48 -268 -112 -364q-87 -130 -243 -130q-99 0 -156 51q-50 44 -50 110q0 41 23 66q23 26 61 26q33 0 53 -20q17 -16 17 -41q0 -16 -9 -43q-8 -24 -8 -37q0 -24 21 -37q19 -12 44 -12q74 0 116 83q28 57 53 200l143 804h-143l3 67h31
q79 0 104 20q22 18 43 107q21 92 32 131q33 114 114 175q80 60 193 60q88 0 140 -44q49 -41 49 -106q0 -94 -79 -94q-34 0 -56 18q-19 16 -19 43q0 14 8 39q8 27 8 39q0 42 -56 42q-121 0 -157 -200l-39 -220h212z" />
    <glyph glyph-name="Ohorn" unicode="&#x1a0;" horiz-adv-x="1295" vert-adv-y="2457" 
d="M1080 1151q38 57 42 120l-8 2q-9 -3 -14 -3q-94 0 -94 93q0 48 29 74t75 26q107 0 107 -133q0 -124 -101 -244q81 -178 81 -401q0 -291 -127 -488q-72 -112 -190 -171q-102 -52 -228 -52q-184 0 -322 109q-132 104 -192 306q-40 136 -40 297q0 285 125 478
q68 107 181 168q110 59 243 59q186 0 325 -114q62 -51 108 -126zM650 1334q-141 0 -236 -119q-131 -163 -131 -526q0 -255 72 -434q39 -99 115 -162q76 -62 182 -62q145 0 236 121q71 96 103 275q21 118 21 254q0 264 -69 433q-91 220 -293 220z" />
    <glyph glyph-name="ohorn" unicode="&#x1a1;" horiz-adv-x="960" vert-adv-y="2457" 
d="M836 731q44 64 48 130l-8 1q-8 -2 -14 -2q-37 0 -61 17q-33 25 -33 74q0 46 29 72t75 26q108 0 108 -128q0 -76 -43 -157q-13 -24 -74 -103l-4 -6q20 -80 20 -166q0 -216 -106 -361q-110 -150 -294 -150t-294 150q-104 141 -104 355q0 222 113 365q112 144 295 144
q180 0 287 -149q36 -50 60 -112zM484 939q-85 0 -144 -73q-87 -108 -87 -383q0 -452 225 -452q92 0 151 80q78 107 78 367q0 461 -223 461z" />
    <glyph glyph-name="Uhorn" unicode="&#x1af;" horiz-adv-x="1361" vert-adv-y="2457" 
d="M900 1321v50q139 -10 208 -10q70 0 199 10v-50q-88 -6 -120 -20q-39 -17 -46 -59q-3 -18 -3 -57v-749q0 -128 -24 -197q-47 -134 -170 -202q-109 -60 -264 -60q-232 0 -360 139q-70 75 -87 171q-10 57 -10 133v765q0 64 -12 85q-20 35 -85 44q-24 4 -72 7v50
q155 -15 256 -15t256 15v-50q-87 -6 -119 -20q-40 -17 -47 -59q-3 -20 -3 -57v-782q0 -122 24 -177q38 -86 130 -126q72 -32 169 -32q142 0 233 65q81 56 104 162q12 54 12 131v759q0 63 -12 85q-20 35 -85 44q-25 4 -72 7zM1434 1108h-92q112 102 118 209l-8 1
q-7 -2 -14 -2q-93 0 -93 92q0 48 29 74t74 26q108 0 108 -133q0 -129 -122 -267z" />
    <glyph glyph-name="uhorn" unicode="&#x1b0;" horiz-adv-x="1103" vert-adv-y="2457" 
d="M32 913v35q159 15 309 55v-684q0 -123 33 -174q47 -70 151 -70q117 0 174 88q38 58 38 184v446q0 60 -12 82q-17 31 -68 35q-25 3 -65 3v35q159 15 309 55v-833q0 -77 38 -91q24 -8 113 -10v-36q-163 -16 -282 -54q-9 69 -12 187q-40 -76 -84 -114q-79 -69 -196 -69
q-166 0 -249 115q-52 74 -52 225v470q0 60 -12 82q-17 31 -69 35q-25 3 -64 3zM1053 683h-91q111 102 118 208l-8 1q-9 -2 -14 -2q-37 0 -61 17q-33 25 -33 74q0 46 29 72t75 26q108 0 108 -129q0 -76 -43 -156q-13 -24 -80 -111z" />
    <glyph glyph-name="uni01CD" unicode="&#x1cd;" horiz-adv-x="1316" vert-adv-y="2457" 
d="M845 395h-478l-67 -192q-25 -70 -25 -97q0 -32 38 -49q23 -10 97 -13v-50q-118 11 -195 11q-78 0 -195 -11v50q93 6 125 28q37 25 71 116l468 1221l421 -1244q28 -83 80 -102q34 -13 110 -19v-50q-140 15 -249 15t-250 -15v50q79 6 106 22q25 15 25 39q0 28 -13 69z
M391 459h433l-199 627zM1031 1759l-293 -279h-112l-292 279h102l246 -171l247 171h102z" />
    <glyph glyph-name="uni01CE" unicode="&#x1ce;" horiz-adv-x="955" vert-adv-y="2457" 
d="M911 54v-54q-66 -14 -114 -14q-88 0 -127 63q-23 37 -31 112q-40 -74 -79 -109q-75 -70 -196 -70q-123 0 -202 71q-83 74 -83 192q0 185 233 281q133 55 303 77v122q0 104 -31 146q-44 60 -138 60q-95 0 -147 -52q-25 -26 -25 -65q0 -3 2 -44v-11q0 -87 -81 -87
q-69 0 -69 70q0 93 90 164q102 80 246 80q100 0 180 -43q99 -54 124 -155q13 -52 13 -140v-418q0 -98 15 -140q15 -43 64 -43q19 0 53 7zM615 550q-140 -25 -230 -70q-140 -71 -140 -223q0 -89 48 -139q44 -47 122 -47q132 0 178 121q22 59 22 180v178zM787 1426l-270 -301
h-96l-270 301h97l221 -177l221 177h97z" />
    <glyph glyph-name="uni01D2" unicode="&#x1d2;" horiz-adv-x="960" vert-adv-y="2457" 
d="M488 992q183 0 288 -148q103 -146 103 -363q0 -208 -106 -353q-110 -150 -294 -150t-294 150q-104 142 -104 355q0 224 113 365q114 144 294 144zM484 939q-85 0 -144 -73q-87 -108 -87 -383q0 -452 225 -452q92 0 151 80q78 107 78 367q0 461 -223 461zM798 1426
l-269 -299h-98l-269 299h97l221 -177l221 177h97z" />
    <glyph glyph-name="uni01D3" unicode="&#x1d3;" horiz-adv-x="1361" vert-adv-y="2457" 
d="M900 1321v50q139 -10 208 -10q70 0 199 10v-50q-88 -6 -120 -20q-39 -17 -46 -59q-3 -18 -3 -57v-749q0 -128 -24 -197q-47 -134 -170 -202q-109 -60 -264 -60q-232 0 -360 139q-70 75 -87 171q-10 57 -10 133v765q0 64 -12 85q-20 35 -85 44q-24 4 -72 7v50
q155 -15 256 -15t256 15v-50q-87 -6 -119 -20q-40 -17 -47 -59q-3 -20 -3 -57v-782q0 -122 24 -177q38 -86 130 -126q72 -32 169 -32q142 0 233 65q81 56 104 162q12 54 12 131v759q0 63 -12 85q-20 35 -85 44q-25 4 -72 7zM1079 1759l-290 -277h-116l-290 277h102l246 -171
l247 171h101z" />
    <glyph glyph-name="uni01D4" unicode="&#x1d4;" horiz-adv-x="1103" vert-adv-y="2457" 
d="M32 913v35q159 15 309 55v-684q0 -123 33 -174q47 -70 151 -70q117 0 174 88q38 58 38 184v446q0 60 -12 82q-17 31 -68 35q-25 3 -65 3v35q159 15 309 55v-833q0 -77 38 -91q24 -8 113 -10v-36q-163 -16 -282 -54q-9 69 -12 187q-40 -76 -84 -114q-79 -69 -196 -69
q-166 0 -249 115q-52 74 -52 225v470q0 60 -12 82q-17 31 -69 35q-25 3 -64 3zM849 1426l-269 -299h-99l-269 299h97l221 -177l221 177h98z" />
    <glyph glyph-name="Gcaron" unicode="&#x1e6;" horiz-adv-x="1300" vert-adv-y="2457" 
d="M1098 1391v-407h-47q-34 116 -76 185q-45 73 -120 115q-79 44 -176 44q-153 0 -250 -103q-146 -153 -146 -536q0 -653 392 -653q130 0 275 78v346q0 40 -11 59q-22 35 -147 43v50q135 -12 232 -12t233 12v-50q-88 -7 -116 -22q-23 -12 -27 -40q-2 -9 -2 -44v-332
q-241 -147 -457 -147q-175 0 -309 98q-138 100 -201 290q-47 143 -47 324q0 315 147 504q151 195 410 195q181 0 323 -117l83 120h37zM1005 1759l-290 -277h-116l-290 277h101l247 -171l246 171h102z" />
    <glyph glyph-name="gcaron" unicode="&#x1e7;" horiz-adv-x="1008" vert-adv-y="2457" 
d="M707 932h272v-82l-196 5q50 -77 50 -171q0 -163 -133 -251q-57 -38 -220 -79q-140 -35 -175 -55q-34 -19 -34 -49q0 -31 29 -46q25 -13 156 -22q230 -16 318 -51q84 -33 128 -106q31 -52 31 -117q0 -89 -58 -166q-59 -78 -177 -117q-95 -31 -209 -31q-172 0 -293 66
q-61 34 -98 91t-37 126q0 151 197 220q-43 18 -64 34q-44 34 -44 85q0 114 221 166q-79 24 -132 68q-104 87 -104 227q0 142 93 223q97 85 268 85q119 0 211 -53zM489 933q-98 0 -149 -69q-50 -69 -50 -184q0 -110 43 -177q50 -81 152 -81q101 0 150 79q43 70 43 180
q0 252 -189 252zM461 36q-147 0 -236 -48q-80 -43 -80 -127q0 -91 92 -144q104 -59 246 -59q148 0 241 55q83 50 83 145q0 90 -97 136q-88 42 -249 42zM822 1426l-270 -301h-96l-270 301h97l221 -177l221 177h97z" />
    <glyph glyph-name="uni01F4" unicode="&#x1f4;" horiz-adv-x="1300" vert-adv-y="2457" 
d="M1098 1391v-407h-47q-34 116 -76 185q-45 73 -120 115q-79 44 -176 44q-153 0 -250 -103q-146 -153 -146 -536q0 -653 392 -653q130 0 275 78v346q0 40 -11 59q-22 35 -147 43v50q135 -12 232 -12t233 12v-50q-88 -7 -116 -22q-23 -12 -27 -40q-2 -9 -2 -44v-332
q-241 -147 -457 -147q-175 0 -309 98q-138 100 -201 290q-47 143 -47 324q0 315 147 504q151 195 410 195q181 0 323 -117l83 120h37zM534 1483l258 281h248l-403 -281h-103z" />
    <glyph glyph-name="Aringacute" unicode="&#x1fa;" horiz-adv-x="1316" vert-adv-y="2457" 
d="M845 395h-478l-67 -192q-25 -70 -25 -97q0 -32 38 -49q23 -10 97 -13v-50q-118 11 -195 11q-78 0 -195 -11v50q93 6 125 28q37 25 71 116l468 1221l421 -1244q28 -83 80 -102q34 -13 110 -19v-50q-140 15 -249 15t-250 -15v50q79 6 106 22q25 15 25 39q0 28 -13 69z
M391 459h433l-199 627zM688 1778q68 0 119 -50q50 -50 50 -121t-50 -121t-121 -50q-72 0 -122 50t-50 121q0 72 50 121q51 50 124 50zM687 1706q-43 0 -72 -29t-29 -70t29 -70t70 -29q42 0 71 29t29 70q0 42 -29 70q-30 29 -69 29zM472 1773l258 281h248l-403 -281h-103z
" />
    <glyph glyph-name="AEacute" unicode="&#x1fc;" horiz-adv-x="1834" vert-adv-y="2457" 
d="M1687 1365l36 -308h-46q-30 113 -62 165q-51 80 -181 80h-296v-561h293q69 0 91 34q24 37 30 135h50v-402h-50q-4 95 -29 132q-25 38 -103 38h-282v-494q0 -68 19 -89q29 -32 118 -32h145q93 0 140 25q88 45 138 242h47l-47 -330h-903v50q87 7 119 20q39 17 47 59
q3 20 3 57v276h-483l-171 -305q-22 -38 -22 -60q0 -29 36 -42q25 -8 105 -11v-50q-151 10 -204 10q-54 0 -205 -10v50q88 6 127 29q47 27 100 119l677 1173h763zM518 526h446v779zM1013 1483l258 281h248l-403 -281h-103z" />
    <glyph glyph-name="aeacute" unicode="&#x1fd;" horiz-adv-x="1472" vert-adv-y="2457" 
d="M1309 315h82q-13 -115 -73 -197q-100 -137 -299 -137q-248 0 -361 229q-78 -229 -293 -229q-142 0 -222 89q-64 71 -64 171q0 165 186 255q112 54 350 80v149q0 125 -49 166q-47 40 -121 40q-94 0 -146 -53q-26 -27 -26 -59q0 -6 2 -20q2 -21 2 -38q0 -90 -83 -90
q-68 0 -68 69q0 88 83 159q101 87 248 87q135 0 227 -72q25 -20 47 -52q114 124 284 124q129 0 228 -80q134 -109 147 -403h-614q2 -197 36 -286q64 -168 236 -168q130 0 198 96q48 68 63 170zM615 513q-184 -25 -261 -71q-109 -66 -109 -190q0 -92 54 -142q43 -40 116 -40
q113 0 163 90q37 66 37 212v141zM1224 580q-10 353 -214 353t-232 -353h446zM660 1129l201 301h227l-336 -301h-92z" />
    <glyph glyph-name="Oslashacute" unicode="&#x1fe;" horiz-adv-x="1295" vert-adv-y="2457" 
d="M1159 1365h93l-169 -209q113 -185 113 -457q0 -306 -140 -512q-75 -111 -195 -168q-95 -45 -212 -45q-239 0 -392 172l-119 -146h-94l169 206q-116 193 -116 463q0 305 137 506q72 104 186 163q105 53 229 53q236 0 389 -174zM951 1120q-99 213 -295 213
q-138 0 -235 -112q-81 -94 -119 -273q-29 -134 -29 -296q0 -171 44 -327zM346 245q91 -213 297 -213q143 0 235 114q75 93 113 272q29 138 29 302q0 178 -41 320zM568 1483l258 281h248l-403 -281h-103z" />
    <glyph glyph-name="oslashacute" unicode="&#x1ff;" horiz-adv-x="960" vert-adv-y="2457" 
d="M125 -6h-84l125 157q-83 135 -83 318q0 235 125 383q112 134 285 134q152 0 255 -107l75 94h84l-117 -148q87 -138 87 -327q0 -227 -118 -377q-110 -140 -284 -140q-158 0 -267 116zM287 187q21 -55 61 -91q62 -56 133 -56q65 0 121 49q114 102 114 391q0 143 -25 230z
M669 790q-53 137 -184 137q-143 0 -204 -183q-37 -110 -37 -286q0 -103 23 -192zM405 1129l201 301h227l-336 -301h-92z" />
    <glyph glyph-name="Scommaaccent" unicode="&#x218;" horiz-adv-x="1063" vert-adv-y="2457" 
d="M119 413h48q61 -367 361 -367q131 0 209 81q74 77 74 188q0 124 -92 193q-46 35 -196 112q-230 117 -288 172q-94 87 -94 232q0 165 112 264q107 96 278 96q155 0 267 -106l61 114h37v-377h-48q-25 109 -67 178q-78 129 -234 129q-115 0 -188 -77q-70 -73 -70 -173
q0 -116 116 -188q48 -29 200 -106q166 -85 233 -135q124 -94 124 -270q0 -175 -118 -285q-113 -106 -291 -106q-184 0 -323 118l-74 -131h-37v444zM517 -493h-91q100 92 118 192l-8 1q-9 -2 -14 -2q-37 0 -61 17q-33 25 -33 74q0 46 29 72q30 26 75 26q54 0 83 -37
q25 -32 25 -83q0 -121 -123 -260z" />
    <glyph glyph-name="scommaaccent" unicode="&#x219;" horiz-adv-x="872" vert-adv-y="2457" 
d="M109 -24v342l45 1q17 -87 45 -143q30 -60 90 -96q59 -36 131 -36q94 0 156 57q56 53 56 127q0 75 -66 119q-37 25 -153 78q-123 56 -152 71q-139 72 -139 216q0 124 86 197q90 76 222 76q110 0 210 -65l34 84h36v-318h-46q-27 241 -215 241q-89 0 -145 -56
q-49 -48 -49 -113q0 -59 43 -99q29 -27 130 -72q24 -10 132 -57q101 -44 148 -91q62 -60 62 -163q0 -121 -84 -204q-93 -90 -245 -90q-135 0 -247 85l-49 -91h-36zM415 -493h-91q100 92 118 192l-8 1q-9 -2 -14 -2q-37 0 -61 17q-33 25 -33 74q0 46 29 72q30 26 75 26
q54 0 83 -37q25 -32 25 -83q0 -121 -123 -260z" />
    <glyph glyph-name="dotlessj" unicode="&#x237;" horiz-adv-x="556" vert-adv-y="2457" 
d="M365 1003v-975q0 -158 -48 -252q-65 -128 -221 -172q-62 -18 -138 -19v53q99 16 158 64q58 47 74 119q11 48 11 121v851q0 61 -12 82q-17 30 -69 35q-23 2 -64 3v35q162 16 309 55z" />
    <glyph glyph-name="afii57929" unicode="&#x2bc;" horiz-adv-x="487" vert-adv-y="2457" 
d="M212 923h-98q135 135 154 265h-8q-9 -3 -16 -3q-38 0 -64 19q-35 26 -35 78q0 46 32 76t80 30q57 0 89 -39q27 -34 27 -90q0 -144 -161 -336z" />
    <glyph glyph-name="circumflex" unicode="&#x2c6;" vert-adv-y="2457" 
d="M194 1130l269 299h99l269 -299h-98l-221 177l-221 -177h-97z" />
    <glyph glyph-name="caron" unicode="&#x2c7;" vert-adv-y="2457" 
d="M831 1426l-269 -299h-99l-269 299h97l221 -177l221 177h98z" />
    <glyph glyph-name="uni02C9" unicode="&#x2c9;" vert-adv-y="2457" 
d="M199 1237v103h625v-103h-625z" />
    <glyph glyph-name="breve" unicode="&#x2d8;" vert-adv-y="2457" 
d="M720 1427h70q-10 -79 -36 -137q-34 -71 -95 -113q-66 -44 -147 -44q-115 0 -192 83q-71 77 -86 211h69q63 -168 209 -168t208 168z" />
    <glyph glyph-name="dotaccent" unicode="&#x2d9;" vert-adv-y="2457" 
d="M515 1386q47 0 82 -34q34 -34 34 -83t-34 -83q-35 -35 -83 -35q-49 0 -83 35q-35 34 -35 82q0 50 35 84t84 34z" />
    <glyph glyph-name="ring" unicode="&#x2da;" vert-adv-y="2457" 
d="M515 1463q69 0 119 -50t50 -121q0 -70 -50 -121q-51 -50 -121 -50q-71 0 -122 50q-50 51 -50 121q0 72 50 121q51 50 124 50zM514 1391q-43 0 -72 -29t-29 -70t29 -70t70 -29q42 0 71 29t29 70q0 42 -29 70q-30 29 -69 29z" />
    <glyph glyph-name="ogonek" unicode="&#x2db;" vert-adv-y="2457" 
d="M625 23l63 -15q-176 -70 -176 -163q0 -42 33 -68q30 -24 78 -24q27 0 66 12v-64q-68 -25 -124 -25q-74 0 -124 36q-63 44 -63 116q0 127 247 195z" />
    <glyph glyph-name="tilde" unicode="&#x2dc;" vert-adv-y="2457" 
d="M251 1181l-57 16q31 109 65 146q51 55 126 55q65 0 140 -55q53 -39 67 -47q31 -17 64 -17q60 0 90 45q14 21 28 62l56 -13q-19 -104 -65 -152q-57 -58 -128 -58q-42 0 -80 18q-27 13 -88 58q-57 43 -101 43q-77 0 -117 -101z" />
    <glyph glyph-name="hungarumlaut" unicode="&#x2dd;" vert-adv-y="2457" 
d="M339 1129l174 301h177l-268 -301h-83zM621 1129l176 301h177l-271 -301h-82z" />
    <glyph glyph-name="tonos" unicode="&#x384;" horiz-adv-x="280" vert-adv-y="2457" 
d="M211 1447l-36 -354h-71l-36 354h143z" />
    <glyph glyph-name="dieresistonos" unicode="&#x385;" horiz-adv-x="861" vert-adv-y="2457" 
d="M179 1378q44 0 76 -32t32 -77q0 -46 -32 -78t-77 -32q-46 0 -78 32q-32 33 -32 77q0 47 32 78q33 32 79 32zM687 1378q44 0 76 -32t32 -77q0 -46 -32 -78t-77 -32q-46 0 -78 32q-32 33 -32 77q0 47 32 78q33 32 79 32zM502 1447l-36 -354h-72l-35 354h143z" />
    <glyph glyph-name="Alphatonos" unicode="&#x386;" horiz-adv-x="1323" vert-adv-y="2457" 
d="M852 395h-478l-67 -192q-25 -70 -25 -97q0 -32 38 -49q23 -10 97 -13v-50q-118 11 -195 11q-78 0 -195 -11v50q93 6 125 28q37 25 71 116l468 1221l421 -1244q28 -83 80 -102q34 -13 110 -19v-50q-140 15 -249 15t-250 -15v50q79 6 106 22q25 15 25 39q0 28 -13 69z
M398 459h433l-199 627zM392 1447l-36 -354h-71l-36 354h143z" />
    <glyph glyph-name="anoteleia" unicode="&#x387;" horiz-adv-x="470" vert-adv-y="2457" 
d="M237 617q47 0 81 -34t34 -82q0 -49 -34 -83t-82 -34q-49 0 -83 34q-34 35 -34 82q0 49 34 83q35 34 84 34z" />
    <glyph glyph-name="Epsilontonos" unicode="&#x388;" horiz-adv-x="1255" vert-adv-y="2457" 
d="M1157 330l-47 -330h-903v50q87 7 119 20q40 17 47 59q3 19 3 57v993q0 63 -12 85q-24 42 -157 51v50h892l36 -308h-46q-36 138 -83 190q-49 55 -160 55h-296v-561h293q70 0 91 34q24 38 30 135h50v-402h-50q-4 92 -29 131t-103 39h-282v-494q0 -68 19 -89q29 -32 118 -32
h145q119 0 170 46q67 62 108 221h47zM149 1447l-36 -354h-71l-36 354h143z" />
    <glyph glyph-name="Etatonos" unicode="&#x389;" horiz-adv-x="1530" vert-adv-y="2457" 
d="M548 744h575v442q0 62 -12 84q-20 35 -85 44q-25 4 -72 7v50q155 -15 257 -15q101 0 253 15v-50q-87 -6 -119 -20q-40 -17 -47 -59q-3 -18 -3 -56v-1006q0 -63 12 -85q20 -35 85 -44q22 -3 72 -7v-50q-159 15 -254 15q-93 0 -256 -15v50q89 7 119 20q39 17 47 59
q3 19 3 57v501h-575v-501q0 -63 12 -85q20 -35 85 -44q21 -3 72 -7v-50q-163 15 -257 15t-253 -15v50q89 7 119 20q40 17 47 59q3 19 3 57v1006q0 63 -12 84q-20 35 -85 44q-24 4 -72 7v50q152 -15 253 -15q102 0 257 15v-50q-88 -6 -120 -20q-39 -17 -46 -59q-3 -18 -3 -56
v-442zM149 1447l-36 -354h-71l-36 354h143z" />
    <glyph glyph-name="Iotatonos" unicode="&#x38a;" horiz-adv-x="785" vert-adv-y="2457" 
d="M719 44v-50q-163 15 -256 15t-256 -15v50q89 7 119 20q40 17 47 59q3 19 3 57v1005q0 64 -12 85q-20 35 -85 44q-24 4 -72 7v50q155 -15 256 -15q100 0 256 15v-50q-87 -6 -119 -20q-40 -17 -47 -59q-3 -20 -3 -57v-1005q0 -63 12 -85q20 -35 85 -44q22 -3 72 -7z
M149 1447l-36 -354h-71l-36 354h143z" />
    <glyph glyph-name="Omicrontonos" unicode="&#x38c;" horiz-adv-x="1330" vert-adv-y="2457" 
d="M681 1391q186 0 326 -114q126 -104 184 -295q41 -136 41 -307q0 -280 -127 -478q-72 -112 -190 -171q-102 -52 -229 -52q-183 0 -321 109q-132 103 -192 306q-40 135 -40 297q0 289 125 478q70 108 181 168q110 59 242 59zM685 1334q-141 0 -236 -119
q-131 -163 -131 -526q0 -255 72 -434q39 -99 115 -162q76 -62 182 -62q145 0 236 121q71 96 103 275q21 118 21 254q0 264 -69 433q-91 220 -293 220zM163 1447l-36 -354h-71l-36 354h143z" />
    <glyph glyph-name="Upsilontonos" unicode="&#x38e;" horiz-adv-x="1384" vert-adv-y="2457" 
d="M694 595l-304 605q-39 78 -84 99q-33 16 -107 22v50q138 -14 252 -14q113 0 251 14v-50q-84 -5 -112 -17q-31 -13 -31 -38q0 -21 21 -63l262 -520l262 523q19 39 19 61q0 28 -38 41q-25 9 -101 13v50q114 -10 189 -10q76 0 190 10v-50q-74 -9 -104 -21q-47 -20 -82 -89
l-309 -616v-415q0 -66 11 -86q19 -33 86 -43q23 -3 72 -7v-50q-163 15 -256 15t-256 -15v50q86 7 119 20q41 17 47 59q3 21 3 57v415zM149 1447l-36 -354h-71l-36 354h143z" />
    <glyph glyph-name="Omegatonos" unicode="&#x38f;" horiz-adv-x="1444" vert-adv-y="2457" 
d="M608 0h-448l-47 337h47q31 -124 81 -171q39 -36 128 -36h183l7 29q-117 30 -208 109q-105 91 -156 246q-41 123 -41 263q0 257 134 418q81 96 195 144q122 51 261 51q200 0 346 -97q245 -161 245 -518q0 -196 -78 -351q-107 -213 -327 -266l6 -28h183q90 0 128 36
q50 47 82 171h46l-47 -337h-447l-29 205q35 7 68 22q106 51 160 171q70 157 70 382q0 221 -77 365q-100 187 -325 187q-158 0 -262 -98q-147 -140 -147 -455q0 -198 58 -345q75 -192 240 -227zM198 1447l-36 -354h-71l-36 354h143z" />
    <glyph glyph-name="iotadieresistonos" unicode="&#x390;" horiz-adv-x="571" vert-adv-y="2457" 
d="M371 1003v-858q0 -51 12 -70q22 -35 134 -40v-41q-145 12 -228 12q-84 0 -229 -12v41q72 3 102 15q34 13 41 48q4 15 4 47v648q0 61 -12 82q-18 30 -69 35q-23 2 -64 3v35q163 16 309 55zM34 1378q44 0 76 -32t32 -77q0 -46 -32 -78t-77 -32q-46 0 -78 32q-32 33 -32 77
q0 47 32 78q33 32 79 32zM542 1378q44 0 76 -32t32 -77q0 -46 -32 -78t-77 -32q-46 0 -78 32q-32 33 -32 77q0 47 32 78q33 32 79 32zM357 1447l-36 -354h-72l-35 354h143z" />
    <glyph glyph-name="Alpha" unicode="&#x391;" horiz-adv-x="1316" vert-adv-y="2457" 
d="M845 395h-478l-67 -192q-25 -70 -25 -97q0 -32 38 -49q23 -10 97 -13v-50q-118 11 -195 11q-78 0 -195 -11v50q93 6 125 28q37 25 71 116l468 1221l421 -1244q28 -83 80 -102q34 -13 110 -19v-50q-140 15 -249 15t-250 -15v50q79 6 106 22q25 15 25 39q0 28 -13 69z
M391 459h433l-199 627z" />
    <glyph glyph-name="Beta" unicode="&#x392;" horiz-adv-x="1172" vert-adv-y="2457" 
d="M785 729q84 -17 139 -51q63 -40 103 -107q47 -80 47 -179q0 -138 -87 -246q-85 -104 -233 -133q-64 -13 -171 -13h-518v50q87 6 119 20q40 17 47 59q3 18 3 57v993q0 63 -12 85q-24 42 -157 51v50h540q128 0 201 -29q102 -39 156 -130q47 -77 47 -174q0 -219 -224 -303z
M406 745h139q103 0 152 23q130 60 130 259q0 137 -58 208q-54 67 -189 67h-174v-557zM406 682v-513q0 -61 16 -79q23 -26 110 -26h75q125 0 195 66q90 86 90 252q0 155 -75 233q-64 67 -216 67h-195z" />
    <glyph glyph-name="Gamma" unicode="&#x393;" horiz-adv-x="1035" vert-adv-y="2457" 
d="M957 1365l36 -308h-46q-36 138 -83 190q-49 55 -160 55h-296v-1122q0 -63 12 -85q19 -35 85 -44q24 -4 72 -7v-50q-159 15 -256 15t-256 -15v50q87 6 119 20q40 17 47 59q3 18 3 57v999q0 63 -12 85q-20 34 -85 44q-25 3 -72 7v50h892z" />
    <glyph glyph-name="uni0394" unicode="&#x394;" horiz-adv-x="1044" vert-adv-y="2457" 
d="M1044 0h-1044l501 1394h51zM471 1106l-346 -963h506q94 0 122 17q24 14 24 42q0 29 -13 66z" />
    <glyph glyph-name="Epsilon" unicode="&#x395;" horiz-adv-x="1113" vert-adv-y="2457" 
d="M1015 330l-47 -330h-903v50q87 7 119 20q40 17 47 59q3 19 3 57v993q0 63 -12 85q-24 42 -157 51v50h892l36 -308h-46q-36 138 -83 190q-49 55 -160 55h-296v-561h293q70 0 91 34q24 38 30 135h50v-402h-50q-4 92 -29 131t-103 39h-282v-494q0 -68 19 -89q29 -32 118 -32
h145q119 0 170 46q67 62 108 221h47z" />
    <glyph glyph-name="Zeta" unicode="&#x396;" horiz-adv-x="1102" vert-adv-y="2457" 
d="M64 0l740 1302h-343q-82 0 -128 -22q-89 -43 -135 -217h-53l55 302h833l-739 -1302h387q99 0 140 19q92 42 167 251h50l-61 -333h-913z" />
    <glyph glyph-name="Eta" unicode="&#x397;" horiz-adv-x="1388" vert-adv-y="2457" 
d="M406 744h575v442q0 62 -12 84q-20 35 -85 44q-25 4 -72 7v50q155 -15 257 -15q101 0 253 15v-50q-87 -6 -119 -20q-40 -17 -47 -59q-3 -18 -3 -56v-1006q0 -63 12 -85q20 -35 85 -44q22 -3 72 -7v-50q-159 15 -254 15q-93 0 -256 -15v50q89 7 119 20q39 17 47 59
q3 19 3 57v501h-575v-501q0 -63 12 -85q20 -35 85 -44q21 -3 72 -7v-50q-163 15 -257 15t-253 -15v50q89 7 119 20q40 17 47 59q3 19 3 57v1006q0 63 -12 84q-20 35 -85 44q-24 4 -72 7v50q152 -15 253 -15q102 0 257 15v-50q-88 -6 -120 -20q-39 -17 -46 -59q-3 -18 -3 -56
v-442z" />
    <glyph glyph-name="Theta" unicode="&#x398;" horiz-adv-x="1295" vert-adv-y="2457" 
d="M824 887h50v-402h-50q-4 89 -29 126q-25 38 -102 38h-92q-77 0 -102 -38q-25 -37 -29 -126h-50v402h50q6 -93 30 -129q21 -33 91 -33h112q70 0 91 33q24 36 30 129zM646 1391q186 0 326 -114q126 -104 184 -295q41 -136 41 -307q0 -280 -127 -478q-72 -112 -190 -171
q-102 -52 -229 -52q-183 0 -321 109q-132 103 -192 306q-40 135 -40 297q0 289 125 478q70 108 181 168q110 59 242 59zM650 1334q-141 0 -236 -119q-131 -163 -131 -526q0 -255 72 -434q39 -99 115 -162q76 -62 182 -62q145 0 236 121q71 96 103 275q21 118 21 254
q0 264 -69 433q-91 220 -293 220z" />
    <glyph glyph-name="Iota" unicode="&#x399;" horiz-adv-x="642" vert-adv-y="2457" 
d="M577 44v-50q-163 15 -256 15t-256 -15v50q89 7 119 20q40 17 47 59q3 19 3 57v1005q0 64 -12 85q-20 35 -85 44q-24 4 -72 7v50q155 -15 256 -15q100 0 256 15v-50q-87 -6 -119 -20q-40 -17 -47 -59q-3 -20 -3 -57v-1005q0 -63 12 -85q20 -35 85 -44q22 -3 72 -7z" />
    <glyph glyph-name="Kappa" unicode="&#x39a;" horiz-adv-x="1305" vert-adv-y="2457" 
d="M402 715l466 512q28 31 28 51q0 24 -36 34q-17 5 -90 9v50q114 -9 210 -9q95 0 210 9v-50q-76 -4 -115 -16q-65 -20 -131 -92l-352 -389l455 -649q60 -87 120 -111q41 -16 113 -20v-50q-154 16 -267 16q-112 0 -267 -16v50q88 7 112 17q29 13 29 36q0 20 -35 73l-368 547
l-84 -90v-447q0 -63 13 -85q23 -41 152 -51v-50q-136 15 -241 15q-104 0 -258 -15v50q87 6 119 20q39 17 46 59q4 21 4 57v1005q0 63 -12 85q-19 35 -85 44q-26 4 -72 7v50q157 -15 258 -15q102 0 247 15v-50q-86 -5 -119 -20q-40 -17 -47 -59q-3 -18 -3 -57v-470z" />
    <glyph glyph-name="Lambda" unicode="&#x39b;" horiz-adv-x="1285" vert-adv-y="2457" 
d="M623 1391h51l417 -1216q32 -90 79 -111q32 -14 109 -20v-50q-130 15 -247 15t-247 -15v50q137 10 137 63q0 16 -16 63l-314 932l-318 -910q-22 -64 -22 -85q0 -31 35 -47q26 -11 102 -16v-50q-102 12 -184 12q-83 0 -198 -12v50q68 6 104 21q53 22 75 84z" />
    <glyph glyph-name="Mu" unicode="&#x39c;" horiz-adv-x="1682" vert-adv-y="2457" 
d="M345 1244l-41 -1064v-17q0 -48 12 -68q23 -42 157 -51v-50q-129 10 -202 10q-72 0 -206 -10v50q87 6 120 20q45 20 49 116l43 1005v13q0 50 -12 72q-24 43 -157 51v50q97 -8 169 -8q95 0 193 11l381 -1036l386 1036q119 -11 197 -11q64 0 161 8v-50q-82 -5 -119 -20
q-39 -16 -47 -59q-3 -15 -3 -41v-16l22 -1005q1 -63 14 -86q18 -33 83 -43q26 -4 72 -7v-50q-160 15 -256 15q-97 0 -256 -15v50q110 5 144 35q26 23 25 101l-17 1061l-339 -913q-30 -79 -80 -222l-23 -66h-31l-22 65l-28 80l-29 80l-26 71z" />
    <glyph glyph-name="Nu" unicode="&#x39d;" horiz-adv-x="1377" vert-adv-y="2457" 
d="M1149 -41h-30q-82 130 -163 250l-50 76l-604 908v-1013q0 -65 12 -86q18 -33 85 -43q23 -3 72 -7v-50q-146 10 -207 10q-65 0 -199 -10v50q86 7 119 20q41 17 47 59q3 21 3 57v1081q-33 35 -74 46q-35 10 -97 14v50q92 -7 172 -7q76 0 150 7l695 -1037v851q0 66 -11 86
q-23 41 -158 50v50q139 -10 208 -10q71 0 199 10v-50q-83 -6 -119 -20q-41 -17 -47 -59q-3 -19 -3 -57v-1226z" />
    <glyph glyph-name="Xi" unicode="&#x39e;" horiz-adv-x="1159" vert-adv-y="2457" 
d="M1043 0h-928l-47 336h47q37 -117 97 -160q47 -33 153 -33h428q106 0 153 33q60 43 98 160h46zM1033 1365l36 -314h-47q-32 97 -73 133q-44 38 -142 38h-456q-97 0 -141 -38q-41 -36 -74 -133h-47l37 314h907zM948 507h-50q-5 64 -20 92q-15 27 -42 36q-17 5 -59 5h-395
q-56 0 -77 -14q-37 -25 -44 -119h-50v403h50q5 -64 20 -92q15 -27 42 -36q17 -5 59 -5h395q49 0 70.5 10t34.5 40q12 26 16 83h50v-403z" />
    <glyph glyph-name="Omicron" unicode="&#x39f;" horiz-adv-x="1295" vert-adv-y="2457" 
d="M646 1391q186 0 326 -114q126 -104 184 -295q41 -136 41 -307q0 -280 -127 -478q-72 -112 -190 -171q-102 -52 -229 -52q-183 0 -321 109q-132 103 -192 306q-40 135 -40 297q0 289 125 478q70 108 181 168q110 59 242 59zM650 1334q-141 0 -236 -119
q-131 -163 -131 -526q0 -255 72 -434q39 -99 115 -162q76 -62 182 -62q145 0 236 121q71 96 103 275q21 118 21 254q0 264 -69 433q-91 220 -293 220z" />
    <glyph glyph-name="Pi" unicode="&#x3a0;" horiz-adv-x="1388" vert-adv-y="2457" 
d="M65 1365h1257v-50q-87 -7 -119 -21q-39 -16 -47 -58q-3 -20 -3 -57v-999q0 -63 12 -85q19 -35 85 -44q25 -4 72 -7v-50q-159 15 -256 15t-256 -15v50q87 6 119 20q40 17 47 59q3 19 3 57v999q0 39 -6 60q-12 40 -92 53q-61 10 -185 10q-210 0 -258 -32q-30 -19 -30 -91
v-999q0 -63 12 -85q19 -35 85 -44q24 -4 71 -7v-50q-158 15 -255 15t-256 -15v50q88 6 119 20q40 17 47 59q3 17 3 57v999q0 63 -12 85q-19 34 -85 44q-25 3 -72 7v50z" />
    <glyph glyph-name="Rho" unicode="&#x3a1;" horiz-adv-x="1116" vert-adv-y="2457" 
d="M408 616v-436q0 -63 12 -85q20 -35 85 -44q22 -3 72 -7v-50q-163 15 -256 15t-256 -15v50q89 7 119 20q40 17 47 59q3 19 3 57v999q0 63 -12 85q-24 42 -157 51v50h540q135 0 213 -27q118 -40 183 -147q57 -93 57 -204q0 -191 -150 -296q-107 -75 -283 -75h-217zM408 679
h163q142 0 214 61q99 85 99 254q0 153 -77 236q-68 72 -223 72h-176v-623z" />
    <glyph glyph-name="Sigma" unicode="&#x3a3;" horiz-adv-x="1035" vert-adv-y="2457" 
d="M525 636l-437 729h833l55 -302h-53q-31 118 -78 173q-58 66 -186 66h-335l351 -584l-468 -575h485q77 0 109 13q71 29 130 176h50l-61 -332h-913z" />
    <glyph glyph-name="Tau" unicode="&#x3a4;" horiz-adv-x="1083" vert-adv-y="2457" 
d="M625 1302v-1122q0 -66 11 -86q19 -33 86 -43q24 -3 72 -7v-50q-158 15 -256 15t-256 -15v50q87 7 119 20q41 17 47 59q3 20 3 57v1122h-110q-128 0 -183 -80q-34 -50 -70 -169h-50l55 312h896l57 -312h-49q-33 121 -67 171q-33 49 -80 65q-35 13 -96 13h-129z" />
    <glyph glyph-name="Upsilon" unicode="&#x3a5;" horiz-adv-x="1211" vert-adv-y="2457" 
d="M523 595l-304 605q-39 78 -84 99q-33 16 -107 22v50q138 -14 252 -14q113 0 251 14v-50q-84 -5 -112 -17q-31 -13 -31 -38q0 -21 21 -63l262 -520l262 523q19 39 19 61q0 28 -38 41q-25 9 -101 13v50q114 -10 189 -10q76 0 190 10v-50q-74 -9 -104 -21q-47 -20 -82 -89
l-309 -616v-415q0 -66 11 -86q19 -33 86 -43q23 -3 72 -7v-50q-163 15 -256 15t-256 -15v50q86 7 119 20q41 17 47 59q3 21 3 57v415z" />
    <glyph glyph-name="Phi" unicode="&#x3a6;" horiz-adv-x="1443" vert-adv-y="2457" 
d="M642 1186q0 37 -3 56q-10 56 -84 71q-19 3 -82 9v49q160 -15 249 -15t249 15v-49q-71 -6 -91 -11q-50 -13 -66 -41q-12 -22 -12 -84q137 -3 249 -38q198 -61 288 -218q64 -113 64 -247q0 -212 -140 -345q-160 -153 -461 -159q0 -36 3 -56q10 -56 84 -70q19 -4 82 -9v-50
q-164 15 -249 15t-249 -15v50q71 6 91 11q50 12 66 40q12 22 12 84q-137 3 -249 38q-199 62 -288 218q-64 113 -64 248q0 211 140 345q160 152 461 158zM802 1128v-891q115 2 207 42q128 57 184 196q39 97 39 208q0 175 -85 292q-109 150 -345 153zM642 1128
q-115 -1 -207 -42q-128 -57 -184 -196q-39 -97 -39 -207q0 -175 85 -293q109 -150 345 -153v891z" />
    <glyph glyph-name="Chi" unicode="&#x3a7;" horiz-adv-x="1272" vert-adv-y="2457" 
d="M23 -6v50q85 3 132 34q53 35 107 120l304 483l-277 516q-43 80 -85 100q-37 18 -118 24v50q132 -14 253 -14t253 14v-50q-80 -7 -105 -17q-32 -13 -32 -40q0 -20 22 -62l193 -359l214 338q41 65 41 87q0 27 -32 40q-22 9 -96 13v50q101 -10 198 -10q98 0 199 10v-50
q-79 -7 -116 -21q-49 -20 -90 -85l-281 -441l319 -596q49 -92 95 -113q33 -16 119 -21v-50q-152 14 -260 14q-109 0 -261 -14v50q88 7 110 17q32 13 32 41q0 27 -37 96l-222 414l-267 -429q-39 -63 -39 -85q0 -30 37 -43q19 -7 93 -11v-50q-113 9 -202 9q-88 0 -201 -9z" />
    <glyph glyph-name="Psi" unicode="&#x3a8;" horiz-adv-x="1513" vert-adv-y="2457" 
d="M837 373v-193q0 -63 12 -85q20 -35 85 -44q22 -3 72 -7v-50q-163 15 -252 15q-90 0 -253 -15v50q89 7 119 20q40 17 47 59q3 19 3 57v193h-12h-13q-238 0 -365 139q-70 75 -87 171q-10 57 -10 133v301q0 95 -12 130q-19 53 -86 67q-25 5 -71 7v50q89 0 117 -2
q159 -11 199 -114q20 -50 20 -164v-276q0 -155 36 -221q72 -134 284 -155v746q0 64 -12 85q-20 35 -85 44q-23 4 -72 7v50q156 -15 253 -15q96 0 252 15v-50q-87 -6 -119 -20q-40 -17 -47 -59q-3 -20 -3 -57v-745q87 10 135 27q115 41 161 152q24 59 24 196v276
q0 113 20 164q40 103 198 114q29 2 118 2v-50q-84 -3 -119 -27q-40 -27 -47 -91q-3 -27 -3 -86v-301q0 -133 -33 -207q-58 -130 -194 -191q-100 -45 -236 -45h-12h-12z" />
    <glyph glyph-name="uni03A9" unicode="&#x3a9;" horiz-adv-x="1399" vert-adv-y="2457" 
d="M563 0h-448l-47 337h47q31 -124 81 -171q39 -36 128 -36h183l7 29q-117 30 -208 109q-105 91 -156 246q-41 123 -41 263q0 257 134 418q81 96 195 144q122 51 261 51q200 0 346 -97q245 -161 245 -518q0 -196 -78 -351q-107 -213 -327 -266l6 -28h183q90 0 128 36
q50 47 82 171h46l-47 -337h-447l-29 205q35 7 68 22q106 51 160 171q70 157 70 382q0 221 -77 365q-100 187 -325 187q-158 0 -262 -98q-147 -140 -147 -455q0 -198 58 -345q75 -192 240 -227z" />
    <glyph glyph-name="Iotadieresis" unicode="&#x3aa;" horiz-adv-x="642" vert-adv-y="2457" 
d="M578 44v-50q-163 15 -256 15t-256 -15v50q89 7 119 20q40 17 47 59q3 19 3 57v1005q0 64 -12 85q-20 35 -85 44q-24 4 -72 7v50q155 -15 256 -15q100 0 256 15v-50q-87 -6 -119 -20q-39 -17 -47 -59q-3 -20 -3 -57v-1005q0 -63 12 -85q20 -35 85 -44q22 -3 72 -7z
M160 1738q46 0 80 -34q33 -33 33 -80q0 -48 -33 -81q-34 -34 -81 -34q-48 0 -81 34q-34 33 -34 80q0 49 34 81q34 34 82 34zM486 1738q46 0 79 -34q34 -33 34 -80q0 -48 -34 -81q-33 -34 -80 -34q-48 0 -81 34q-34 33 -34 80q0 49 34 81q34 34 82 34z" />
    <glyph glyph-name="Upsilondieresis" unicode="&#x3ab;" horiz-adv-x="1211" vert-adv-y="2457" 
d="M523 595l-304 605q-39 78 -84 99q-33 16 -107 22v50q138 -14 252 -14q113 0 251 14v-50q-84 -5 -112 -17q-31 -13 -31 -38q0 -21 21 -63l262 -520l262 523q19 39 19 61q0 28 -38 41q-25 9 -101 13v50q114 -10 189 -10q76 0 190 10v-50q-74 -9 -104 -21q-47 -20 -82 -89
l-309 -616v-415q0 -66 11 -86q19 -33 86 -43q23 -3 72 -7v-50q-163 15 -256 15t-256 -15v50q86 7 119 20q41 17 47 59q3 21 3 57v415zM474 1739q46 0 80 -34t34 -82t-34 -82t-82 -34t-82 34t-34 82q0 49 34 82q35 34 84 34zM840 1739q46 0 80 -34t34 -82t-34 -82t-82 -34
t-82 34t-34 82q0 49 34 82q35 34 84 34z" />
    <glyph glyph-name="alphatonos" unicode="&#x3ac;" horiz-adv-x="1102" vert-adv-y="2457" 
d="M797 696q31 142 50 271h162q-38 -235 -141 -552q44 -231 85 -306q26 -48 61 -48q25 0 60 22v-48q-58 -51 -132 -51q-52 0 -86 34q-47 48 -86 189q-43 -82 -108 -143q-94 -87 -215 -87q-127 0 -220 91q-148 145 -148 414q0 237 121 381q108 129 272 129q88 0 152 -31
q128 -62 173 -265zM714 418q-34 309 -116 439q-51 82 -131 82q-72 0 -124 -60q-92 -107 -92 -398q0 -268 74 -376q51 -75 120 -75q77 0 143 94q46 66 81 155q47 120 45 139zM596 1447l-36 -354h-71l-36 354h143z" />
    <glyph glyph-name="epsilontonos" unicode="&#x3ad;" horiz-adv-x="872" vert-adv-y="2457" 
d="M768 1009v-338h-46q-19 92 -48 147q-63 118 -197 118q-82 0 -130 -50q-56 -59 -56 -162q0 -110 73 -159q54 -35 138 -35h38v-55h-38q-94 0 -146 -38q-77 -58 -77 -181q0 -93 47 -151q52 -64 145 -64q197 0 236 274h82q-40 -339 -352 -339q-149 0 -241 74q-94 76 -94 211
q0 126 74 195q36 34 105 52q-72 23 -107 55q-61 55 -61 151q0 136 101 212q89 66 238 66q107 0 171 -42q23 -15 54 -45l55 104h36zM520 1447l-36 -354h-71l-36 354h143z" />
    <glyph glyph-name="etatonos" unicode="&#x3ae;" horiz-adv-x="1091" vert-adv-y="2457" 
d="M62 907v35q162 23 271 61q15 -67 21 -178q108 161 276 161q167 0 250 -126q50 -75 50 -223v-895q0 -52 12 -71q22 -35 134 -40v-41q-131 12 -224 12t-221 -12v40q62 2 94 18q31 14 38 46q3 13 3 44v906q0 122 -31 172q-46 77 -151 77q-109 0 -172 -83q-41 -55 -41 -174
v-494q0 -48 11 -66q23 -37 121 -42v-40q-130 12 -220 12q-89 0 -223 -12v41q72 3 102 15q34 13 42 48q3 15 3 47v634q-1 57 -4 73q-6 45 -60 51q-19 2 -81 4zM616 1447l-36 -354h-71l-36 354h143z" />
    <glyph glyph-name="iotatonos" unicode="&#x3af;" horiz-adv-x="571" vert-adv-y="2457" 
d="M372 1003v-858q0 -51 12 -70q22 -35 134 -40v-41q-145 12 -228 12q-84 0 -229 -12v41q72 3 102 15q34 13 41 48q4 15 4 47v648q0 61 -12 82q-18 30 -69 35q-23 2 -64 3v35q163 16 309 55zM357 1447l-36 -354h-71l-36 354h143z" />
    <glyph glyph-name="upsilondieresistonos" unicode="&#x3b0;" horiz-adv-x="983" vert-adv-y="2457" 
d="M341 1002v-696q0 -127 17 -171q42 -105 166 -105q142 0 228 144q81 134 81 331q0 187 -75 265q-35 35 -108 58q-80 26 -80 84q0 34 22 55q25 24 71 24q95 0 162 -110q83 -136 83 -352q0 -229 -99 -385q-107 -168 -320 -168q-177 0 -260 115q-52 72 -52 218v483
q0 60 -12 82q-17 31 -69 35q-25 3 -64 3v36q159 14 309 54zM266 1378q44 0 76 -32t32 -77q0 -46 -32 -78t-77 -32q-46 0 -78 32q-32 33 -32 77q0 47 32 78q33 32 79 32zM774 1378q44 0 76 -32t32 -77q0 -46 -32 -78t-77 -32q-46 0 -78 32q-32 33 -32 77q0 47 32 78
q33 32 79 32zM589 1447l-36 -354h-72l-35 354h143z" />
    <glyph glyph-name="alpha" unicode="&#x3b1;" horiz-adv-x="1102" vert-adv-y="2457" 
d="M797 696q31 142 50 271h162q-38 -235 -141 -552q44 -231 85 -306q26 -48 61 -48q25 0 60 22v-48q-58 -51 -132 -51q-52 0 -86 34q-47 48 -86 189q-43 -82 -108 -143q-94 -87 -215 -87q-127 0 -220 91q-148 145 -148 414q0 237 121 381q108 129 272 129q88 0 152 -31
q128 -62 173 -265zM714 418q-34 309 -116 439q-51 82 -131 82q-72 0 -124 -60q-92 -107 -92 -398q0 -268 74 -376q51 -75 120 -75q77 0 143 94q46 66 81 155q47 120 45 139z" />
    <glyph glyph-name="beta" unicode="&#x3b2;" horiz-adv-x="1057" vert-adv-y="2457" 
d="M484 687v55h22q95 0 163 59q98 84 98 257q0 147 -65 220q-56 63 -148 63q-82 0 -136 -57q-57 -61 -69 -170q-4 -42 -4 -133v-495q0 -196 48 -311q27 -63 81 -102q48 -35 110 -35q120 0 174 117q46 98 46 230q0 163 -62 232q-64 70 -197 70h-61zM652 727q126 -18 186 -51
q138 -75 138 -286q0 -190 -112 -307q-96 -101 -257 -101q-182 0 -262 159v-399q0 -52 12 -71q22 -34 134 -40v-41q-137 13 -228 13q-92 0 -229 -13v41q71 3 102 16q34 12 42 47q3 15 3 48v1222q0 145 42 231q97 199 347 199q169 0 269 -87t100 -253q0 -150 -109 -246
q-59 -51 -178 -81z" />
    <glyph glyph-name="gamma" unicode="&#x3b3;" horiz-adv-x="1006" vert-adv-y="2457" 
d="M422 147l-260 690q-23 63 -61 79q-28 12 -94 16v41q117 -10 209 -10t209 10v-41q-60 -4 -83.5 -13.5t-23.5 -29.5q0 -15 15 -55l215 -591l225 585q16 43 16 57q0 27 -32 38q-24 8 -85 9v41q77 -8 152 -8q77 0 176 8v-41q-55 -6 -86 -20q-46 -20 -69 -81l-260 -671v-419
q0 -51 13 -70q22 -34 134 -40v-41q-137 13 -229 13q-91 0 -228 -13v41q71 4 102 15q34 13 41 48q4 15 4 47v406z" />
    <glyph glyph-name="delta" unicode="&#x3b4;" horiz-adv-x="960" vert-adv-y="2457" 
d="M439 961l-11 8q-80 54 -108 75q-97 73 -97 162q0 113 130 162q69 26 168 26q106 0 178 -37q85 -45 85 -118q0 -75 -75 -75q-34 0 -54 18q-19 17 -19 41q0 8 2 23q2 13 2 24q0 71 -113 71q-60 0 -97 -21q-50 -30 -50 -83q0 -44 39 -87q25 -28 116 -99q153 -121 218 -197
q126 -149 126 -368q0 -212 -106 -358q-110 -150 -294 -150t-294 150q-104 141 -104 352q0 287 190 419q74 51 168 62zM507 910q-11 1 -23 1q-129 0 -184 -134q-47 -113 -47 -297q0 -449 225 -449q92 0 151 80q78 107 78 367q0 232 -121 359q-31 32 -68 64q-10 9 -11 9z" />
    <glyph glyph-name="epsilon" unicode="&#x3b5;" horiz-adv-x="872" vert-adv-y="2457" 
d="M768 1009v-338h-46q-19 92 -48 147q-63 118 -197 118q-82 0 -130 -50q-56 -59 -56 -162q0 -110 73 -159q54 -35 138 -35h38v-55h-38q-94 0 -146 -38q-77 -58 -77 -181q0 -93 47 -151q52 -64 145 -64q197 0 236 274h82q-40 -339 -352 -339q-149 0 -241 74q-94 76 -94 211
q0 126 74 195q36 34 105 52q-72 23 -107 55q-61 55 -61 151q0 136 101 212q89 66 238 66q107 0 171 -42q23 -15 54 -45l55 104h36z" />
    <glyph glyph-name="zeta" unicode="&#x3b6;" horiz-adv-x="751" vert-adv-y="2457" 
d="M458 1361q-57 -55 -57 -112q0 -91 135 -91q67 0 131 18q41 11 59 11q16 0 27 -9q15 -10 15 -23q0 -29 -54 -45q-29 -9 -107 -13q-140 -52 -221 -164q-123 -171 -123 -449q0 -235 98 -321q41 -36 101 -54q35 -10 113 -18q114 -11 151 -39q44 -33 44 -99q0 -97 -89 -168
q-113 -91 -266 -91q-59 0 -94 22q-43 27 -43 73q0 31 22 51q21 20 52 20q33 0 55 -21q11 -11 35 -46q10 -16 19 -20q8 -3 34 -3q77 0 130 42q46 37 46 88q0 33 -27 46q-22 11 -148 24q-135 14 -216 65q-89 57 -139 163q-57 120 -57 275q0 188 84 346q86 162 249 251
q30 17 62 28q-69 6 -97 19q-80 36 -80 113q0 99 130 158z" />
    <glyph glyph-name="eta" unicode="&#x3b7;" horiz-adv-x="1091" vert-adv-y="2457" 
d="M62 907v35q162 23 271 61q15 -67 21 -178q108 161 276 161q167 0 250 -126q50 -75 50 -223v-895q0 -52 12 -71q22 -35 134 -40v-41q-131 12 -224 12t-221 -12v40q62 2 94 18q31 14 38 46q3 13 3 44v906q0 122 -31 172q-46 77 -151 77q-109 0 -172 -83q-41 -55 -41 -174
v-494q0 -48 11 -66q23 -37 121 -42v-40q-130 12 -220 12q-89 0 -223 -12v41q72 3 102 15q34 13 42 48q3 15 3 47v634q-1 57 -4 73q-6 45 -60 51q-19 2 -81 4z" />
    <glyph glyph-name="theta" unicode="&#x3b8;" horiz-adv-x="934" vert-adv-y="2457" 
d="M240 669q0 -200 25 -348q49 -288 201 -288q164 0 210 346q18 134 18 290h-454zM241 744h452q-11 596 -221 596q-64 0 -107 -51q-92 -107 -115 -371q-7 -82 -9 -174zM476 1394q122 0 215 -102t140 -292q35 -143 35 -322q0 -287 -106 -494q-53 -103 -142 -164
q-66 -46 -152 -46q-122 0 -220 104q-94 101 -142 286q-36 141 -36 317q0 310 113 511q112 202 295 202z" />
    <glyph glyph-name="iota" unicode="&#x3b9;" horiz-adv-x="571" vert-adv-y="2457" 
d="M372 1003v-858q0 -51 12 -70q22 -35 134 -40v-41q-145 12 -228 12q-84 0 -229 -12v41q72 3 102 15q34 13 41 48q4 15 4 47v648q0 61 -12 82q-18 30 -69 35q-23 2 -64 3v35q163 16 309 55z" />
    <glyph glyph-name="kappa" unicode="&#x3ba;" horiz-adv-x="1097" vert-adv-y="2457" 
d="M582 601l324 -455q43 -63 54 -72q38 -34 130 -39v-41q-137 10 -211 10q-73 0 -210 -10v40q60 6 71 9q29 8 29 27q0 13 -23 46l-266 380l-112 -113v-238q0 -50 12 -70q23 -35 135 -40v-41q-142 12 -228 12q-85 0 -226 -12v41q72 3 102 15q34 13 42 48q3 15 3 47v677
q0 51 -12 70q-23 35 -135 40v41q134 -12 222 -12q89 0 220 12v-40q-62 -3 -93 -17q-30 -15 -37 -46q-3 -15 -3 -45v-349l330 349q34 36 34 59q0 42 -112 48v41q109 -10 194 -10q84 0 203 10v-41q-83 -8 -116.5 -23.5t-90.5 -73.5z" />
    <glyph glyph-name="lambda" unicode="&#x3bb;" horiz-adv-x="1008" vert-adv-y="2457" 
d="M517 726l-282 -587q-16 -33 -16 -60q0 -24 32 -35q24 -8 84 -9v-41q-80 8 -151 8q-73 0 -176 -8v41q54 6 86 20q31 14 46 36q7 10 23 45l325 699l-102 387q-17 61 -76 71q-27 5 -89 5v36q169 19 286 54q14 -62 38 -148l27 -106l273 -1003q16 -59 62 -80q26 -12 94 -16
v-41q-120 10 -209 10q-90 0 -210 -10v41q59 4 81 12q26 10 26 31q0 1 -14 55z" />
    <glyph glyph-name="uni03BC" unicode="&#x3bc;" horiz-adv-x="1103" vert-adv-y="2457" 
d="M262 61q-3 -23 -3 -50q0 -73 47 -181q36 -82 36 -119q0 -43 -26 -74q-24 -30 -67 -30q-45 0 -70 32q-23 29 -23 77q0 49 23 183q20 115 20 213q0 42 -9 77q-13 52 -13 134v470q0 60 -12 82q-17 31 -69 35q-25 3 -64 3v35q159 15 309 55v-684q0 -123 33 -174
q47 -70 151 -70q117 0 174 88q38 58 38 184v446q0 60 -12 82q-17 31 -68 35q-25 3 -65 3v35q159 15 309 55v-833q0 -77 38 -91q24 -8 113 -10v-36q-163 -16 -282 -54q-9 69 -12 187q-40 -76 -84 -114q-79 -69 -196 -69q-129 0 -216 78z" />
    <glyph glyph-name="nu" unicode="&#x3bd;" horiz-adv-x="993" vert-adv-y="2457" 
d="M525 -26h-55q-27 78 -59 162l-20 54l-239 649q-24 64 -64 80q-24 9 -89 13v41q151 -11 219 -11q75 0 210 11v-41q-62 -3 -83 -10q-28 -11 -28 -36q0 -13 12 -49l218 -622l224 617q17 46 17 60q0 22 -28 31q-15 6 -75 9v41q117 -9 159 -9q40 0 151 9v-41q-67 -4 -93 -18
q-36 -18 -59 -81l-236 -636q-7 -19 -43 -115q-14 -37 -39 -108z" />
    <glyph glyph-name="xi" unicode="&#x3be;" horiz-adv-x="768" vert-adv-y="2457" 
d="M547 1092q-233 -67 -233 -242q0 -99 60 -151q28 -25 74 -27q90 26 131 26q51 0 51 -36q0 -18 -25 -34q-31 -20 -109 -20q-39 0 -68 3q-182 -61 -182 -269q0 -139 99 -198q63 -37 214 -53q115 -12 151 -39q44 -33 44 -99q0 -97 -89 -168q-113 -91 -266 -91q-59 0 -94 22
q-43 27 -43 73q0 31 22 51q21 20 52 20q33 0 55 -21q11 -11 35 -46q10 -16 19 -20q8 -3 34 -3q77 0 130 42q46 37 46 88q0 26 -18 41q-19 15 -105 24q-151 15 -219 38q-245 82 -245 311q0 235 257 318q-173 66 -173 216q0 182 265 255q-131 24 -131 127q0 99 130 158l26 -27
q-57 -55 -57 -112q0 -91 135 -91q67 0 131 18q41 11 59 11q16 0 27 -9q15 -10 15 -23q0 -59 -205 -63z" />
    <glyph glyph-name="omicron" unicode="&#x3bf;" horiz-adv-x="960" vert-adv-y="2457" 
d="M488 992q183 0 288 -148q103 -146 103 -363q0 -208 -106 -353q-110 -150 -294 -150t-294 150q-104 142 -104 355q0 224 113 365q114 144 294 144zM484 939q-85 0 -144 -73q-87 -108 -87 -383q0 -452 225 -452q92 0 151 80q78 107 78 367q0 461 -223 461z" />
    <glyph glyph-name="pi" unicode="&#x3c0;" horiz-adv-x="1171" vert-adv-y="2457" 
d="M767 844h-315v-638q-1 -67 -3 -91q-8 -137 -134 -137q-77 0 -146 61q-36 32 -78 85l35 28q32 -32 46 -43q34 -29 68 -29q38 0 53 35q9 21 9 78v651h-65q-57 0 -106 -31q-47 -30 -102 -101l-29 21q17 26 77 119q57 89 121 108q23 7 123 7h585q131 0 165 14q28 12 51 62h42
q-63 -142 -76 -199h-157v-610q0 -121 14 -146q21 -40 104 -40h8v-38q-152 -3 -223 -32h-12q-55 64 -55 221v645z" />
    <glyph glyph-name="rho" unicode="&#x3c1;" horiz-adv-x="1037" vert-adv-y="2457" 
d="M325 141v-399q0 -52 12 -71q22 -34 134 -40v-41q-137 13 -228 13q-92 0 -229 -13v41q71 3 102 16q34 12 42 47q3 15 3 48v703q0 213 70 339q115 208 337 208q180 0 287 -148q101 -139 101 -355q0 -221 -104 -362q-106 -145 -276 -145q-108 0 -176 62q-33 30 -75 97z
M551 942q-60 0 -110 -38t-74 -102q-44 -114 -44 -300q0 -463 235 -463q226 0 226 442q0 193 -45 313q-25 66 -75 108q-48 40 -113 40z" />
    <glyph glyph-name="uni03C2" unicode="&#x3c2;" horiz-adv-x="871" vert-adv-y="2457" 
d="M743 671q-19 93 -48 147q-28 53 -79 86q-49 33 -109 33q-128 0 -188 -135q-56 -127 -56 -317q0 -236 98 -322q41 -36 102 -54q34 -10 113 -18q114 -11 151 -39q44 -33 44 -99q0 -97 -89 -168q-113 -91 -265 -91q-60 0 -95 22q-43 27 -43 73q0 31 22 51q21 20 52 20
q33 0 55 -21q11 -11 35 -46q10 -16 19 -20q8 -3 34 -3q77 0 130 42q46 37 46 87q0 34 -27 48q-22 10 -148 23q-136 14 -216 65q-196 125 -196 443q0 235 119 379q111 135 286 135q120 0 208 -87l55 104h36v-338h-46z" />
    <glyph glyph-name="sigma" unicode="&#x3c3;" horiz-adv-x="981" vert-adv-y="2457" 
d="M912 992v-109q-104 3 -180 11q24 -22 44 -51q103 -150 103 -355q0 -215 -106 -360q-110 -150 -294 -150t-294 150q-104 141 -104 355q0 174 70 301q78 141 215 189q55 19 121 19q17 0 86 -4q112 -7 198 -7q69 0 141 11zM484 923q-85 0 -144 -72q-87 -106 -87 -376
q0 -444 225 -444q92 0 151 79q78 105 78 360q0 453 -223 453z" />
    <glyph glyph-name="tau" unicode="&#x3c4;" horiz-adv-x="887" vert-adv-y="2457" 
d="M527 844v-699q0 -51 12 -70q22 -35 135 -40v-41q-146 12 -229 12q-84 0 -229 -12v41q72 3 102 15q34 13 42 48q3 15 3 47v699h-152q-57 0 -106 -31q-48 -30 -102 -101l-30 21q19 28 77 119q58 89 122 108q22 7 123 7h335q130 0 165 14q28 12 50 62h43q-63 -142 -77 -199
h-284z" />
    <glyph glyph-name="upsilon" unicode="&#x3c5;" horiz-adv-x="983" vert-adv-y="2457" 
d="M341 1002v-696q0 -127 17 -171q42 -105 166 -105q142 0 228 144q81 134 81 331q0 187 -75 265q-35 35 -108 58q-80 26 -80 84q0 34 22 55q25 24 71 24q95 0 162 -110q83 -136 83 -352q0 -229 -99 -385q-107 -168 -320 -168q-177 0 -260 115q-52 72 -52 218v483
q0 60 -12 82q-17 31 -69 35q-25 3 -64 3v36q159 14 309 54z" />
    <glyph glyph-name="phi" unicode="&#x3c6;" horiz-adv-x="1188" vert-adv-y="2457" 
d="M512 991v187q0 61 -12 82q-17 31 -69 36q-24 2 -64 2v36q160 15 309 54v-397q149 -6 259 -91q185 -143 185 -418q0 -171 -75 -294q-93 -155 -265 -197q-49 -13 -104 -14v-236q0 -51 12 -70q22 -34 134 -40v-41q-137 13 -228 13q-92 0 -229 -13v41q72 4 103 15
q33 13 41 48q3 15 3 47v236q-155 3 -269 95q-175 141 -175 410q0 176 80 303q125 197 364 206zM512 30v908q-117 -2 -187 -93q-85 -112 -85 -363q0 -453 272 -452zM676 30q272 -1 272 452q0 276 -104 384q-67 71 -168 72v-908z" />
    <glyph glyph-name="chi" unicode="&#x3c7;" horiz-adv-x="913" vert-adv-y="2457" 
d="M522 393l242 -656q25 -66 69 -88q33 -15 101 -18v-41q-129 12 -211 12q-80 0 -215 -12v41q101 4 101 43q0 14 -17 54l-165 450l-191 -432q-23 -51 -23 -71q0 -24 27 -35q16 -6 71 -9v-41q-113 9 -166 9q-52 0 -165 -9v41q66 4 103 22q56 28 87 97l226 512l-214 584
q-19 52 -62 70q-32 14 -89 16v41q120 -11 200 -11q79 0 204 11v-41q-95 -4 -95 -39q0 -7 18 -55l133 -361l158 359q17 38 17 57q0 35 -97 39v41q100 -8 161 -8q62 0 153 8v-41q-58 -4 -90 -16q-47 -18 -71 -73z" />
    <glyph glyph-name="psi" unicode="&#x3c8;" horiz-adv-x="1251" vert-adv-y="2457" 
d="M585 37v930q86 15 164 36v-961q114 20 190 96q68 67 106 175q38 107 38 232q0 151 -54 225q-26 35 -79 61q-70 34 -70 85q0 38 28 59q21 16 59 16q79 0 132 -78q84 -124 84 -349q0 -339 -220 -499q-96 -70 -214 -84v-240q0 -51 12 -70q22 -34 134 -40v-41
q-137 13 -228 13q-92 0 -229 -13v41q72 4 102 15q34 13 41 48q4 15 4 47v238q-167 13 -265 85q-93 68 -125 190q-18 70 -18 178v361q0 60 -12 82q-17 31 -69 35q-25 3 -64 3v35q159 15 309 55v-575q0 -124 16 -188q42 -165 221 -202z" />
    <glyph glyph-name="omega" unicode="&#x3c9;" horiz-adv-x="1202" vert-adv-y="2457" 
d="M555 262q-4 37 -5 56q-9 90 -9 120q0 49 10 79q7 21 25 36q16 12 32 12q30 0 47 -30q15 -28 15 -65q0 -20 -14 -86q-8 -35 -8 -69q0 -74 45 -131q50 -64 125 -64q97 0 165 97q71 101 71 262q0 205 -99 297q-33 31 -99 58q-56 23 -56 77q0 35 22 55q23 21 57 21
q88 0 155 -112q93 -157 93 -398q0 -191 -74 -329q-91 -171 -247 -171q-135 0 -215 151q-34 -73 -65 -102q-53 -50 -135 -50q-133 0 -219 130q-97 145 -97 357q0 206 88 346q79 127 241 183l26 -38q-70 -43 -104 -98q-79 -130 -79 -365q0 -225 73 -337q51 -78 113 -78
q55 0 86 53q25 40 36 133z" />
    <glyph glyph-name="iotadieresis" unicode="&#x3ca;" horiz-adv-x="571" vert-adv-y="2457" 
d="M372 1003v-858q0 -51 12 -70q22 -35 135 -40v-41q-141 12 -229 12t-229 -12v41q71 3 103 15q33 13 41 48q3 15 3 47v648q0 60 -12 82q-17 31 -68 35q-24 2 -65 3v35q159 15 309 55zM122 1401q43 0 74 -31t31 -75t-31 -75t-75 -31t-75 31t-31 75t31 75q32 31 76 31z
M421 1401q42 0 74 -31q31 -31 31 -75t-31 -75t-75 -31t-75 31t-31 75t31 75q32 31 76 31z" />
    <glyph glyph-name="upsilondieresis" unicode="&#x3cb;" horiz-adv-x="983" vert-adv-y="2457" 
d="M312 1378q43 0 76 -32q32 -32 32 -77q0 -46 -32 -78q-33 -32 -78 -32t-77 32q-32 33 -32 77q0 47 32 78q33 32 79 32zM685 1378q44 0 76 -32t32 -77q0 -46 -32 -78t-78 -32q-45 0 -77 32q-32 33 -32 77q0 47 32 78q33 32 79 32zM341 1002v-696q0 -127 17 -171
q42 -105 166 -105q142 0 228 144q81 134 81 331q0 187 -75 265q-35 35 -108 58q-80 26 -80 84q0 34 22 55q25 24 71 24q95 0 162 -110q83 -136 83 -352q0 -229 -99 -385q-107 -168 -320 -168q-177 0 -260 115q-52 72 -52 218v483q0 60 -12 82q-17 31 -69 35q-25 3 -64 3v36
q159 14 309 54z" />
    <glyph glyph-name="omicrontonos" unicode="&#x3cc;" horiz-adv-x="960" vert-adv-y="2457" 
d="M488 992q183 0 288 -148q103 -146 103 -363q0 -208 -106 -353q-110 -150 -294 -150t-294 150q-104 142 -104 355q0 224 113 365q114 144 294 144zM484 939q-85 0 -144 -73q-87 -108 -87 -383q0 -452 225 -452q92 0 151 80q78 107 78 367q0 461 -223 461zM552 1447
l-36 -354h-71l-36 354h143z" />
    <glyph glyph-name="upsilontonos" unicode="&#x3cd;" horiz-adv-x="983" vert-adv-y="2457" 
d="M341 1002v-696q0 -127 17 -171q42 -105 166 -105q142 0 228 144q81 134 81 331q0 187 -75 265q-35 35 -108 58q-80 26 -80 84q0 34 22 55q25 24 71 24q95 0 162 -110q83 -136 83 -352q0 -229 -99 -385q-107 -168 -320 -168q-177 0 -260 115q-52 72 -52 218v483
q0 60 -12 82q-17 31 -69 35q-25 3 -64 3v36q159 14 309 54zM601 1447l-36 -354h-71l-36 354h143z" />
    <glyph glyph-name="omegatonos" unicode="&#x3ce;" horiz-adv-x="1202" vert-adv-y="2457" 
d="M555 262q-4 37 -5 56q-9 90 -9 120q0 49 10 79q7 21 25 36q16 12 32 12q30 0 47 -30q15 -28 15 -65q0 -20 -14 -86q-8 -35 -8 -69q0 -74 45 -131q50 -64 125 -64q97 0 165 97q71 101 71 262q0 205 -99 297q-33 31 -99 58q-56 23 -56 77q0 35 22 55q23 21 57 21
q88 0 155 -112q93 -157 93 -398q0 -191 -74 -329q-91 -171 -247 -171q-135 0 -215 151q-34 -73 -65 -102q-53 -50 -135 -50q-133 0 -219 130q-97 145 -97 357q0 206 88 346q79 127 241 183l26 -38q-70 -43 -104 -98q-79 -130 -79 -365q0 -225 73 -337q51 -78 113 -78
q55 0 86 53q25 40 36 133zM702 1447l-36 -354h-71l-36 354h143z" />
    <glyph glyph-name="theta1" unicode="&#x3d1;" horiz-adv-x="1043" vert-adv-y="2457" 
d="M924 893h83v-75h-78q4 -50 4 -115q0 -311 -78 -478q-115 -249 -367 -249q-176 0 -259 115q-52 72 -52 218v45q0 60 -12 82q-17 30 -69 35q-25 2 -64 3v35q158 15 309 54v-257q0 -127 17 -171q20 -51 69 -80q42 -25 86 -25q133 0 192 188q55 174 55 441q0 78 -4 157v7
q-189 3 -311 39q-143 42 -211 128q-51 67 -51 153q0 140 118 208q74 43 180 43q219 0 332 -165q91 -134 111 -336zM753 893q-1 7 -1 17q-12 197 -74 306q-71 125 -197 125q-72 0 -113 -47q-36 -41 -36 -112q0 -117 93 -191q84 -67 211 -88q30 -5 110 -10h7z" />
    <glyph glyph-name="Upsilon1" unicode="&#x3d2;" horiz-adv-x="1137" vert-adv-y="2457" 
d="M602 738q27 193 87 335q80 186 198 260q72 45 144 45q99 0 99 -70q0 -35 -26 -57q-24 -20 -55 -20q-25 0 -56 21q-28 19 -55 19q-81 0 -169 -169q-122 -237 -122 -581v-341q0 -65 11 -86q19 -33 86 -43q23 -3 72 -7v-50q-159 16 -256 16q-96 0 -255 -16v50q86 7 119 20
q41 17 47 59q3 21 3 57v341q0 789 -460 800v50q169 0 277 -48q188 -84 262 -311q32 -97 49 -274z" />
    <glyph glyph-name="phi1" unicode="&#x3d5;" horiz-adv-x="1188" vert-adv-y="2457" 
d="M512 30v724q0 93 45 152q65 86 201 86q167 0 263 -142q99 -148 99 -361q0 -303 -207 -440q-104 -69 -237 -72v-236q0 -51 12 -70q22 -34 134 -40v-41q-137 13 -228 13q-92 0 -229 -13v41q72 4 103 15q33 13 41 48q3 15 3 47v236q-155 3 -269 95q-175 141 -175 411
q0 343 278 475l26 -38q-61 -68 -81 -117q-51 -120 -51 -319q0 -455 272 -454zM676 30q124 0 193 94q79 106 79 364q0 189 -56 328q-50 123 -132 123q-84 0 -84 -182v-727z" />
    <glyph glyph-name="afii10023" unicode="&#x401;" horiz-adv-x="1113" vert-adv-y="2457" 
d="M1015 330l-47 -330h-903v50q87 7 119 20q40 17 47 59q3 19 3 57v993q0 63 -12 85q-24 42 -157 51v50h892l36 -308h-46q-36 138 -83 190q-49 55 -160 55h-296v-561h293q70 0 91 34q24 38 30 135h50v-402h-50q-4 92 -29 131t-103 39h-282v-494q0 -68 19 -89q29 -32 118 -32
h145q119 0 170 46q67 62 108 221h47zM396 1739q46 0 80 -34t34 -82t-34 -82t-82 -34t-82 34t-34 82q0 49 34 82q35 34 84 34zM761 1739q46 0 80 -34t34 -82t-34 -82t-82 -34t-82 34t-34 82q0 49 34 82q35 34 84 34z" />
    <glyph glyph-name="afii10051" unicode="&#x402;" horiz-adv-x="1285" vert-adv-y="2457" 
d="M563 749q115 78 278 78q181 0 285 -116q119 -133 119 -392q0 -265 -109 -442q-69 -112 -172 -163q-82 -41 -202 -41v50q75 2 110 16q98 38 144 174q52 156 52 371q0 227 -70 345q-68 116 -221 116q-120 0 -214 -67v-498q0 -66 11 -86q19 -33 86 -43q24 -3 72 -7v-50
q-158 15 -256 15t-256 -15v50q87 7 119 20q41 17 47 59q3 20 3 57v1122h-48q-129 0 -183 -80q-34 -50 -70 -169h-50l55 312h896l57 -312h-49q-34 121 -68 171q-33 49 -79 65q-36 13 -96 13h-191v-553z" />
    <glyph glyph-name="afii10052" unicode="&#x403;" horiz-adv-x="1035" vert-adv-y="2457" 
d="M957 1365l36 -308h-46q-36 138 -83 190q-49 55 -160 55h-296v-1122q0 -63 12 -85q19 -35 85 -44q24 -4 72 -7v-50q-159 15 -256 15t-256 -15v50q87 6 119 20q40 17 47 59q3 18 3 57v999q0 63 -12 85q-20 34 -85 44q-25 3 -72 7v50h892zM449 1483l258 281h248l-403 -281
h-103z" />
    </font>
</defs>
</svg>
